<?xml version="1.0" standalone="no"?>
<!DOCTYPE svg PUBLIC "-//W3C//DTD SVG 1.1//EN" "http://www.w3.org/Graphics/SVG/1.1/DTD/svg11.dtd" >
<svg xmlns="http://www.w3.org/2000/svg" xmlns:xlink="http://www.w3.org/1999/xlink" version="1.1">
<metadata>
Created by FontForge 20170910 at Fri Apr 20 14:54:27 2007
 By Jimmy Wärting
Copyright (c) 2006 Typodermic Do not distribute. Report piracy to piracy@typodermic.com. Visit www.typodermic.com and www.larabiefonts.com
</metadata>
<defs>
<font id="Marion" horiz-adv-x="0" >
  <font-face 
    font-family="Marion"
    font-weight="400"
    font-stretch="normal"
    units-per-em="1000"
    panose-1="2 2 5 2 6 4 0 2 0 3"
    ascent="769"
    descent="-231"
    x-height="433"
    cap-height="705"
    bbox="-450 -319 1352 881"
    underline-thickness="50"
    underline-position="-100"
    unicode-range="U+0020-FB04"
  />
<missing-glyph horiz-adv-x="788" 
d="M394 714q78 0 143.5 -27t113 -75t74.5 -115.5t27 -148.5q0 -77 -25.5 -143t-72 -115.5t-112.5 -77.5t-148 -28t-148.5 28.5t-113 77.5t-72 115.5t-25.5 142.5q0 78 28 145t76.5 116t114 77t140.5 28zM397 677q-64 0 -120 -24t-97.5 -67.5t-65.5 -104t-24 -133.5
q0 -90 30 -152.5t75.5 -102t99.5 -57t102 -17.5q84 0 142 31.5t95 80t53.5 106.5t16.5 111q0 87 -30.5 149.5t-76.5 102t-100 58.5t-100 19z" />
    <glyph glyph-name=".notdef" horiz-adv-x="788" 
d="M394 714q78 0 143.5 -27t113 -75t74.5 -115.5t27 -148.5q0 -77 -25.5 -143t-72 -115.5t-112.5 -77.5t-148 -28t-148.5 28.5t-113 77.5t-72 115.5t-25.5 142.5q0 78 28 145t76.5 116t114 77t140.5 28zM397 677q-64 0 -120 -24t-97.5 -67.5t-65.5 -104t-24 -133.5
q0 -90 30 -152.5t75.5 -102t99.5 -57t102 -17.5q84 0 142 31.5t95 80t53.5 106.5t16.5 111q0 87 -30.5 149.5t-76.5 102t-100 58.5t-100 19z" />
    <glyph glyph-name="space" unicode=" " horiz-adv-x="340" 
 />
    <glyph glyph-name="exclam" unicode="!" horiz-adv-x="319" 
d="M133 207q-8 89 -14.5 151.5t-11.5 106t-8.5 71.5t-6 47t-3.5 32.5t-1 28.5q0 77 65 77t65 -77q0 -15 -1 -28.5t-3 -32.5t-6 -47t-10 -71.5t-14 -106t-19 -151.5h-32zM218 53q0 -69 -69 -69q-73 0 -73 69t73 69q69 0 69 -69z" />
    <glyph glyph-name="quotedbl" unicode="&#x22;" horiz-adv-x="334" 
d="M68 454q-16 88 -24.5 145t-8.5 86q0 36 49 36q45 0 45 -36q0 -29 -9.5 -86t-27.5 -145h-24zM238 454q-16 88 -24 145t-8 86q0 36 48 36q45 0 45 -36q0 -67 -37 -231h-24z" />
    <glyph glyph-name="numbersign" unicode="#" horiz-adv-x="593" 
d="M457 470h101l-8 -57h-110l-24 -134h105l-8 -56h-109l-49 -223h-60l48 223h-129l-45 -223h-65l49 223h-118l9 56h121l24 134h-117q7 40 12 57h118l48 223h61l-45 -223h126l48 223h61zM254 413l-28 -134h129l25 134h-126z" />
    <glyph glyph-name="dollar" unicode="$" horiz-adv-x="512" 
d="M270 680q175 -7 175 -133q0 -57 -41 -57q-40 0 -40 37q0 8 4 16t4 24q0 69 -102 77v-243q6 -4 12.5 -7t12.5 -5q33 -14 66 -30t58.5 -38t41.5 -51.5t16 -71.5q0 -218 -207 -218v-93q0 -13 -16 -13q-20 0 -20 13v93q-199 12 -199 154q0 85 45 85q36 0 36 -41q0 -12 -6 -30
t-6 -39q16 -73 130 -81v296q-8 0 -12 4q-32 13 -63.5 28t-57 35t-41.5 47t-16 64q0 171 190 178v86q0 12 16 12q20 0 20 -12v-86zM270 28q134 5 134 134q0 31 -10.5 52.5t-28.5 37.5t-42.5 29t-52.5 27v-280zM234 644q-118 -7 -118 -105q0 -47 31.5 -74t86.5 -48v227z" />
    <glyph glyph-name="percent" unicode="%" horiz-adv-x="808" 
d="M234 689q134 0 134 -162q0 -191 -187 -191q-146 0 -146 166q0 187 199 187zM238 664q-126 0 -126 -190q0 -109 77 -109q130 0 130 162q0 137 -81 137zM228 0h-53l401 705h57zM639 344q134 0 134 -162q0 -190 -187 -190q-146 0 -146 166q0 186 199 186zM643 320
q-126 0 -126 -190q0 -110 77 -110q130 0 130 162q0 138 -81 138z" />
    <glyph glyph-name="ampersand" unicode="&#x26;" horiz-adv-x="799" 
d="M744 401q-36 0 -58.5 -22t-42.5 -57q-10 -17 -17.5 -37t-18 -42t-27 -46t-43.5 -49q42 -35 74 -61t56 -26q16 0 33.5 7.5t32.5 18t26 22.5t14 21l28 -13q-4 -23 -16 -46t-32 -41.5t-48.5 -30t-65.5 -11.5q-94 0 -171 83q-83 -83 -198 -83q-235 0 -235 194
q0 70 36.5 129.5t125.5 105.5q-20 33 -34 69t-14 65q0 162 162 162t162 -134q0 -53 -40.5 -97t-101.5 -77q39 -55 82.5 -112t94.5 -118q78 81 78 149q0 77 -93 77v32h251v-32zM214 389q-85 -45 -85 -126q0 -210 182 -210q32 0 66 9t69 42q-69 77 -126.5 144.5t-105.5 140.5z
M311 433q89 86 89 142q0 105 -89 105q-77 0 -77 -97q0 -49 77 -150z" />
    <glyph glyph-name="quotesingle" unicode="'" horiz-adv-x="164" 
d="M68 454q-16 88 -24.5 145t-8.5 86q0 36 49 36q45 0 45 -36q0 -29 -9.5 -86t-27.5 -145h-24z" />
    <glyph glyph-name="parenleft" unicode="(" horiz-adv-x="298" 
d="M262 713q-154 -154 -154 -434q0 -231 154 -421l-8 -24q-109 112 -164 221t-55 224q0 141 55 252.5t164 205.5z" />
    <glyph glyph-name="parenright" unicode=")" horiz-adv-x="298" 
d="M44 733q112 -115 165 -224t53 -221q0 -142 -54.5 -253t-163.5 -205l-9 24q78 78 116 185t38 249q0 115 -38 219.5t-116 201.5z" />
    <glyph glyph-name="asterisk" unicode="*" horiz-adv-x="477" 
d="M340 526q9 1 18.5 1h17.5q65 0 65 -41q0 -13 -9 -23.5t-26 -10.5q-15 0 -32.5 8t-35 17.5t-34 17.5t-28.5 8q-7 0 -7 -8q0 -11 12 -26.5t27 -33t27 -35t12 -30.5q0 -16 -10 -25.5t-23 -9.5q-23 0 -34 23.5t-17 51.5t-10.5 51.5t-13.5 23.5q-7 0 -11.5 -11t-8 -28t-7 -36
t-10 -36t-15.5 -28t-24 -11q-14 0 -24 9.5t-10 26.5q0 15 12.5 34t27.5 37t27.5 32.5t12.5 20.5q0 8 -10 8q-11 0 -26.5 -8t-33 -17t-35.5 -17t-33 -8q-17 0 -26.5 10.5t-9.5 24.5q0 39 72 39h70q22 0 22 9q0 11 -20.5 21t-44.5 21.5t-44.5 25t-20.5 30.5q0 14 10 23.5
t24 9.5q17 0 34 -16.5t32 -36.5t28 -36.5t21 -16.5t8 14q0 31 -10.5 60t-10.5 58q0 20 10.5 30t24.5 10q11 0 23 -10t12 -30q0 -14 -4 -28.5t-8.5 -29.5t-8 -30.5t-3.5 -31.5q0 -12 8 -12q10 0 24 16.5t29 36.5t31.5 36.5t31.5 16.5q14 0 24 -10t10 -24q0 -17 -20.5 -31.5
t-45 -26.5t-45 -22t-20.5 -18q1 -5 13.5 -7t28.5 -2h20z" />
    <glyph glyph-name="plus" unicode="+" horiz-adv-x="583" 
d="M325 391h203v-69h-203v-198h-73v198h-202v69h202v206h73v-206z" />
    <glyph glyph-name="comma" unicode="," horiz-adv-x="268" 
d="M53 -146q34 22 53 40t28 33t10.5 27.5t1.5 23.5q0 26 -24 26q-61 0 -61 53q0 69 65 69q85 0 85 -102q0 -66 -36.5 -112t-105.5 -82z" />
    <glyph glyph-name="hyphen" unicode="-" horiz-adv-x="322" 
d="M287 239h-252v65h252v-65z" />
    <glyph glyph-name="period" unicode="." horiz-adv-x="249" 
d="M127 122q68 0 68 -69t-68 -69q-73 0 -73 69t73 69z" />
    <glyph glyph-name="slash" unicode="/" horiz-adv-x="387" 
d="M63 -57h-49l300 778h49z" />
    <glyph glyph-name="zero" unicode="0" horiz-adv-x="529" 
d="M270 717q50 0 91 -29.5t70.5 -78.5t45.5 -113t16 -133q0 -70 -16.5 -138t-47 -121.5t-75 -86.5t-100.5 -33q-53 0 -94 28.5t-69 76.5t-42 111t-14 133q0 75 16.5 144t47 122.5t74 85.5t97.5 32zM242 670q-32 0 -53.5 -28t-35 -71.5t-19 -95.5t-5.5 -99q0 -81 8.5 -145
t25.5 -108.5t44 -68.5t63 -24q41 0 66.5 24t39.5 64.5t19 93t5 109.5q0 33 -2.5 71.5t-9 77t-17.5 75t-28.5 64t-42.5 44.5t-58 17z" />
    <glyph glyph-name="one" unicode="1" horiz-adv-x="419" 
d="M266 721q-4 -23 -6 -40.5t-2 -28.5v-551q0 -69 126 -69v-32h-345v32q126 0 126 69v466q0 45 -40 45h-90v32q40 6 67 12t48.5 15.5t41.5 23t46 34.5z" />
    <glyph glyph-name="two" unicode="2" horiz-adv-x="520" 
d="M445 0h-329q-22 0 -41 -1t-36 -3l-4 28q71 71 131.5 136.5t104.5 128t69 123t25 120.5q0 64 -34.5 95.5t-100.5 31.5q-61 0 -91.5 -22t-30.5 -61q37 -12 37 -40q0 -52 -45 -52q-44 0 -44 69q0 79 52.5 121t161.5 42q192 0 192 -177q0 -61 -19 -115t-59 -107.5
t-101.5 -110t-145.5 -121.5h190q28 0 48.5 3t35 12.5t25.5 27t21 46.5l28 -4z" />
    <glyph glyph-name="three" unicode="3" horiz-adv-x="489" 
d="M295 399q159 -17 159 -189q0 -225 -262 -225q-167 0 -167 105q0 52 53 52q37 0 37 -35q0 -30 -21 -37q3 -39 70 -39q183 0 183 176q0 150 -118 150h-53q-12 0 -12 17q0 21 12 21q78 0 114.5 39.5t36.5 114.5q0 117 -102 117q-98 0 -98 -45q20 -11 20 -35q0 -46 -43 -46
q-42 0 -42 44q0 133 191 133q164 0 164 -155q0 -121 -122 -154v-9z" />
    <glyph glyph-name="four" unicode="4" horiz-adv-x="521" 
d="M399 717q-12 -41 -12 -85v-340q0 -21 16 -21h41q22 0 52 8v-76h-93q-16 0 -16 -21v-105q0 -45 48 -45v-32h-190v32q53 0 53 45v105q0 21 -21 21h-255v40l341 478zM87 271h190q21 0 21 21v275z" />
    <glyph glyph-name="five" unicode="5" horiz-adv-x="493" 
d="M449 734q-50 -125 -179 -125q-29 0 -56.5 3t-53.5 8l-35 -195q50 29 110 29q223 0 223 -235t-268 -235q-162 0 -162 89q0 40 33 40q32 0 32 -32q0 -16 -16 -28q23 -29 97 -29q182 0 182 195q0 178 -149 178q-72 0 -110 -53l-36 16l59 350q85 -12 163 -12q109 0 153 36h13
z" />
    <glyph glyph-name="six" unicode="6" horiz-adv-x="525" 
d="M385 659q-21 9 -46 9q-29 0 -64.5 -17.5t-66 -57t-51 -103t-20.5 -154.5q47 77 170 77q41 0 74.5 -13.5t57.5 -37.5t37 -56.5t13 -70.5q0 -121 -53 -186t-162 -65q-59 0 -104 17.5t-75 50.5t-45 79.5t-15 103.5q0 115 22.5 205t63.5 151.5t100 93.5t132 32q92 0 92 -68
q0 -42 -38 -42q-31 0 -31 27q0 16 9 25zM262 365q-125 0 -125 -162q0 -33 8.5 -64t25.5 -56t42.5 -40t60.5 -15q30 0 53 13.5t38.5 36t23 52.5t7.5 64q0 91 -35.5 131t-98.5 40z" />
    <glyph glyph-name="seven" unicode="7" horiz-adv-x="444" 
d="M444 660q-19 -32 -37.5 -74t-36 -86.5t-32 -88t-24.5 -78.5q-20 -69 -33.5 -139.5t-13.5 -140.5q0 -69 -60 -69q-61 0 -61 61q0 30 10.5 70.5t25.5 82.5t32.5 82.5t31.5 70.5q17 37 37 76.5t38.5 75.5t33 64.5t20.5 43.5q0 9 -11 9h-245q-42 0 -72 -97l-25 12l25 174
q21 -3 46 -3.5t59 -0.5h292v-45z" />
    <glyph glyph-name="eight" unicode="8" horiz-adv-x="531" 
d="M345 398q66 -29 108 -79t42 -124q0 -53 -17.5 -92.5t-49 -65.5t-74.5 -39.5t-93 -13.5q-45 0 -86 12t-72 36t-49.5 59.5t-18.5 82.5q0 34 11 61.5t30 49t44 38t53 28.5q-24 16 -44.5 33t-35.5 37.5t-23.5 47t-8.5 61.5q0 88 54.5 137.5t157.5 49.5q35 0 69.5 -10.5
t62 -30.5t44.5 -49.5t17 -67.5q0 -30 -10.5 -54t-27.5 -43.5t-39 -35t-44 -28.5zM228 330q-59 -12 -88.5 -57.5t-29.5 -102.5q0 -33 12.5 -61.5t34.5 -48.5t51 -31.5t61 -11.5q28 0 55.5 10t48.5 28t34 43t13 55q0 42 -19 69.5t-47.5 46.5t-62 32.5t-63.5 28.5zM307 415
q48 26 68 59.5t20 76.5q0 58 -36.5 90.5t-93.5 32.5q-26 0 -48.5 -6.5t-39.5 -20t-27 -33.5t-10 -47q0 -35 15 -60.5t39 -44t54 -30t59 -17.5z" />
    <glyph glyph-name="nine" unicode="9" horiz-adv-x="531" 
d="M394 334q-27 -38 -65 -59.5t-105 -21.5q-38 0 -72 16.5t-60 46t-41.5 69t-15.5 85.5t14.5 90t42.5 79t69 56.5t95 21.5q239 0 239 -294q0 -93 -20 -173t-59.5 -139t-97 -93t-132.5 -34q-100 0 -100 73q0 38 39 38q30 0 30 -26q0 -15 -11 -32q22 -9 47 -9q35 0 71 18.5
t65.5 56.5t48 95.5t18.5 135.5zM256 675q-61 0 -91 -42t-30 -138q0 -185 133 -185q61 0 93.5 43t32.5 134q0 101 -34 144.5t-104 43.5z" />
    <glyph glyph-name="colon" unicode=":" horiz-adv-x="251" 
d="M126 122q68 0 68 -69t-68 -69q-73 0 -73 69t73 69zM194 369q0 -69 -68 -69q-73 0 -73 69q0 68 73 68q68 0 68 -68z" />
    <glyph glyph-name="semicolon" unicode=";" horiz-adv-x="255" 
d="M192 369q0 -69 -68 -69q-73 0 -73 69q0 68 73 68q68 0 68 -68zM47 -146q34 22 53 40t28 33t10.5 27.5t1.5 23.5q0 26 -25 26q-60 0 -60 53q0 69 64 69q86 0 86 -102q0 -66 -36.5 -112t-105.5 -82z" />
    <glyph glyph-name="less" unicode="&#x3c;" horiz-adv-x="435" 
d="M400 486l-280 -128l280 -128v-62l-365 171v37l365 171v-61z" />
    <glyph glyph-name="equal" unicode="=" horiz-adv-x="535" 
d="M488 401h-441v65h441v-65zM488 239h-441v65h441v-65z" />
    <glyph glyph-name="greater" unicode="&#x3e;" horiz-adv-x="435" 
d="M400 342l-365 -171v61l280 127l-280 129v62l365 -171v-37z" />
    <glyph glyph-name="question" unicode="?" horiz-adv-x="402" 
d="M119 624q0 -4 2.5 -6t2.5 -6q0 -53 -45 -53q-36 0 -36 53q0 26 10.5 45t29.5 31.5t43.5 18.5t53.5 6q41 0 75.5 -10t59 -29t38.5 -47t14 -64q0 -43 -13 -74t-32.5 -55t-42 -43.5t-42 -39.5t-32.5 -44t-13 -56v-44h-28q-12 24 -12 72t19.5 80.5t43 62t43 61.5t19.5 80
q0 45 -22 71t-79 26q-16 0 -34 -6t-23 -22v-8zM245 53q0 -69 -69 -69q-73 0 -73 69t73 69q69 0 69 -69z" />
    <glyph glyph-name="at" unicode="@" horiz-adv-x="755" 
d="M489 251q4 -73 37 -73q69 0 107 64t38 179q0 231 -267 231q-312 0 -312 -308t308 -308q129 0 243 90l24 -29q-105 -109 -279 -109q-353 0 -353 356q0 361 365 361q320 0 320 -284q0 -271 -215 -271q-66 0 -66 70v7t1 8q-53 -81 -121 -81q-49 0 -83 32.5t-34 109.5
q0 121 50 178t132 57q85 0 97 -73l20 60h65zM461 421q0 77 -77 77q-45 0 -73 -54.5t-28 -147.5q0 -61 14 -85.5t38 -24.5q45 0 93 102z" />
    <glyph glyph-name="A" unicode="A" horiz-adv-x="681" 
d="M617 77q18 -24 24 -28q4 -4 61 -17v-32h-292v32q17 2 33.5 4.5t30 6t21.5 8.5t8 12q0 5 -2 12t-6 18l-48 130q-10 28 -65 28h-158q-42 0 -49 -28l-36 -110q-4 -7 -4 -28q0 -49 93 -49v-36h-239v36q58 4 89 77l255 608l32 -12zM224 348q-12 -24 -12 -36q0 -16 40 -16h134
q32 0 32 12q0 4 -3.5 13t-8.5 23l-89 227z" />
    <glyph glyph-name="B" unicode="B" horiz-adv-x="717" 
d="M335 664q-74 0 -74 -40v-205q0 -30 31 -30q73 0 117 7.5t68 24t31.5 42.5t7.5 64q0 137 -139 137h-42zM476 377q85 -13 137.5 -57t52.5 -117q0 -58 -19.5 -97.5t-53 -64t-79.5 -35t-99 -10.5q-44 0 -86.5 0.5t-86 1.5t-90 1.5t-97.5 0.5v32q101 0 101 60v506
q0 74 -105 74v33h307q56 0 104.5 -9t84 -28.5t55.5 -51t20 -77.5q0 -35 -10.5 -60t-30 -43.5t-46.5 -31.5t-59 -23v-4zM292 348q-31 0 -31 -41v-229q0 -42 76 -42h47q36 0 67 8.5t53.5 26.5t35.5 47.5t13 71.5q0 50 -15.5 81t-44.5 48t-70.5 23t-92.5 6h-38z" />
    <glyph glyph-name="C" unicode="C" horiz-adv-x="696" 
d="M614 470q-25 103 -85.5 154.5t-141.5 51.5q-58 0 -99.5 -25t-68 -66t-39 -93.5t-12.5 -106.5q0 -75 13.5 -140t42 -112t74 -74t109.5 -27q40 0 72.5 8.5t60 29.5t50.5 56t44 89l32 -12q-10 -55 -36.5 -96t-64 -68.5t-84.5 -41t-98 -13.5q-75 0 -136.5 27t-105 75t-67 113
t-23.5 141q0 82 26.5 151.5t71.5 119.5t105.5 78t128.5 28q81 0 154 -49q36 37 77 45q3 -4 9 -24.5t12 -53.5t10.5 -75.5t4.5 -89.5h-36z" />
    <glyph glyph-name="D" unicode="D" horiz-adv-x="806" 
d="M51 705q22 -3 45 -3.5t48 -0.5q32 0 60 1t55.5 2.5t56 3t63.5 1.5q90 0 160 -24.5t118 -70.5t73 -112t25 -150q0 -81 -24.5 -146t-77 -110.5t-134.5 -70.5t-197 -25h-267v32q31 0 51 3t31 13.5t15 30t4 51.5v441q0 37 -5.5 55.5t-18 26.5t-32.5 10.5t-49 8.5v33zM327 664
q-20 0 -32.5 -2t-20 -8.5t-10.5 -19.5t-3 -35v-477q0 -29 5 -45t16 -24t29 -10t44 -2h32q125 0 186 75.5t61 235.5t-68.5 236t-196.5 76h-42z" />
    <glyph glyph-name="E" unicode="E" horiz-adv-x="686" 
d="M618 506l-33 -4q-10 58 -29 90t-46 47t-62 18t-77 3h-29q-81 0 -81 -48v-191q0 -32 25 -32h36q27 0 50 3t40 14t28.5 34t15.5 62h40v-275h-40q-4 39 -12.5 62t-24 35.5t-39.5 16t-58 3.5h-12q-49 0 -49 -36v-203q0 -60 85 -60h33q68 0 108.5 10.5t66 31.5t40.5 54t32 78
l28 -8l-28 -211h-567v32q97 0 97 69v482q0 89 -105 89v33h559z" />
    <glyph glyph-name="F" unicode="F" horiz-adv-x="621" 
d="M614 510l-37 -4q-10 53 -28.5 84t-46 46.5t-64.5 19.5t-84 4h-32q-65 0 -65 -44v-187q0 -40 61 -40h16q34 0 54.5 5t32.5 17t18.5 33t12.5 54h36v-271h-36v21q0 15 -3.5 31.5t-16.5 31t-38 24t-68 9.5h-49q-20 0 -20 -32v-195q0 -85 110 -85v-32h-308v32q93 0 93 85v462
q0 93 -101 93v33h546z" />
    <glyph glyph-name="G" unicode="G" horiz-adv-x="772" 
d="M642 470q-12 47 -33 85.5t-50.5 66.5t-67.5 43t-84 15q-65 0 -109.5 -27.5t-72.5 -72.5t-40.5 -103.5t-12.5 -120.5q0 -66 14.5 -125.5t44 -104.5t73.5 -71.5t103 -26.5q35 0 66 8t54 26t36.5 46.5t13.5 69.5q0 110 -109 110v32h304v-32q-94 0 -94 -81v-219h-28
q-24 18 -43.5 32t-33.5 25q-36 -29 -86 -45t-104 -16q-73 0 -134 27.5t-105 75.5t-68.5 113t-24.5 140q0 73 25.5 141.5t71 122t108.5 85.5t139 32q45 0 86.5 -16t83.5 -37q36 37 77 45q36 -90 36 -243h-36z" />
    <glyph glyph-name="H" unicode="H" horiz-adv-x="867" 
d="M816 672q-97 0 -97 -93v-474q0 -73 97 -73v-32h-308v32q106 0 106 73v223q-19 16 -81 16h-191q-46 0 -77 -16v-223q0 -73 98 -73v-32h-312v32q109 0 109 73v474q0 93 -109 93v33h312v-33q-98 0 -98 -93v-182q33 -12 77 -12h191q60 0 81 12v182q0 93 -106 93v33h308v-33z
" />
    <glyph glyph-name="I" unicode="I" horiz-adv-x="413" 
d="M358 672q-97 0 -97 -93v-474q0 -73 102 -73v-32h-308v32q101 0 101 73v474q0 93 -105 93v33h307v-33z" />
    <glyph glyph-name="J" unicode="J" horiz-adv-x="469" 
d="M441 672q-89 0 -89 -93v-332q0 -54 -11 -101t-35 -82.5t-61.5 -55.5t-90.5 -20q-28 0 -54.5 9t-46.5 25.5t-32.5 39.5t-12.5 51q0 29 16 51t45 22q48 0 48 -44q0 -45 -28 -45q-20 0 -28 8q4 -28 30 -46t63 -18q32 0 50.5 22t28 54.5t12 70.5t2.5 71v316q0 97 -109 97v33
h303v-33z" />
    <glyph glyph-name="K" unicode="K" horiz-adv-x="767" 
d="M751 672q-33 -3 -53.5 -8t-39 -16.5t-38.5 -31t-51 -49.5l-150 -146l243 -316q15 -16 28 -29.5t27 -23t32 -15t43 -5.5v-32h-292v32q61 0 61 17q0 12 -28 52l-191 247l-48 -44q-12 -11 -21 -24.5t-12 -32.5v-142q0 -73 106 -73v-32h-308v32q97 0 97 73v490q0 77 -105 77
v33h303v-33q-93 0 -93 -77v-259l247 235q23 22 32 36t9 37q0 28 -73 28v33h275v-33z" />
    <glyph glyph-name="L" unicode="L" horiz-adv-x="627" 
d="M358 672q-97 0 -97 -81v-502q0 -44 69 -44h49q96 0 146 26q48 25 85 152l28 -4l-32 -219h-543v32q93 0 93 57v502q0 81 -105 81v33h307v-33z" />
    <glyph glyph-name="M" unicode="M" horiz-adv-x="949" 
d="M890 672q-35 0 -55.5 -5t-30.5 -13.5t-12.5 -20.5t-2.5 -25l12 -491q0 -85 97 -85v-32h-300v32q94 0 94 78l-8 494l-227 -604h-29l-243 595l-4 -469q-1 -94 106 -94v-32h-256v32q97 0 102 102l8 474q0 13 -1.5 25t-11.5 20.5t-31.5 13.5t-61.5 5v33h219l215 -539l206 539
h215v-33z" />
    <glyph glyph-name="N" unicode="N" horiz-adv-x="790" 
d="M779 672q-98 0 -98 -117v-559l-28 -8l-470 599v-429q0 -126 110 -126v-32h-256v32q90 0 90 126v470q0 44 -106 44v33h195l417 -531v381q0 117 -109 117v33h255v-33z" />
    <glyph glyph-name="O" unicode="O" horiz-adv-x="794" 
d="M384 680q-61 0 -103 -26.5t-67.5 -71.5t-37 -103.5t-11.5 -122.5q0 -70 14 -130.5t42.5 -105.5t73 -70.5t105.5 -25.5q59 0 102 25t70.5 68.5t41 103t13.5 127.5q0 64 -13 123.5t-42 106t-75.5 74.5t-112.5 28zM392 717q77 0 142.5 -27.5t113 -75.5t74 -114t26.5 -144
q0 -68 -25.5 -135t-72 -119.5t-112 -85t-146.5 -32.5q-76 0 -140 28.5t-110 78t-72 115.5t-26 142q0 70 24.5 136.5t70 118t109.5 83t144 31.5z" />
    <glyph glyph-name="P" unicode="P" horiz-adv-x="669" 
d="M229 705q34 0 54 0.5t35 1.5t31 1.5t42 0.5q239 0 239 -207q0 -40 -14.5 -75.5t-44.5 -61.5t-75.5 -41.5t-108.5 -15.5q-69 0 -130 12v-207q0 -81 106 -81v-32h-308v32q97 0 97 77v499q0 64 -101 64v33h178zM302 672q-45 0 -45 -56v-256q54 -12 130 -12q35 0 60.5 13
t41.5 35t23.5 50.5t7.5 59.5q0 166 -190 166h-28z" />
    <glyph glyph-name="Q" unicode="Q" horiz-adv-x="804" 
d="M768 -69q-11 -37 -28 -58.5t-36.5 -33t-40 -14.5t-37.5 -3q-115 0 -170 162h-41q-78 0 -135 18t-97.5 47.5t-66 67.5t-40 78.5t-20 80t-5.5 72.5q0 76 27.5 144t75.5 119t113 80.5t140 29.5q78 0 141.5 -29t109 -78.5t71 -115t26.5 -138.5q0 -50 -11 -99.5t-36.5 -94.5
t-67.5 -84.5t-103 -69.5q9 -26 25 -48.5t35 -39.5t39 -27t38 -10q45 0 65 44h29zM407 676q-53 0 -96 -19.5t-74 -59t-48 -100.5t-17 -145q0 -77 16.5 -137.5t48 -103t76.5 -65t102 -22.5q58 0 100 24.5t69.5 68t40.5 103t13 128.5q0 57 -13 115.5t-40.5 105.5t-71.5 77
t-106 30z" />
    <glyph glyph-name="R" unicode="R" horiz-adv-x="709" 
d="M301 664q-40 0 -40 -60v-203q4 -16 25 -16h56q31 0 61 4.5t53.5 19t37.5 42.5t14 76q0 40 -14.5 66.5t-37 42.5t-50.5 22t-54 6h-51zM723 93q0 -13 -6 -31t-18 -34.5t-29.5 -28t-39.5 -11.5q-33 0 -56 5.5t-39.5 16.5t-27.5 29t-19 42q-14 40 -26.5 86t-30 85.5
t-42.5 65.5t-63 26h-32q-29 0 -33 -12v-231q0 -69 97 -69v-32h-299v32q93 0 93 69v503q0 68 -101 68v33h133q35 0 59.5 1t47.5 1.5t48.5 1.5t63.5 1q46 0 86.5 -13.5t69.5 -37t46 -55.5t17 -69t-14 -65.5t-38.5 -50t-59 -36t-75.5 -23.5v-4q52 -24 85.5 -60.5t44.5 -70.5
q7 -22 15 -51.5t19.5 -56.5t26.5 -45.5t36 -18.5q25 0 37 48z" />
    <glyph glyph-name="S" unicode="S" horiz-adv-x="577" 
d="M467 490q-21 88 -70.5 139t-124.5 51q-61 0 -97 -32t-36 -81q0 -38 25.5 -66t79.5 -51q64 -28 117.5 -47t91 -43t58.5 -61t21 -101q0 -39 -12 -77.5t-38 -69t-67 -49t-98 -18.5q-37 0 -64 5.5t-46 13t-29.5 14.5t-14.5 11q-46 -32 -81 -44q-24 157 -24 251h36
q0 -47 19 -86t49 -66.5t66.5 -43t72.5 -15.5q22 0 49.5 8t51.5 24t40.5 40.5t16.5 57.5q0 43 -22.5 75t-73.5 50q-59 21 -112.5 39t-94.5 43t-65.5 63t-24.5 99q0 45 16 81.5t43 62.5t63 40t76 14q45 0 77.5 -16t60.5 -29q16 13 33.5 22t35.5 15q28 -91 28 -223h-32z" />
    <glyph glyph-name="T" unicode="T" horiz-adv-x="621" 
d="M612 490l-29 -4q-12 170 -170 170q-53 0 -53 -36v-490q0 -98 114 -98v-32h-332v32q113 0 113 98v490q0 40 -52 40q-137 0 -179 -182l-32 8l28 227q25 -4 47 -6t42 -2h409q23 0 46 2t48 6v-223z" />
    <glyph glyph-name="U" unicode="U" horiz-adv-x="801" 
d="M793 672q-89 0 -89 -93v-324q0 -61 -10.5 -111t-43 -85.5t-92 -55t-158.5 -19.5q-62 0 -110 17t-80 48t-48.5 73.5t-16.5 92.5v380q0 77 -101 77v33h307v-33q-101 0 -101 -77v-352q0 -36 3.5 -73.5t22.5 -68t59 -50t114 -19.5q68 0 109 20.5t62.5 51.5t28 68.5t6.5 70.5
v336q0 93 -109 93v33h247v-33z" />
    <glyph glyph-name="V" unicode="V" horiz-adv-x="691" 
d="M698 672h-33q-36 0 -56 -56l-256 -632l-36 8l-243 612q-32 68 -93 68v33h287v-33h-48q-37 0 -37 -20q0 -11 8 -48l179 -478l166 457q2 10 3 19.5t1 17.5q0 52 -97 52v33h255v-33z" />
    <glyph glyph-name="W" unicode="W" horiz-adv-x="964" 
d="M979 672q-66 0 -97 -105l-190 -579l-41 -4l-166 474l-150 -470l-40 -4l-223 620q-32 68 -81 68v33h267v-33q-48 0 -64.5 -10t-16.5 -30q0 -5 2.5 -12.5t5.5 -15.5l154 -454l126 377l-41 109q-7 18 -25 27t-52 9v33h276v-33q-79 0 -79 -43q0 -2 0.5 -5t1.5 -8l154 -466
l129 413q5 14 6.5 27t1.5 26q0 56 -89 56v33h231v-33z" />
    <glyph glyph-name="X" unicode="X" horiz-adv-x="731" 
d="M702 672q-69 0 -106 -40l-194 -243l231 -324q22 -33 93 -33v-32h-316v32q85 0 85 21q0 15 -20 44l-138 203l-142 -199q-8 -22 -8 -32q0 -37 93 -37v-32h-275v32q61 0 130 77l178 231l-199 284q-32 45 -105 48v33h304v-33q-77 0 -77 -28q0 -12 12 -28l130 -191l125 174
q8 24 8 33q0 40 -77 40v33h268v-33z" />
    <glyph glyph-name="Y" unicode="Y" horiz-adv-x="646" 
d="M671 672q-55 0 -85 -40l-198 -340v-215q0 -45 105 -45v-32h-324v32q109 0 109 49v207l-178 295q-54 89 -117 89v33h291v-33q-77 0 -77 -36q0 -8 4.5 -15.5t12.5 -21.5l150 -251l137 247q8 27 8 45q0 32 -85 32v33h247v-33z" />
    <glyph glyph-name="Z" unicode="Z" horiz-adv-x="578" 
d="M551 672l-393 -623q46 -8 69 -8h81q55 0 94 20.5t65.5 49t42.5 59.5t25 53l32 -8l-28 -215h-511l-4 24l397 628q-23 4 -45 6t-44 2h-48q-15 0 -38.5 -2t-48 -8t-46.5 -17t-34 -29q-8 -17 -20 -43t-20 -59h-32l20 211q20 -4 40 -6t41 -2h405v-33z" />
    <glyph glyph-name="bracketleft" unicode="[" horiz-adv-x="223" 
d="M187 720h-72v-787h72v-22h-132v826h132v-17z" />
    <glyph glyph-name="backslash" unicode="\" horiz-adv-x="465" 
d="M449 -57h-57l-357 782h65z" />
    <glyph glyph-name="bracketright" unicode="]" horiz-adv-x="232" 
d="M168 -89h-133v22h71v787h-71v17h133v-826z" />
    <glyph glyph-name="asciicircum" unicode="^" horiz-adv-x="450" 
d="M414 340h-61l-127 280l-129 -280h-62l172 365h36z" />
    <glyph glyph-name="underscore" unicode="_" horiz-adv-x="473" 
d="M476 -117h-478v56h478v-56z" />
    <glyph glyph-name="grave" unicode="`" horiz-adv-x="285" 
d="M231 471q-25 13 -57.5 25t-61.5 24t-49 25.5t-20 29.5q0 11 6.5 23t27.5 12q16 -4 35.5 -18t40.5 -32t43.5 -37.5t45.5 -33.5z" />
    <glyph glyph-name="a" unicode="a" horiz-adv-x="471" 
d="M388 81q0 -40 36 -40q16 0 33 12l12 -8q-17 -57 -85 -57q-61 0 -77 69q-78 -69 -162 -69q-110 0 -110 105q0 126 264 174v41q0 105 -81 105q-18 0 -32.5 -1t-25.5 -6t-17 -17t-6 -33q8 -14 8 -32q0 -40 -53 -40q-40 0 -40 48q0 25 14.5 47t39 38.5t56 26.5t64.5 10
q88 0 125 -33t37 -109v-231zM303 231q-33 -4 -64.5 -12t-57 -22t-41 -36.5t-15.5 -55.5q0 -69 68 -69q31 0 51 9.5t32.5 25.5t18.5 35.5t8 39.5v85z" />
    <glyph glyph-name="b" unicode="b" horiz-adv-x="537" 
d="M165 369q52 85 138 85q42 0 78.5 -17t63 -46.5t41.5 -69.5t15 -86q0 -52 -15.5 -97t-43 -78.5t-66.5 -52.5t-85 -19q-99 0 -154 57q-8 -25 -49 -57l-24 8q12 64 12 158v433q0 85 -69 85v29l158 32v-364zM161 198q0 -23 3.5 -54t17 -58.5t39 -46.5t70.5 -19q31 0 54 15.5
t38 40.5t22 57t7 65t-6 69t-21.5 65.5t-42 49t-68.5 19.5q-38 0 -60 -16.5t-34 -42t-15.5 -55t-3.5 -56.5v-33z" />
    <glyph glyph-name="c" unicode="c" horiz-adv-x="429" 
d="M416 89q-11 -29 -31 -49.5t-45 -34t-52.5 -19.5t-53.5 -6q-47 0 -84 17.5t-62.5 48.5t-39 72.5t-13.5 88.5q0 50 14.5 95t43.5 78.5t73.5 53.5t103.5 20q25 0 50 -7.5t44.5 -21t31.5 -32.5t12 -41q0 -21 -17.5 -36.5t-39.5 -15.5q-44 0 -44 48q0 3 2 13.5t2 19.5
q0 21 -20 30.5t-41 9.5q-30 0 -52.5 -16.5t-36.5 -42.5t-21 -57.5t-7 -61.5q0 -42 8.5 -79t25.5 -64.5t44 -43t63 -15.5q72 0 114 64z" />
    <glyph glyph-name="d" unicode="d" horiz-adv-x="543" 
d="M457 733q4 -42 4 -93.5v-108.5v-401q0 -90 73 -94l-4 -28q-17 -4 -55 -8t-95 -12l-12 69q-45 -69 -138 -69q-39 0 -74.5 12t-62.5 38t-42.5 66.5t-15.5 98.5q0 54 16.5 99.5t46.5 79.5t71 53t89 19q33 0 63 -16.5t47 -32.5v231q0 36 -81 36v33zM250 413
q-32 0 -54.5 -15.5t-37.5 -40.5t-22 -56t-7 -62q0 -37 7 -72.5t22.5 -63.5t41 -45t62.5 -17q35 0 56.5 12t33.5 35.5t16 58t4 80.5q0 186 -122 186z" />
    <glyph glyph-name="e" unicode="e" horiz-adv-x="462" 
d="M144 239q-20 0 -20 -16q0 -39 10.5 -71.5t30 -56t47 -37t61.5 -13.5q45 0 77.5 22t56.5 55l24 -17q-56 -117 -186 -117q-53 0 -93 16.5t-67 46.5t-41 71t-14 89q0 47 14.5 91t41.5 77.5t65.5 54t85.5 20.5q28 0 59.5 -6.5t59 -27t48 -58t27.5 -99.5q0 -17 -4 -24h-283z
M286 271q44 0 44 45q-4 42 -28 71.5t-69 29.5q-25 0 -45 -11.5t-34.5 -30t-22 -42.5t-7.5 -49q0 -13 24 -13h138z" />
    <glyph glyph-name="f" unicode="f" horiz-adv-x="319" 
d="M305 393h-93q-17 0 -17 -12v-296q0 -53 94 -53v-32h-252v32q69 0 69 53v292q0 12 -12 12h-86v44h82q16 0 16 29q0 59 9.5 109t32 86t59 56t90.5 20q85 0 85 -70q0 -20 -14 -33.5t-33 -13.5q-38 0 -38 31q0 17 8 25q-11 17 -33 17q-24 0 -39 -20t-23.5 -47.5t-11.5 -57.5
t-3 -50v-52q0 -29 17 -29l97 4z" />
    <glyph glyph-name="g" unicode="g" horiz-adv-x="480" 
d="M306 57q31 0 58 -7t47.5 -21.5t32 -37.5t11.5 -55q0 -30 -13.5 -54t-37 -41t-56.5 -26t-72 -9h-107q-65 0 -106.5 23t-41.5 70q0 60 93 89q-68 17 -68 81q0 17 6.5 33t18 28.5t27 20t33.5 7.5q-81 43 -81 138q0 32 11.5 60.5t34.5 50.5t57 34.5t79 12.5q71 0 125 -45
q18 27 40.5 38t48.5 11q44 0 44 -38q0 -41 -34 -41q-22 0 -35 16q-23 -3 -39 -22q14 -17 21 -38t7 -39q0 -84 -47 -123t-155 -39q-15 0 -49 8q-53 -5 -53 -43q0 -23 18.5 -32.5t60.5 -9.5h121zM228 421q-93 0 -93 -113q0 -134 89 -134q97 0 97 101q0 146 -93 146zM171 -20
q-35 -7 -54 -20.5t-19 -41.5q0 -39 33.5 -59.5t91.5 -20.5h31q132 0 132 85q0 57 -126 57h-89z" />
    <glyph glyph-name="h" unicode="h" horiz-adv-x="606" 
d="M193 365q67 85 154 85q39 0 67 -11t46.5 -29.5t27.5 -44t9 -53.5v-235q0 -45 73 -45v-32h-227v32q69 0 69 45v162q0 150 -97 150q-108 0 -122 -110v-194q0 -53 77 -53v-32h-235v32q69 0 69 53v502q0 85 -65 85v29l154 32v-368z" />
    <glyph glyph-name="i" unicode="i" horiz-adv-x="314" 
d="M197 93q0 -61 81 -61v-32h-243v32q73 0 73 65v211q0 85 -64 85v28l153 33v-361zM149 697q57 0 57 -61q0 -65 -61 -65q-57 0 -57 65q0 61 61 61z" />
    <glyph glyph-name="j" unicode="j" horiz-adv-x="254" 
d="M188 8q0 -35 -12.5 -69.5t-34.5 -62.5t-52.5 -45t-66.5 -17q-69 0 -69 60q0 45 45 45q15 0 19.5 -9t6.5 -19.5t5 -19.5t14 -9q56 0 56 118v372q0 41 -81 41v28l170 37v-450zM144 697q56 0 56 -61q0 -65 -60 -65q-57 0 -57 65q0 61 61 61z" />
    <glyph glyph-name="k" unicode="k" horiz-adv-x="547" 
d="M521 405q-22 0 -101 -32q-32 -33 -58.5 -55t-46.5 -34l146 -199q20 -27 39.5 -40t37.5 -13h24v-32h-223v32q37 0 37 17l-118 170q-12 -8 -26 -16.5t-35 -16.5v-105q0 -49 77 -49v-32h-235v32q69 0 69 53v535q0 52 -73 52v33l162 28v-498q20 12 46.5 32.5t50.5 42.5
t40.5 42.5t16.5 32.5q0 20 -60 20v28h230v-28z" />
    <glyph glyph-name="l" unicode="l" horiz-adv-x="322" 
d="M206 77q0 -45 81 -45v-32h-243v32q72 0 72 49v539q0 52 -81 52v29l171 32v-656z" />
    <glyph glyph-name="m" unicode="m" horiz-adv-x="865" 
d="M760 85q0 -53 69 -53v-32h-222v32q68 0 68 53v194q0 118 -89 118q-76 0 -105 -89v-207q0 -69 69 -69v-32h-223v32q65 0 65 73v146q0 146 -89 146q-106 0 -106 -130v-178q0 -57 69 -57v-32h-218v32q60 0 60 53v271q0 33 -73 33v28l154 37q4 -4 4 -21v-64q8 16 22 31.5
t33 27.5t42 19t49 7q19 0 40.5 -7t40 -19.5t32 -28.5t17.5 -34q10 20 26.5 36.5t36.5 28t42.5 18t44.5 6.5q66 0 103.5 -40.5t37.5 -113.5v-215z" />
    <glyph glyph-name="n" unicode="n" horiz-adv-x="601" 
d="M497 73q0 -41 69 -41v-32h-227v32q69 0 69 45v174q0 146 -105 146q-106 0 -106 -130v-190q0 -45 77 -45v-32h-226v32q60 0 60 49v271q0 37 -58 37h-15v28l154 37q4 -4 4 -21v-64q8 16 21.5 31.5t33 27.5t46 19t61.5 7q19 0 43.5 -8t46.5 -25.5t37 -45.5t15 -67v-235z" />
    <glyph glyph-name="o" unicode="o" horiz-adv-x="506" 
d="M257 454q48 0 88.5 -18.5t69.5 -50t45 -73.5t16 -89q0 -56 -18.5 -101t-49 -76.5t-71 -48.5t-84.5 -17q-50 0 -91.5 18.5t-70.5 50t-45 73.5t-16 89q0 56 18 101t48.5 76.5t72 48.5t88.5 17zM253 417q-42 0 -67 -18.5t-38 -44.5t-16.5 -53.5t-3.5 -45.5q0 -35 4 -76.5
t17.5 -77.5t39 -60.5t68.5 -24.5q41 0 65.5 18.5t37 44t16 53.5t3.5 46q0 34 -4 76t-17.5 78t-38.5 60.5t-66 24.5z" />
    <glyph glyph-name="p" unicode="p" horiz-adv-x="540" 
d="M172 369q20 44 58.5 64.5t79.5 20.5q52 0 89 -23.5t60.5 -58t34 -73t10.5 -68.5q0 -45 -13.5 -87.5t-39 -75.5t-61 -54.5t-80.5 -25.5q-53 0 -83 12t-51 32l-4 -4q4 -7 4 -40v-118q0 -36 85 -36v-28h-235v28q57 0 57 32v470q0 49 -65 49v20l150 49q4 -7 4 -33v-52z
M172 182q4 -32 10.5 -59t19.5 -47.5t35 -32t57 -11.5q33 0 56.5 15t37.5 39.5t20.5 56t6.5 64.5t-8.5 66.5t-25.5 61t-43 45t-61 17.5q-39 0 -60.5 -20t-31 -47t-11.5 -53t-2 -38v-57z" />
    <glyph glyph-name="q" unicode="q" horiz-adv-x="536" 
d="M465 446q-3 -34 -5.5 -60.5t-2.5 -45.5v-445q0 -61 64 -61v-28h-234v28q81 0 81 61v154q-25 -34 -61.5 -49.5t-76.5 -15.5q-58 0 -95.5 23t-59.5 56t-31 69t-9 62q0 47 13 92.5t39.5 81t67 57t95.5 21.5q58 0 92 -15t58 -42l40 57h25zM368 239q0 29 -5.5 60.5t-19 57.5
t-36.5 43t-57 17q-58 0 -91.5 -44.5t-33.5 -141.5q0 -41 8.5 -75.5t25.5 -60t42.5 -40t60.5 -14.5q106 0 106 133v65z" />
    <glyph glyph-name="r" unicode="r" horiz-adv-x="409" 
d="M295 385q-32 0 -50.5 -20.5t-29 -49t-14 -59.5t-4.5 -53v-114q0 -57 81 -57v-32h-239v32q69 0 69 61v223q0 77 -73 77v28q82 16 162 33v-102l5 -4q3 13 14 31.5t27.5 35t37 28t42.5 11.5q81 0 81 -73q0 -61 -49 -61q-44 0 -44 40q0 18 4 25h-20z" />
    <glyph glyph-name="s" unicode="s" horiz-adv-x="385" 
d="M304 312q-49 109 -130 109q-32 0 -56.5 -16t-24.5 -53q0 -21 19.5 -36t48.5 -27.5t63.5 -25.5t63.5 -30.5t48.5 -42t19.5 -60.5q0 -32 -12 -57.5t-32 -43.5t-47.5 -29.5t-57.5 -15.5q-54 0 -94 28q-24 -20 -64 -24q-9 42 -13 81.5t-4 84.5h29q12 -39 26 -64.5t31 -41
t38 -22t47 -6.5q89 0 89 69q0 21 -7.5 35t-21.5 24.5t-35.5 19t-49.5 18.5q-22 7 -47.5 18.5t-47.5 27.5t-36.5 37.5t-14.5 50.5q0 28 8.5 52.5t26.5 42.5t45.5 28.5t65.5 10.5q46 0 89 -25q8 6 18.5 11.5t22.5 9.5q20 -80 20 -138h-24z" />
    <glyph glyph-name="t" unicode="t" horiz-adv-x="316" 
d="M158 433h85q15 0 27 2.5t22 5.5v-48h-134v-280q0 -12 1 -25t6 -23.5t15.5 -17t30.5 -6.5q30 0 54.5 21.5t30.5 54.5l24 -8q-6 -28 -16 -51t-26 -39.5t-39.5 -25.5t-56.5 -9q-52 0 -82.5 25t-30.5 80v304h-69l4 32q24 4 44 18.5t35 36.5t26 49.5t17 57.5l32 4v-158z" />
    <glyph glyph-name="u" unicode="u" horiz-adv-x="570" 
d="M473 85q0 -36 73 -40l8 -29l-162 -20q-4 7 -4 28v41q-11 -18 -23.5 -32.5t-30 -24.5t-40.5 -15t-56 -5q-41 0 -69.5 7.5t-46.5 26.5t-26 50t-8 78v215q0 36 -69 36l-4 28l162 12v-271q0 -26 1.5 -49t9.5 -41t26.5 -28.5t51.5 -10.5q87 0 118 109v215q0 36 -77 36l-4 28
l170 12v-356z" />
    <glyph glyph-name="v" unicode="v" horiz-adv-x="477" 
d="M485 401q-28 0 -43 -16.5t-26 -48.5l-150 -348l-36 -8l-178 393q-10 15 -23 21.5t-34 6.5v32h227v-32q-65 0 -65 -28q0 -10 0.5 -14t3.5 -7l109 -255l94 235q3 12 5.5 21t2.5 16q0 32 -61 32v32h174v-32z" />
    <glyph glyph-name="w" unicode="w" horiz-adv-x="704" 
d="M715 401q-40 0 -57 -41l-154 -376l-28 -4l-113 271l-118 -267l-28 -4l-158 380q-17 41 -65 41v32h211v-32q-49 0 -49 -32q0 -3 8 -33l93 -231l89 195l-24 73q-16 28 -65 28v32h215v-32q-57 0 -57 -24q0 -2 8 -45l89 -227q45 118 67 180.5t27 70.5v13q0 32 -65 32v32h174
v-32z" />
    <glyph glyph-name="x" unicode="x" horiz-adv-x="503" 
d="M481 401q-53 0 -81 -36l-109 -126l133 -174q25 -33 73 -33v-32h-231v32q53 0 53 21q0 12 -16 28l-69 97l-81 -89q-9 -10 -12.5 -16t-3.5 -14q0 -13 13 -20t43 -7v-32h-182v32q45 0 81 41l118 134l-130 170q-10 12 -30.5 18t-34.5 6v32h223v-32q-49 0 -49 -20q0 -1 8 -25
l69 -89l69 77q16 17 16 37t-56 20v32h186v-32z" />
    <glyph glyph-name="y" unicode="y" horiz-adv-x="463" 
d="M480 401q-45 0 -61 -36l-129 -324q-5 -11 -14 -31.5t-22 -46t-29.5 -52t-36.5 -48t-43.5 -35.5t-49.5 -14q-57 0 -57 52q0 53 41 53q19 0 25 -9t9 -19.5t6.5 -19.5t16.5 -9q8 0 20.5 13.5t26 34.5t25 46t17.5 48l-166 356q-17 41 -61 41v32h219v-32h-21q-40 0 -40 -24
q2 -7 3 -15t5 -22l109 -235l85 219q9 40 9 45q0 32 -69 32v32h182v-32z" />
    <glyph glyph-name="z" unicode="z" horiz-adv-x="421" 
d="M386 413l-255 -356q8 -8 24 -8h81q30 0 51 6t36 18.5t25 31.5t18 45l32 -4q-4 -37 -11 -73t-17 -73h-341v28l251 353q-4 4 -28 4h-44q-21 0 -37 -2t-28 -6q-13 -4 -21 -7.5t-15.5 -12t-16.5 -24.5t-24 -45l-24 4q2 36 10 73.5t22 75.5q43 -8 105 -8h207v-20z" />
    <glyph glyph-name="braceleft" unicode="{" horiz-adv-x="259" 
d="M224 720q-43 -11 -71 -46v-315l-37 -36l37 -36v-289q16 -48 71 -65v-22q-38 3 -70.5 16t-62.5 36v304l-56 56l56 55v286q21 30 56 48t77 25v-17z" />
    <glyph glyph-name="bar" unicode="|" horiz-adv-x="314" 
d="M175 -113q0 -13 -24 -13q-28 0 -28 13v879q0 12 24 12q28 0 28 -12v-879z" />
    <glyph glyph-name="braceright" unicode="}" horiz-adv-x="259" 
d="M168 381l56 -56l-56 -55v-286q-21 -30 -56 -48t-77 -25v17q43 11 71 46v315l37 36l-37 36v289q-16 48 -71 65v22q38 -3 71 -16t62 -35v-305z" />
    <glyph glyph-name="asciitilde" unicode="~" horiz-adv-x="590" 
d="M519 389q-14 -49 -51.5 -79.5t-91.5 -30.5q-29 0 -53 11.5t-46.5 25t-45 25t-48.5 11.5q-29 0 -54.5 -19t-43.5 -48l-29 15q7 25 22 45t34.5 34.5t41.5 22.5t43 8q43 0 67.5 -11t42.5 -24.5t36 -24.5t48 -11q28 0 53 15t45 53z" />
    <glyph glyph-name="exclamdown" unicode="&#xa1;" horiz-adv-x="279" 
d="M155 437q8 -89 14.5 -152t11.5 -106.5t8 -71t5.5 -46.5t3.5 -32.5t1 -28.5q0 -77 -64 -77q-65 0 -65 77q0 15 1 28.5t3 32t6 46.5t10 71.5t14 106.5t19 152h32zM212 591q0 -68 -73 -68q-69 0 -69 68q0 69 69 69q73 0 73 -69z" />
    <glyph glyph-name="cent" unicode="&#xa2;" horiz-adv-x="452" 
d="M258 563q32 0 59.5 -7.5t47.5 -21t31.5 -32t11.5 -40.5q0 -21 -18 -37t-39 -16q-44 0 -44 49q0 4 2 14t2 18q0 36 -53 41v-381q89 0 130 65l28 -17q-10 -26 -28 -45.5t-40 -33t-45.5 -21t-44.5 -9.5v-202q0 -13 -16 -13q-20 0 -20 13v202q-45 2 -80 20.5t-59 49t-36 71
t-12 86.5q0 44 11.5 84.5t35 73t58.5 55t82 30.5v207q0 12 16 12q20 0 20 -12v-203zM222 527q-23 -9 -39.5 -28t-27.5 -43.5t-16.5 -51.5t-5.5 -52q0 -69 22 -121.5t67 -72.5v369z" />
    <glyph glyph-name="sterling" unicode="&#xa3;" horiz-adv-x="635" 
d="M450 271h-173q-14 -26 -28 -46t-29.5 -37t-33.5 -32.5t-39 -31.5q48 21 85 21q32 0 64 -19.5t61 -54.5q22 -27 47 -40t60 -13q55 0 114 54l22 -16q-57 -72 -200 -72q-90 0 -138 67q-39 55 -97 55q-20 0 -36.5 -10.5t-30 -26t-25 -34.5t-21.5 -36l-30 29q20 30 42 53.5
t53 36.5q24 32 45 68.5t42 84.5h-77v41h93q16 43 28 89.5t24.5 91.5t28 85.5t39.5 71.5t58.5 49t84.5 18q61 0 89.5 -18.5t28.5 -51.5q0 -48 -39 -48q-45 0 -45 43q0 15 11 26q-23 14 -55 14q-33 0 -53.5 -16t-34 -44t-22 -64.5t-17.5 -77.5t-20 -84.5t-29 -83.5h153v-41z
" />
    <glyph glyph-name="yen" unicode="&#xa5;" horiz-adv-x="660" 
d="M625 672q-49 0 -73 -40l-143 -288h154v-65h-180v-66h180v-65h-180v-71q0 -45 90 -45v-32h-278v32q94 0 94 49v67h-188v65h188v66h-188v65h158l-123 239q-47 89 -101 89v33h251v-33q-66 0 -66 -36q0 -12 13 -37l128 -251l118 247q7 15 7 45q0 32 -73 32v33h212v-33z" />
    <glyph glyph-name="brokenbar" unicode="&#xa6;" horiz-adv-x="314" 
d="M175 420q0 -12 -24 -12q-28 0 -28 12v346q0 12 24 12q28 0 28 -12v-346zM175 -113q0 -13 -24 -13q-28 0 -28 13v357q0 12 24 12q28 0 28 -12v-357z" />
    <glyph glyph-name="section" unicode="&#xa7;" horiz-adv-x="402" 
d="M313 551q-49 109 -130 109q-32 0 -56.5 -16t-24.5 -53q0 -21 19.5 -36t49 -28t64 -27t64 -33t49 -45.5t19.5 -65.5q0 -48 -29.5 -79.5t-77.5 -45.5q42 -8 70.5 -32t28.5 -69q0 -32 -11.5 -57t-31.5 -43.5t-47.5 -30t-58.5 -15.5q-54 0 -94 28q-24 -20 -64 -24
q-8 40 -12.5 80.5t-4.5 85.5h29q12 -38 26 -64t31 -41.5t38 -22t47 -6.5q89 0 89 69q0 21 -7 35.5t-21.5 25t-36 19t-49.5 17.5q-22 7 -47.5 18t-47.5 27.5t-36.5 38t-14.5 50.5q0 46 22 80t71 48q-39 17 -62.5 47t-23.5 64q0 57 34.5 95.5t110.5 38.5q46 0 89 -25
q19 13 41 21q20 -82 20 -138h-24zM301 328q0 17 -8.5 34t-24.5 30t-39 21t-52 8q-32 0 -56.5 -16t-24.5 -53q0 -23 10 -40t26.5 -29t37.5 -18t42 -6q89 0 89 69z" />
    <glyph glyph-name="dieresis" unicode="&#xa8;" horiz-adv-x="370" 
d="M288 604q46 0 46 -47t-46 -47q-50 0 -50 47t50 47zM132 557q0 -47 -47 -47q-50 0 -50 47t50 47q47 0 47 -47z" />
    <glyph glyph-name="copyright" unicode="&#xa9;" horiz-adv-x="806" 
d="M402 714q78 0 143.5 -27t113.5 -75t74.5 -115.5t26.5 -148.5q0 -77 -25.5 -143t-72 -115.5t-112.5 -77.5t-148 -28q-83 0 -149 28.5t-112.5 77.5t-71.5 115.5t-25 142.5q0 78 28 145t76.5 116t113.5 77t140 28zM405 677q-64 0 -120 -24t-97.5 -67.5t-65.5 -104
t-24 -133.5q0 -90 30 -152.5t75.5 -102t99.5 -57t102 -17.5q84 0 142 31.5t95 80t53.5 106.5t16.5 111q0 87 -30.5 149.5t-76 102t-99.5 58.5t-101 19zM534 417q-15 57 -48 82.5t-79 25.5q-32 0 -55 -13.5t-37.5 -35t-21.5 -49.5t-7 -57q0 -43 7.5 -78.5t23.5 -60.5t41 -39
t60 -14q23 0 41.5 4t34 15t28 29.5t23.5 47.5l24 -8q-6 -30 -21.5 -53.5t-37.5 -39t-49 -23.5t-56 -8q-42 0 -77 15.5t-60 43t-38.5 64.5t-13.5 79q0 47 15 86t40.5 67t60 43.5t73.5 15.5q44 0 85 -29q11 10 24.5 16.5t24.5 8.5q4 -5 12 -43t8 -92h-25z" />
    <glyph glyph-name="ordfeminine" unicode="&#xaa;" horiz-adv-x="284" 
d="M217 517q0 -20 18 -20q8 0 17 6l6 -4q-9 -29 -43 -29q-32 0 -40 35q-41 -35 -83 -35q-57 0 -57 54q0 64 136 89v21q0 54 -41 54q-19 0 -31 -4.5t-12 -24.5q5 -8 5 -17q0 -20 -27 -20q-21 0 -21 24q0 13 7.5 24.5t20 20t28.5 13.5t34 5q45 0 64 -16.5t19 -56.5v-119z
M173 594q-17 -2 -33.5 -6t-29.5 -11t-21 -18.5t-8 -28.5q0 -36 35 -36q32 0 43.5 18.5t13.5 38.5v43z" />
    <glyph glyph-name="guillemotleft" unicode="&#xab;" horiz-adv-x="550" 
d="M469 420l-114 -155l114 -158l-18 -19l-192 177l192 176zM259 420l-114 -155l114 -158l-18 -19l-192 177l192 176z" />
    <glyph glyph-name="registered" unicode="&#xae;" horiz-adv-x="806" 
d="M402 714q78 0 143.5 -27t113.5 -75t74.5 -115.5t26.5 -148.5q0 -77 -25.5 -143t-72 -115.5t-112.5 -77.5t-148 -28q-83 0 -149 28.5t-112.5 77.5t-71.5 115.5t-25 142.5q0 78 28 145t76.5 116t113.5 77t140 28zM405 677q-64 0 -120 -24t-97.5 -67.5t-65.5 -104
t-24 -133.5q0 -90 30 -152.5t75.5 -102t99.5 -57t102 -17.5q84 0 142 31.5t95 80t53.5 106.5t16.5 111q0 87 -30.5 149.5t-76 102t-99.5 58.5t-101 19zM354 379q1 -9 14 -9h31q19 0 35.5 3t29 11.5t20 22.5t7.5 37q0 34 -28.5 49.5t-76.5 15.5q-32 0 -32 -33v-97zM619 204
q0 -8 -4 -18.5t-12 -19.5t-19 -15t-26 -6q-32 0 -50 14t-29 35.5t-17.5 46.5t-14.5 46.5t-21 35.5t-36 14h-18q-17 0 -18 -6v-113q0 -38 54 -38v-28h-166v28q52 0 52 38v258q0 37 -56 37v29h74q43 0 68 1t52 1q55 0 88 -28t33 -68q0 -41 -28.5 -64t-73.5 -38v-2
q21 -7 35.5 -22t24 -33t16 -37t13.5 -35t15 -26t21 -10t19 27z" />
    <glyph glyph-name="degree" unicode="&#xb0;" horiz-adv-x="344" 
d="M260 577q0 36 -25.5 61t-63.5 25q-39 0 -64.5 -25t-25.5 -61q0 -42 25.5 -65t64.5 -23q38 0 63.5 23t25.5 65zM320 577q0 -29 -12 -55t-32 -45.5t-47 -31t-58 -11.5t-58 11.5t-46.5 31t-31 45.5t-11.5 55q0 28 11.5 53.5t31 44.5t46.5 30.5t58 11.5t58 -11.5t47 -30.5
t32 -44.5t12 -53.5z" />
    <glyph glyph-name="twosuperior" unicode="&#xb2;" horiz-adv-x="344" 
d="M293 256h-206q-10 0 -24.5 -1t-28.5 -2l-5 27q43 43 80 83t64 77.5t42.5 73.5t15.5 72q0 35 -19.5 52.5t-55.5 17.5q-64 0 -67 -37q22 -7 22 -31q0 -38 -34 -38t-34 48q0 107 137 107q124 0 124 -115q0 -35 -11.5 -68t-34.5 -65.5t-57 -65.5t-79 -69h93q15 0 26.5 2
t20 7.5t15 16t12.5 28.5l31 -2z" />
    <glyph glyph-name="threesuperior" unicode="&#xb3;" horiz-adv-x="333" 
d="M124 473q-15 0 -15 17q0 20 15 20q85 0 85 86q0 64 -56 64q-49 0 -52 -16q12 -9 12 -25q0 -35 -33 -35q-32 0 -32 34q0 88 122 88q107 0 107 -101q0 -69 -62 -96q85 -16 85 -118q0 -144 -166 -144q-109 0 -109 71q0 38 39 38q30 0 30 -28q0 -19 -12 -26q7 -12 34 -12
q105 0 105 99q0 84 -65 84h-32z" />
    <glyph glyph-name="acute" unicode="&#xb4;" horiz-adv-x="285" 
d="M43 489q32 21 62 45.5t57 48.5q10 9 21 18t25 9q21 0 27.5 -12t6.5 -23q0 -15 -20 -28.5t-49.5 -26.5t-62 -25t-56.5 -24z" />
    <glyph glyph-name="paragraph" unicode="&#xb6;" horiz-adv-x="556" 
d="M528 672q-63 0 -63 -64v-608h-65v463q-27 -13 -67 -24v-439h-65v417q-19 -8 -42 -12t-44 -4q-38 0 -65.5 14t-45.5 36.5t-26.5 52t-8.5 59.5q0 66 36.5 104t112.5 38h343v-33z" />
    <glyph glyph-name="periodcentered" unicode="&#xb7;" horiz-adv-x="249" 
d="M127 427q68 0 68 -69q0 -68 -68 -68q-73 0 -73 68q0 69 73 69z" />
    <glyph glyph-name="cedilla" unicode="&#xb8;" horiz-adv-x="184" 
d="M107 -44q24 0 41 -6t27 -15.5t14.5 -22t4.5 -24.5q0 -17 -9 -31t-24.5 -23.5t-36 -15t-43.5 -5.5v21q37 3 53 18t16 36q0 16 -7 26t-17 15t-22.5 6.5t-22.5 1.5v66h26v-47z" />
    <glyph glyph-name="onesuperior" unicode="&#xb9;" horiz-adv-x="271" 
d="M179 707q-3 -16 -4 -28t-1 -20v-334q0 -35 76 -35v-34h-224v34q77 0 77 35v283q0 20 -18 20h-61v32q25 4 42.5 8t31.5 9.5t26.5 14t28.5 22.5z" />
    <glyph glyph-name="ordmasculine" unicode="&#xba;" horiz-adv-x="284" 
d="M141 711q25 0 45.5 -9.5t35.5 -26t23 -38t8 -45.5q0 -29 -9.5 -52t-25 -39t-36.5 -24.5t-43 -8.5q-26 0 -47 9.5t-36 25.5t-23.5 37.5t-8.5 45.5q0 29 9.5 52t25 39.5t37 25t45.5 8.5zM139 692q-22 0 -34.5 -9.5t-19 -23t-8.5 -27.5t-2 -23q0 -18 2 -39.5t9 -40t20 -31
t35 -12.5q21 0 33.5 9.5t19 22.5t8.5 27.5t2 23.5q0 18 -2.5 39.5t-9 40t-19.5 31t-34 12.5z" />
    <glyph glyph-name="guillemotright" unicode="&#xbb;" horiz-adv-x="550" 
d="M67 88l-18 21l113 155l-113 158l18 19l191 -177zM276 88l-18 21l115 155l-115 158l18 19l193 -177z" />
    <glyph glyph-name="onequarter" unicode="&#xbc;" horiz-adv-x="805" 
d="M210 707q-3 -16 -4 -28t-1 -20v-334q0 -35 75 -35v-34h-223v34q77 0 77 35v283q0 20 -19 20h-60v32q25 4 42.5 7.5t31 9t26 14.5t28.5 23zM228 0h-53l401 705h57zM680 450q-4 -18 -6.5 -32.5t-2.5 -26.5v-207q0 -5 3 -5h25q13 0 39 8v-64h-64q-3 0 -3 -6v-63
q0 -21 30 -21v-33h-130v33q33 0 33 21v63q0 6 -6 6h-162v35l210 294zM496 179h102q6 0 6 5v144z" />
    <glyph glyph-name="onehalf" unicode="&#xbd;" horiz-adv-x="805" 
d="M210 707q-3 -16 -4 -28t-1 -20v-334q0 -35 75 -35v-34h-223v34q77 0 77 35v283q0 20 -19 20h-60v32q25 4 42.5 7.5t31 9t26 14.5t28.5 23zM228 0h-53l401 705h57zM737 0h-205q-11 0 -25 -1l-28 -2l-5 27q43 43 80 83t64 77.5t42 73.5t15 72q0 35 -19.5 52.5t-55.5 17.5
q-63 0 -66 -37q22 -9 22 -31q0 -38 -35 -38q-34 0 -34 48q0 107 138 107q123 0 123 -115q0 -71 -46 -134t-136 -134h93q16 0 27.5 2t19.5 7.5t14.5 16t12.5 27.5l32 -2z" />
    <glyph glyph-name="threequarters" unicode="&#xbe;" horiz-adv-x="805" 
d="M228 0h-53l401 705h57zM680 450q-4 -18 -6.5 -32.5t-2.5 -26.5v-207q0 -5 3 -5h25q13 0 39 8v-64h-64q-3 0 -3 -6v-63q0 -21 30 -21v-33h-130v33q33 0 33 21v63q0 6 -6 6h-162v35l210 294zM496 179h102q6 0 6 5v144zM124 473q-15 0 -15 17q0 20 15 20q85 0 85 86
q0 64 -56 64q-49 0 -52 -16q12 -9 12 -25q0 -35 -33 -35q-32 0 -32 34q0 88 122 88q107 0 107 -101q0 -69 -62 -96q85 -16 85 -118q0 -144 -166 -144q-109 0 -109 71q0 38 39 38q30 0 30 -28q0 -19 -12 -26q7 -12 34 -12q105 0 105 99q0 84 -65 84h-32z" />
    <glyph glyph-name="questiondown" unicode="&#xbf;" horiz-adv-x="395" 
d="M238 429q12 -24 12 -73q0 -32 -9.5 -57t-23 -46t-30 -40t-30 -40t-23 -45t-9.5 -55q0 -45 22 -71t79 -26q16 0 34 6t23 22v8q0 4 -2.5 6t-2.5 6q0 53 45 53q36 0 36 -53q0 -26 -10.5 -45t-29.5 -31.5t-44 -18.5t-53 -6q-41 0 -75.5 10t-59 29t-38.5 47t-14 64q0 43 13 74
t32.5 55t42 43.5t42 39.5t32.5 44t13 56v44h28zM299 583q0 -69 -73 -69q-69 0 -69 69t69 69q73 0 73 -69z" />
    <glyph glyph-name="Agrave" unicode="&#xc0;" horiz-adv-x="681" 
d="M617 77q18 -24 24 -28q4 -4 61 -17v-32h-292v32q17 2 33.5 4.5t30 6t21.5 8.5t8 12q0 5 -2 12t-6 18l-48 130q-10 28 -65 28h-158q-42 0 -49 -28l-36 -110q-4 -7 -4 -28q0 -49 93 -49v-36h-239v36q58 4 89 77l255 608l32 -12zM224 348q-12 -24 -12 -36q0 -16 40 -16h134
q32 0 32 12q0 4 -3.5 13t-8.5 23l-89 227zM429 742q-25 13 -57.5 25t-61.5 24t-49 25.5t-20 29.5q0 11 6.5 23t27.5 12q16 -4 35.5 -18t40.5 -32t43.5 -37.5t45.5 -33.5z" />
    <glyph glyph-name="Aacute" unicode="&#xc1;" horiz-adv-x="681" 
d="M617 77q18 -24 24 -28q4 -4 61 -17v-32h-292v32q17 2 33.5 4.5t30 6t21.5 8.5t8 12q0 5 -2 12t-6 18l-48 130q-10 28 -65 28h-158q-42 0 -49 -28l-36 -110q-4 -7 -4 -28q0 -49 93 -49v-36h-239v36q58 4 89 77l255 608l32 -12zM224 348q-12 -24 -12 -36q0 -16 40 -16h134
q32 0 32 12q0 4 -3.5 13t-8.5 23l-89 227zM241 760q32 21 62 45.5t57 48.5q10 9 21 18t25 9q21 0 27.5 -12t6.5 -23q0 -15 -20 -28.5t-49.5 -26.5t-62 -25t-56.5 -24z" />
    <glyph glyph-name="Acircumflex" unicode="&#xc2;" horiz-adv-x="681" 
d="M617 77q18 -24 24 -28q4 -4 61 -17v-32h-292v32q17 2 33.5 4.5t30 6t21.5 8.5t8 12q0 5 -2 12t-6 18l-48 130q-10 28 -65 28h-158q-42 0 -49 -28l-36 -110q-4 -7 -4 -28q0 -49 93 -49v-36h-239v36q58 4 89 77l255 608l32 -12zM224 348q-12 -24 -12 -36q0 -16 40 -16h134
q32 0 32 12q0 4 -3.5 13t-8.5 23l-89 227zM444 753l-103 58l-106 -58l-13 12l119 116l117 -116z" />
    <glyph glyph-name="Atilde" unicode="&#xc3;" horiz-adv-x="681" 
d="M617 77q18 -24 24 -28q4 -4 61 -17v-32h-292v32q17 2 33.5 4.5t30 6t21.5 8.5t8 12q0 5 -2 12t-6 18l-48 130q-10 28 -65 28h-158q-42 0 -49 -28l-36 -110q-4 -7 -4 -28q0 -49 93 -49v-36h-239v36q58 4 89 77l255 608l32 -12zM224 348q-12 -24 -12 -36q0 -16 40 -16h134
q32 0 32 12q0 4 -3.5 13t-8.5 23l-89 227zM494 864q-9 -37 -35 -60.5t-61 -23.5q-20 0 -35.5 8.5t-30.5 19t-30 19.5t-32 9q-20 0 -36.5 -14.5t-28.5 -37.5l-20 12q10 38 38 61.5t56 23.5t44.5 -8.5t28.5 -19t24 -19t32 -8.5q19 0 35.5 11.5t30.5 41.5z" />
    <glyph glyph-name="Adieresis" unicode="&#xc4;" horiz-adv-x="681" 
d="M617 77q18 -24 24 -28q4 -4 61 -17v-32h-292v32q17 2 33.5 4.5t30 6t21.5 8.5t8 12q0 5 -2 12t-6 18l-48 130q-10 28 -65 28h-158q-42 0 -49 -28l-36 -110q-4 -7 -4 -28q0 -49 93 -49v-36h-239v36q58 4 89 77l255 608l32 -12zM224 348q-12 -24 -12 -36q0 -16 40 -16h134
q32 0 32 12q0 4 -3.5 13t-8.5 23l-89 227zM444 875q46 0 46 -47t-46 -47q-50 0 -50 47t50 47zM288 828q0 -47 -47 -47q-50 0 -50 47t50 47q47 0 47 -47z" />
    <glyph glyph-name="Aring" unicode="&#xc5;" horiz-adv-x="681" 
d="M617 77q5 -7 8.5 -13t11.5 -11.5t23 -10.5t42 -10v-32h-292v32q17 1 33.5 3.5t30 6.5t21.5 9.5t8 11.5q0 5 -2 12t-6 18l-48 130q-10 28 -65 28h-158q-42 0 -49 -28l-36 -110q-4 -7 -4 -28q0 -49 93 -49v-36h-239v36q59 5 89 77l232 556q-36 12 -58 40.5t-22 64.5
q0 21 9 40.5t25 34.5t37.5 23.5t46.5 8.5t47 -8.5t38.5 -23.5t26 -34.5t9.5 -40.5q0 -38 -25.5 -67.5t-63.5 -38.5zM224 348q-5 -12 -9 -19t-3 -13q0 -11 7.5 -15.5t32.5 -4.5h134q32 0 32 12q0 4 -3.5 13t-8.5 23l-89 227zM420 774q0 27 -20.5 46t-51.5 19t-52 -19t-21 -46
q0 -32 21 -50t52 -18t51.5 18t20.5 50z" />
    <glyph glyph-name="AE" unicode="&#xc6;" horiz-adv-x="963" 
d="M895 506l-32 -4q-11 58 -30.5 90t-46.5 47t-61.5 18t-76.5 3h-28q-81 0 -81 -48v-191q0 -32 24 -32h36q27 0 50 3t40 14t28.5 34t15.5 62h41v-275h-41q-4 39 -12.5 62.5t-24 35.5t-39.5 15.5t-58 3.5h-12q-48 0 -48 -36v-203q0 -60 85 -60h32q68 0 109 10.5t66.5 32
t40.5 54t31 77.5l29 -8l-29 -211h-567v32q97 0 97 69v128q-1 22 -24 22h-185q-42 0 -49 -28l-36 -110q-4 -7 -4 -28q0 -49 93 -49v-36h-239v36q60 5 89 77l217 512q0 5 2 7q0 24 -83 24v49h673zM380 656q-28 0 -41 -33l-115 -275q-12 -24 -12 -36q0 -16 40 -16h156
q22 0 25 19v317q0 24 -28 24h-25z" />
    <glyph glyph-name="Ccedilla" unicode="&#xc7;" horiz-adv-x="696" 
d="M614 470q-25 103 -85.5 154.5t-141.5 51.5q-58 0 -99.5 -25t-68 -66t-39 -93.5t-12.5 -106.5q0 -75 13.5 -140t42 -112t74 -74t109.5 -27q40 0 72.5 8.5t60 29.5t50.5 56t44 89l32 -12q-10 -55 -36.5 -96t-64 -68.5t-84.5 -41t-98 -13.5h-10.5t-10.5 1v-29q24 0 41 -6
t27 -15.5t14.5 -22t4.5 -24.5q0 -17 -9 -31t-24.5 -23.5t-36 -15t-43.5 -5.5v21q37 3 53 18t16 36q0 16 -7 26t-17 15t-22.5 6.5t-22.5 1.5v50q-65 8 -118 38t-90 76.5t-57 107.5t-20 131q0 82 26.5 151.5t71.5 119.5t105.5 78t128.5 28q81 0 154 -49q36 37 77 45
q3 -4 9 -24.5t12 -53.5t10.5 -75.5t4.5 -89.5h-36z" />
    <glyph glyph-name="Egrave" unicode="&#xc8;" horiz-adv-x="686" 
d="M618 506l-33 -4q-10 58 -29 90t-46 47t-62 18t-77 3h-29q-81 0 -81 -48v-191q0 -32 25 -32h36q27 0 50 3t40 14t28.5 34t15.5 62h40v-275h-40q-4 39 -12.5 62t-24 35.5t-39.5 16t-58 3.5h-12q-49 0 -49 -36v-203q0 -60 85 -60h33q68 0 108.5 10.5t66 31.5t40.5 54t32 78
l28 -8l-28 -211h-567v32q97 0 97 69v482q0 89 -105 89v33h559zM431 742q-25 13 -57.5 25t-61.5 24t-49 25.5t-20 29.5q0 11 6.5 23t27.5 12q16 -4 35.5 -18t40.5 -32t43.5 -37.5t45.5 -33.5z" />
    <glyph glyph-name="Eacute" unicode="&#xc9;" horiz-adv-x="686" 
d="M618 506l-33 -4q-10 58 -29 90t-46 47t-62 18t-77 3h-29q-81 0 -81 -48v-191q0 -32 25 -32h36q27 0 50 3t40 14t28.5 34t15.5 62h40v-275h-40q-4 39 -12.5 62t-24 35.5t-39.5 16t-58 3.5h-12q-49 0 -49 -36v-203q0 -60 85 -60h33q68 0 108.5 10.5t66 31.5t40.5 54t32 78
l28 -8l-28 -211h-567v32q97 0 97 69v482q0 89 -105 89v33h559zM243 760q32 21 62 45.5t57 48.5q10 9 21 18t25 9q21 0 27.5 -12t6.5 -23q0 -15 -20 -28.5t-49.5 -26.5t-62 -25t-56.5 -24z" />
    <glyph glyph-name="Ecircumflex" unicode="&#xca;" horiz-adv-x="686" 
d="M618 506l-33 -4q-10 58 -29 90t-46 47t-62 18t-77 3h-29q-81 0 -81 -48v-191q0 -32 25 -32h36q27 0 50 3t40 14t28.5 34t15.5 62h40v-275h-40q-4 39 -12.5 62t-24 35.5t-39.5 16t-58 3.5h-12q-49 0 -49 -36v-203q0 -60 85 -60h33q68 0 108.5 10.5t66 31.5t40.5 54t32 78
l28 -8l-28 -211h-567v32q97 0 97 69v482q0 89 -105 89v33h559zM446 753l-103 58l-106 -58l-13 12l119 116l117 -116z" />
    <glyph glyph-name="Edieresis" unicode="&#xcb;" horiz-adv-x="686" 
d="M618 506l-33 -4q-10 58 -29 90t-46 47t-62 18t-77 3h-29q-81 0 -81 -48v-191q0 -32 25 -32h36q27 0 50 3t40 14t28.5 34t15.5 62h40v-275h-40q-4 39 -12.5 62t-24 35.5t-39.5 16t-58 3.5h-12q-49 0 -49 -36v-203q0 -60 85 -60h33q68 0 108.5 10.5t66 31.5t40.5 54t32 78
l28 -8l-28 -211h-567v32q97 0 97 69v482q0 89 -105 89v33h559zM446 875q46 0 46 -47t-46 -47q-50 0 -50 47t50 47zM290 828q0 -47 -47 -47q-50 0 -50 47t50 47q47 0 47 -47z" />
    <glyph glyph-name="Igrave" unicode="&#xcc;" horiz-adv-x="413" 
d="M358 672q-97 0 -97 -93v-474q0 -73 102 -73v-32h-308v32q101 0 101 73v474q0 93 -105 93v33h307v-33zM295 742q-25 13 -57.5 25t-61.5 24t-49 25.5t-20 29.5q0 11 6.5 23t27.5 12q16 -4 35.5 -18t40.5 -32t43.5 -37.5t45.5 -33.5z" />
    <glyph glyph-name="Iacute" unicode="&#xcd;" horiz-adv-x="413" 
d="M358 672q-97 0 -97 -93v-474q0 -73 102 -73v-32h-308v32q101 0 101 73v474q0 93 -105 93v33h307v-33zM107 760q32 21 62 45.5t57 48.5q10 9 21 18t25 9q21 0 27.5 -12t6.5 -23q0 -15 -20 -28.5t-49.5 -26.5t-62 -25t-56.5 -24z" />
    <glyph glyph-name="Icircumflex" unicode="&#xce;" horiz-adv-x="413" 
d="M358 672q-97 0 -97 -93v-474q0 -73 102 -73v-32h-308v32q101 0 101 73v474q0 93 -105 93v33h307v-33zM311 753l-103 58l-106 -58l-13 12l119 116l117 -116z" />
    <glyph glyph-name="Idieresis" unicode="&#xcf;" horiz-adv-x="413" 
d="M358 672q-97 0 -97 -93v-474q0 -73 102 -73v-32h-308v32q101 0 101 73v474q0 93 -105 93v33h307v-33zM309 875q46 0 46 -47t-46 -47q-50 0 -50 47t50 47zM153 828q0 -47 -47 -47q-50 0 -50 47t50 47q47 0 47 -47z" />
    <glyph glyph-name="Eth" unicode="&#xd0;" horiz-adv-x="806" 
d="M51 705q22 -3 45 -3.5t48 -0.5q32 0 60 1t55.5 2.5t56 3t63.5 1.5q90 0 160 -24.5t118 -70.5t73 -112t25 -150q0 -81 -24.5 -146t-77 -110.5t-134.5 -70.5t-197 -25h-267v32q31 0 51 3t31 13.5t15 30t4 51.5v205h-57v65h57v171q0 37 -5.5 55.5t-18 26.5t-32.5 10.5
t-49 8.5v33zM327 664q-20 0 -32.5 -2t-20 -8.5t-10.5 -19.5t-3 -35v-199h193v-65h-193v-213q0 -29 5 -45t16 -24t29 -10t44 -2h32q125 0 186 75.5t61 235.5t-68.5 236t-196.5 76h-42z" />
    <glyph glyph-name="Ntilde" unicode="&#xd1;" horiz-adv-x="790" 
d="M779 672q-98 0 -98 -117v-559l-28 -8l-470 599v-429q0 -126 110 -126v-32h-256v32q90 0 90 126v470q0 44 -106 44v33h195l417 -531v381q0 117 -109 117v33h255v-33zM549 864q-9 -37 -35 -60.5t-61 -23.5q-20 0 -35.5 8.5t-30.5 19t-30 19.5t-32 9q-20 0 -36.5 -14.5
t-28.5 -37.5l-20 12q10 38 38 61.5t56 23.5t44.5 -8.5t28.5 -19t24 -19t32 -8.5q19 0 35.5 11.5t30.5 41.5z" />
    <glyph glyph-name="Ograve" unicode="&#xd2;" horiz-adv-x="794" 
d="M384 680q-61 0 -103 -26.5t-67.5 -71.5t-37 -103.5t-11.5 -122.5q0 -70 14 -130.5t42.5 -105.5t73 -70.5t105.5 -25.5q59 0 102 25t70.5 68.5t41 103t13.5 127.5q0 64 -13 123.5t-42 106t-75.5 74.5t-112.5 28zM392 717q77 0 142.5 -27.5t113 -75.5t74 -114t26.5 -144
q0 -68 -25.5 -135t-72 -119.5t-112 -85t-146.5 -32.5q-76 0 -140 28.5t-110 78t-72 115.5t-26 142q0 70 24.5 136.5t70 118t109.5 83t144 31.5zM485 742q-25 13 -57.5 25t-61.5 24t-49 25.5t-20 29.5q0 11 6.5 23t27.5 12q16 -4 35.5 -18t40.5 -32t43.5 -37.5t45.5 -33.5z
" />
    <glyph glyph-name="Oacute" unicode="&#xd3;" horiz-adv-x="794" 
d="M384 680q-61 0 -103 -26.5t-67.5 -71.5t-37 -103.5t-11.5 -122.5q0 -70 14 -130.5t42.5 -105.5t73 -70.5t105.5 -25.5q59 0 102 25t70.5 68.5t41 103t13.5 127.5q0 64 -13 123.5t-42 106t-75.5 74.5t-112.5 28zM392 717q77 0 142.5 -27.5t113 -75.5t74 -114t26.5 -144
q0 -68 -25.5 -135t-72 -119.5t-112 -85t-146.5 -32.5q-76 0 -140 28.5t-110 78t-72 115.5t-26 142q0 70 24.5 136.5t70 118t109.5 83t144 31.5zM297 760q32 21 62 45.5t57 48.5q10 9 21 18t25 9q21 0 27.5 -12t6.5 -23q0 -15 -20 -28.5t-49.5 -26.5t-62 -25t-56.5 -24z" />
    <glyph glyph-name="Ocircumflex" unicode="&#xd4;" horiz-adv-x="794" 
d="M384 680q-61 0 -103 -26.5t-67.5 -71.5t-37 -103.5t-11.5 -122.5q0 -70 14 -130.5t42.5 -105.5t73 -70.5t105.5 -25.5q59 0 102 25t70.5 68.5t41 103t13.5 127.5q0 64 -13 123.5t-42 106t-75.5 74.5t-112.5 28zM392 717q77 0 142.5 -27.5t113 -75.5t74 -114t26.5 -144
q0 -68 -25.5 -135t-72 -119.5t-112 -85t-146.5 -32.5q-76 0 -140 28.5t-110 78t-72 115.5t-26 142q0 70 24.5 136.5t70 118t109.5 83t144 31.5zM501 753l-103 58l-106 -58l-13 12l119 116l117 -116z" />
    <glyph glyph-name="Otilde" unicode="&#xd5;" horiz-adv-x="794" 
d="M384 680q-61 0 -103 -26.5t-67.5 -71.5t-37 -103.5t-11.5 -122.5q0 -70 14 -130.5t42.5 -105.5t73 -70.5t105.5 -25.5q59 0 102 25t70.5 68.5t41 103t13.5 127.5q0 64 -13 123.5t-42 106t-75.5 74.5t-112.5 28zM392 717q77 0 142.5 -27.5t113 -75.5t74 -114t26.5 -144
q0 -68 -25.5 -135t-72 -119.5t-112 -85t-146.5 -32.5q-76 0 -140 28.5t-110 78t-72 115.5t-26 142q0 70 24.5 136.5t70 118t109.5 83t144 31.5zM551 864q-9 -37 -35 -60.5t-61 -23.5q-20 0 -35.5 8.5t-30.5 19t-30 19.5t-32 9q-20 0 -36.5 -14.5t-28.5 -37.5l-20 12
q10 38 38 61.5t56 23.5t44.5 -8.5t28.5 -19t24 -19t32 -8.5q19 0 35.5 11.5t30.5 41.5z" />
    <glyph glyph-name="Odieresis" unicode="&#xd6;" horiz-adv-x="794" 
d="M384 680q-61 0 -103 -26.5t-67.5 -71.5t-37 -103.5t-11.5 -122.5q0 -70 14 -130.5t42.5 -105.5t73 -70.5t105.5 -25.5q59 0 102 25t70.5 68.5t41 103t13.5 127.5q0 64 -13 123.5t-42 106t-75.5 74.5t-112.5 28zM392 717q77 0 142.5 -27.5t113 -75.5t74 -114t26.5 -144
q0 -68 -25.5 -135t-72 -119.5t-112 -85t-146.5 -32.5q-76 0 -140 28.5t-110 78t-72 115.5t-26 142q0 70 24.5 136.5t70 118t109.5 83t144 31.5zM500 875q46 0 46 -47t-46 -47q-50 0 -50 47t50 47zM344 828q0 -47 -47 -47q-50 0 -50 47t50 47q47 0 47 -47z" />
    <glyph glyph-name="multiply" unicode="&#xd7;" horiz-adv-x="583" 
d="M336 356l143 -143l-49 -49l-142 144l-141 -141l-52 52l141 140l-144 143l49 49l144 -143l145 146l52 -52z" />
    <glyph glyph-name="Oslash" unicode="&#xd8;" horiz-adv-x="794" 
d="M553 680q44 -21 80 -53.5t61.5 -74.5t39.5 -91.5t14 -104.5q0 -68 -25.5 -135t-72 -119.5t-112 -85t-146.5 -32.5q-54 0 -102 15l-22 -53l-43 17l22 51q-46 21 -83.5 54.5t-64 77t-41 95t-14.5 107.5q0 70 24.5 136.5t70 118t109.5 83t144 31.5q32 0 61.5 -5t57.5 -14
l17 42l43 -13zM494 654q-23 12 -50.5 19t-59.5 7q-61 0 -103 -26.5t-67.5 -71.5t-37 -103.5t-11.5 -122.5q0 -97 24.5 -171t78.5 -117zM307 44q20 -11 43.5 -15.5t49.5 -4.5q59 0 102 25t70.5 68.5t41 103t13.5 127.5q0 85 -22 157.5t-73 120.5z" />
    <glyph glyph-name="Ugrave" unicode="&#xd9;" horiz-adv-x="801" 
d="M793 672q-89 0 -89 -93v-324q0 -61 -10.5 -111t-43 -85.5t-92 -55t-158.5 -19.5q-62 0 -110 17t-80 48t-48.5 73.5t-16.5 92.5v380q0 77 -101 77v33h307v-33q-101 0 -101 -77v-352q0 -36 3.5 -73.5t22.5 -68t59 -50t114 -19.5q68 0 109 20.5t62.5 51.5t28 68.5t6.5 70.5
v336q0 93 -109 93v33h247v-33zM489 742q-25 13 -57.5 25t-61.5 24t-49 25.5t-20 29.5q0 11 6.5 23t27.5 12q16 -4 35.5 -18t40.5 -32t43.5 -37.5t45.5 -33.5z" />
    <glyph glyph-name="Uacute" unicode="&#xda;" horiz-adv-x="801" 
d="M793 672q-89 0 -89 -93v-324q0 -61 -10.5 -111t-43 -85.5t-92 -55t-158.5 -19.5q-62 0 -110 17t-80 48t-48.5 73.5t-16.5 92.5v380q0 77 -101 77v33h307v-33q-101 0 -101 -77v-352q0 -36 3.5 -73.5t22.5 -68t59 -50t114 -19.5q68 0 109 20.5t62.5 51.5t28 68.5t6.5 70.5
v336q0 93 -109 93v33h247v-33zM301 760q32 21 62 45.5t57 48.5q10 9 21 18t25 9q21 0 27.5 -12t6.5 -23q0 -15 -20 -28.5t-49.5 -26.5t-62 -25t-56.5 -24z" />
    <glyph glyph-name="Ucircumflex" unicode="&#xdb;" horiz-adv-x="801" 
d="M793 672q-89 0 -89 -93v-324q0 -61 -10.5 -111t-43 -85.5t-92 -55t-158.5 -19.5q-62 0 -110 17t-80 48t-48.5 73.5t-16.5 92.5v380q0 77 -101 77v33h307v-33q-101 0 -101 -77v-352q0 -36 3.5 -73.5t22.5 -68t59 -50t114 -19.5q68 0 109 20.5t62.5 51.5t28 68.5t6.5 70.5
v336q0 93 -109 93v33h247v-33zM504 753l-103 58l-106 -58l-13 12l119 116l117 -116z" />
    <glyph glyph-name="Udieresis" unicode="&#xdc;" horiz-adv-x="801" 
d="M793 672q-89 0 -89 -93v-324q0 -61 -10.5 -111t-43 -85.5t-92 -55t-158.5 -19.5q-62 0 -110 17t-80 48t-48.5 73.5t-16.5 92.5v380q0 77 -101 77v33h307v-33q-101 0 -101 -77v-352q0 -36 3.5 -73.5t22.5 -68t59 -50t114 -19.5q68 0 109 20.5t62.5 51.5t28 68.5t6.5 70.5
v336q0 93 -109 93v33h247v-33zM504 875q46 0 46 -47t-46 -47q-50 0 -50 47t50 47zM348 828q0 -47 -47 -47q-50 0 -50 47t50 47q47 0 47 -47z" />
    <glyph glyph-name="Yacute" unicode="&#xdd;" horiz-adv-x="646" 
d="M671 672q-55 0 -85 -40l-198 -340v-215q0 -45 105 -45v-32h-324v32q109 0 109 49v207l-178 295q-54 89 -117 89v33h291v-33q-77 0 -77 -36q0 -8 4.5 -15.5t12.5 -21.5l150 -251l137 247q8 27 8 45q0 32 -85 32v33h247v-33zM223 760q32 21 62 45.5t57 48.5q10 9 21 18
t25 9q21 0 27.5 -12t6.5 -23q0 -15 -20 -28.5t-49.5 -26.5t-62 -25t-56.5 -24z" />
    <glyph glyph-name="Thorn" unicode="&#xde;" horiz-adv-x="658" 
d="M354 672q-97 0 -97 -93v-23q35 2 65 2.5t63 0.5q237 0 237 -207q0 -41 -14.5 -76t-44 -61.5t-75 -41.5t-107.5 -15q-35 0 -64 3t-60 9v-57q0 -81 106 -81v-32h-312v32q101 2 101 77v470q0 93 -105 93v33h307v-33zM257 211q27 -6 56 -9.5t68 -3.5q35 0 60 13t40.5 35
t23 50.5t7.5 59.5q0 42 -11 73t-36 52t-65 31.5t-98 10.5q-42 0 -45 -49v-263z" />
    <glyph glyph-name="germandbls" unicode="&#xdf;" horiz-adv-x="569" 
d="M392 413q142 -16 142 -174q0 -251 -183 -251q-117 0 -117 101q0 49 49 49q36 0 36 -33q0 -32 -20 -32q0 -20 6 -30.5t30 -10.5q93 0 93 207q0 134 -121 134v36q93 0 93 154q0 126 -93 126q-114 0 -114 -130v-559h-158v32q69 0 69 53v421q0 227 203 227q178 0 178 -170
q0 -109 -93 -142v-8z" />
    <glyph glyph-name="agrave" unicode="&#xe0;" horiz-adv-x="471" 
d="M388 81q0 -40 36 -40q16 0 33 12l12 -8q-17 -57 -85 -57q-61 0 -77 69q-78 -69 -162 -69q-110 0 -110 105q0 126 264 174v41q0 105 -81 105q-18 0 -32.5 -1t-25.5 -6t-17 -17t-6 -33q8 -14 8 -32q0 -40 -53 -40q-40 0 -40 48q0 25 14.5 47t39 38.5t56 26.5t64.5 10
q88 0 125 -33t37 -109v-231zM303 231q-33 -4 -64.5 -12t-57 -22t-41 -36.5t-15.5 -55.5q0 -69 68 -69q31 0 51 9.5t32.5 25.5t18.5 35.5t8 39.5v85zM324 471q-25 13 -57.5 25t-61.5 24t-49 25.5t-20 29.5q0 11 6.5 23t27.5 12q16 -4 35.5 -18t40.5 -32t43.5 -37.5
t45.5 -33.5z" />
    <glyph glyph-name="aacute" unicode="&#xe1;" horiz-adv-x="471" 
d="M388 81q0 -40 36 -40q16 0 33 12l12 -8q-17 -57 -85 -57q-61 0 -77 69q-78 -69 -162 -69q-110 0 -110 105q0 126 264 174v41q0 105 -81 105q-18 0 -32.5 -1t-25.5 -6t-17 -17t-6 -33q8 -14 8 -32q0 -40 -53 -40q-40 0 -40 48q0 25 14.5 47t39 38.5t56 26.5t64.5 10
q88 0 125 -33t37 -109v-231zM303 231q-33 -4 -64.5 -12t-57 -22t-41 -36.5t-15.5 -55.5q0 -69 68 -69q31 0 51 9.5t32.5 25.5t18.5 35.5t8 39.5v85zM136 489q32 21 62 45.5t57 48.5q10 9 21 18t25 9q21 0 27.5 -12t6.5 -23q0 -15 -20 -28.5t-49.5 -26.5t-62 -25t-56.5 -24z
" />
    <glyph glyph-name="acircumflex" unicode="&#xe2;" horiz-adv-x="471" 
d="M388 81q0 -40 36 -40q16 0 33 12l12 -8q-17 -57 -85 -57q-61 0 -77 69q-78 -69 -162 -69q-110 0 -110 105q0 126 264 174v41q0 105 -81 105q-18 0 -32.5 -1t-25.5 -6t-17 -17t-6 -33q8 -14 8 -32q0 -40 -53 -40q-40 0 -40 48q0 25 14.5 47t39 38.5t56 26.5t64.5 10
q88 0 125 -33t37 -109v-231zM303 231q-33 -4 -64.5 -12t-57 -22t-41 -36.5t-15.5 -55.5q0 -69 68 -69q31 0 51 9.5t32.5 25.5t18.5 35.5t8 39.5v85zM339 482l-103 58l-106 -58l-13 12l119 116l117 -116z" />
    <glyph glyph-name="atilde" unicode="&#xe3;" horiz-adv-x="471" 
d="M388 81q0 -40 36 -40q16 0 33 12l12 -8q-17 -57 -85 -57q-61 0 -77 69q-78 -69 -162 -69q-110 0 -110 105q0 126 264 174v41q0 105 -81 105q-18 0 -32.5 -1t-25.5 -6t-17 -17t-6 -33q8 -14 8 -32q0 -40 -53 -40q-40 0 -40 48q0 25 14.5 47t39 38.5t56 26.5t64.5 10
q88 0 125 -33t37 -109v-231zM303 231q-33 -4 -64.5 -12t-57 -22t-41 -36.5t-15.5 -55.5q0 -69 68 -69q31 0 51 9.5t32.5 25.5t18.5 35.5t8 39.5v85zM389 593q-9 -37 -35 -60.5t-61 -23.5q-20 0 -35.5 8.5t-30.5 19t-30 19.5t-32 9q-20 0 -36.5 -14.5t-28.5 -37.5l-20 12
q10 38 38 61.5t56 23.5t44.5 -8.5t28.5 -19t24 -19t32 -8.5q19 0 35.5 11.5t30.5 41.5z" />
    <glyph glyph-name="adieresis" unicode="&#xe4;" horiz-adv-x="471" 
d="M388 81q0 -40 36 -40q16 0 33 12l12 -8q-17 -57 -85 -57q-61 0 -77 69q-78 -69 -162 -69q-110 0 -110 105q0 126 264 174v41q0 105 -81 105q-18 0 -32.5 -1t-25.5 -6t-17 -17t-6 -33q8 -14 8 -32q0 -40 -53 -40q-40 0 -40 48q0 25 14.5 47t39 38.5t56 26.5t64.5 10
q88 0 125 -33t37 -109v-231zM303 231q-33 -4 -64.5 -12t-57 -22t-41 -36.5t-15.5 -55.5q0 -69 68 -69q31 0 51 9.5t32.5 25.5t18.5 35.5t8 39.5v85zM339 604q46 0 46 -47t-46 -47q-50 0 -50 47t50 47zM183 557q0 -47 -47 -47q-50 0 -50 47t50 47q47 0 47 -47z" />
    <glyph glyph-name="aring" unicode="&#xe5;" horiz-adv-x="471" 
d="M388 81q0 -40 36 -40q16 0 33 12l12 -8q-17 -57 -85 -57q-61 0 -77 69q-78 -69 -162 -69q-110 0 -110 105q0 126 264 174v41q0 105 -81 105q-18 0 -32.5 -1t-25.5 -6t-17 -17t-6 -33q8 -14 8 -32q0 -40 -53 -40q-40 0 -40 48q0 25 14.5 47t39 38.5t56 26.5t64.5 10
q88 0 125 -33t37 -109v-231zM303 231q-33 -4 -64.5 -12t-57 -22t-41 -36.5t-15.5 -55.5q0 -69 68 -69q31 0 51 9.5t32.5 25.5t18.5 35.5t8 39.5v85zM297 580q0 27 -20.5 46t-51.5 19t-51.5 -19t-20.5 -46q0 -32 20.5 -50t51.5 -18t51.5 18t20.5 50zM346 580q0 -23 -9.5 -43
t-26 -35t-38.5 -23.5t-47 -8.5t-46.5 8.5t-37.5 23.5t-25 35t-9 43q0 21 9 40.5t25 34.5t37.5 23.5t46.5 8.5t47 -8.5t38.5 -23.5t26 -34.5t9.5 -40.5z" />
    <glyph glyph-name="ae" unicode="&#xe6;" horiz-adv-x="736" 
d="M418 239q-20 0 -20 -16q0 -38 10.5 -70.5t30 -56.5t47 -37.5t62.5 -13.5q46 0 77.5 22t55.5 55l25 -17q-57 -117 -187 -117q-69 0 -112 25t-73 77q-51 -102 -189 -102q-110 0 -110 105q0 126 264 174v41q0 105 -81 105q-18 0 -32.5 -1.5t-25.5 -7t-17 -17t-6 -31.5
q8 -14 8 -32q0 -40 -53 -40q-40 0 -40 48q0 24 14.5 45.5t39 38t56 26.5t64.5 12q61 0 96 -15.5t50 -44.5q55 60 139 60q26 0 57.5 -8t60 -29.5t50 -58.5t27.5 -95q0 -17 -4 -24h-284zM303 231q-32 -4 -64 -12t-57.5 -22t-41 -36.5t-15.5 -55.5q0 -69 68 -69q30 0 50.5 9.5
t33 25.5t18.5 35.5t8 39.5v85zM560 271q45 0 45 45q-5 42 -29 71.5t-69 29.5q-25 0 -45 -11t-34.5 -30t-22 -43t-7.5 -49q0 -13 24 -13h138z" />
    <glyph glyph-name="ccedilla" unicode="&#xe7;" horiz-adv-x="429" 
d="M416 89q-11 -29 -31 -49.5t-44.5 -34t-52 -19.5t-53.5 -6v-24q24 0 41 -6t27 -15.5t14.5 -22t4.5 -24.5q0 -17 -9 -31t-24.5 -23.5t-36 -15t-43.5 -5.5v21q37 3 53 18t16 36q0 16 -7 26t-17 15t-22.5 6.5t-22.5 1.5v44q-42 5 -74 24.5t-54.5 49.5t-34 69t-11.5 83
q0 50 14.5 95t43.5 78.5t73.5 53.5t103.5 20q25 0 50 -7.5t44.5 -21t31.5 -32.5t12 -41q0 -21 -17.5 -36.5t-39.5 -15.5q-44 0 -44 48q0 3 2 13.5t2 19.5q0 21 -20 30.5t-41 9.5q-30 0 -52.5 -16.5t-36.5 -42.5t-21 -57.5t-7 -61.5q0 -42 8.5 -79t25.5 -64.5t44 -43
t63 -15.5q72 0 114 64z" />
    <glyph glyph-name="egrave" unicode="&#xe8;" horiz-adv-x="462" 
d="M144 239q-20 0 -20 -16q0 -39 10.5 -71.5t30 -56t47 -37t61.5 -13.5q45 0 77.5 22t56.5 55l24 -17q-56 -117 -186 -117q-53 0 -93 16.5t-67 46.5t-41 71t-14 89q0 47 14.5 91t41.5 77.5t65.5 54t85.5 20.5q28 0 59.5 -6.5t59 -27t48 -58t27.5 -99.5q0 -17 -4 -24h-283z
M286 271q44 0 44 45q-4 42 -28 71.5t-69 29.5q-25 0 -45 -11.5t-34.5 -30t-22 -42.5t-7.5 -49q0 -13 24 -13h138zM319 471q-25 13 -57.5 25t-61.5 24t-49 25.5t-20 29.5q0 11 6.5 23t27.5 12q16 -4 35.5 -18t40.5 -32t43.5 -37.5t45.5 -33.5z" />
    <glyph glyph-name="eacute" unicode="&#xe9;" horiz-adv-x="462" 
d="M144 239q-20 0 -20 -16q0 -39 10.5 -71.5t30 -56t47 -37t61.5 -13.5q45 0 77.5 22t56.5 55l24 -17q-56 -117 -186 -117q-53 0 -93 16.5t-67 46.5t-41 71t-14 89q0 47 14.5 91t41.5 77.5t65.5 54t85.5 20.5q28 0 59.5 -6.5t59 -27t48 -58t27.5 -99.5q0 -17 -4 -24h-283z
M286 271q44 0 44 45q-4 42 -28 71.5t-69 29.5q-25 0 -45 -11.5t-34.5 -30t-22 -42.5t-7.5 -49q0 -13 24 -13h138zM131 489q32 21 62 45.5t57 48.5q10 9 21 18t25 9q21 0 27.5 -12t6.5 -23q0 -15 -20 -28.5t-49.5 -26.5t-62 -25t-56.5 -24z" />
    <glyph glyph-name="ecircumflex" unicode="&#xea;" horiz-adv-x="462" 
d="M144 239q-20 0 -20 -16q0 -39 10.5 -71.5t30 -56t47 -37t61.5 -13.5q45 0 77.5 22t56.5 55l24 -17q-56 -117 -186 -117q-53 0 -93 16.5t-67 46.5t-41 71t-14 89q0 47 14.5 91t41.5 77.5t65.5 54t85.5 20.5q28 0 59.5 -6.5t59 -27t48 -58t27.5 -99.5q0 -17 -4 -24h-283z
M286 271q44 0 44 45q-4 42 -28 71.5t-69 29.5q-25 0 -45 -11.5t-34.5 -30t-22 -42.5t-7.5 -49q0 -13 24 -13h138zM335 482l-103 58l-106 -58l-13 12l119 116l117 -116z" />
    <glyph glyph-name="edieresis" unicode="&#xeb;" horiz-adv-x="462" 
d="M144 239q-20 0 -20 -16q0 -39 10.5 -71.5t30 -56t47 -37t61.5 -13.5q45 0 77.5 22t56.5 55l24 -17q-56 -117 -186 -117q-53 0 -93 16.5t-67 46.5t-41 71t-14 89q0 47 14.5 91t41.5 77.5t65.5 54t85.5 20.5q28 0 59.5 -6.5t59 -27t48 -58t27.5 -99.5q0 -17 -4 -24h-283z
M286 271q44 0 44 45q-4 42 -28 71.5t-69 29.5q-25 0 -45 -11.5t-34.5 -30t-22 -42.5t-7.5 -49q0 -13 24 -13h138zM334 604q46 0 46 -47t-46 -47q-50 0 -50 47t50 47zM178 557q0 -47 -47 -47q-50 0 -50 47t50 47q47 0 47 -47z" />
    <glyph glyph-name="igrave" unicode="&#xec;" horiz-adv-x="314" 
d="M197 93q0 -61 81 -61v-32h-243v32q73 0 73 65v211q0 85 -64 85v28l153 33v-361zM219 471q-25 13 -57.5 25t-61.5 24t-49 25.5t-20 29.5q0 11 6.5 23t27.5 12q16 -4 35.5 -18t40.5 -32t43.5 -37.5t45.5 -33.5z" />
    <glyph glyph-name="iacute" unicode="&#xed;" horiz-adv-x="314" 
d="M197 93q0 -61 81 -61v-32h-243v32q73 0 73 65v211q0 85 -64 85v28l153 33v-361zM43 489q32 21 62 45.5t57 48.5q10 9 21 18t25 9q21 0 27.5 -12t6.5 -23q0 -15 -20 -28.5t-49.5 -26.5t-62 -25t-56.5 -24z" />
    <glyph glyph-name="icircumflex" unicode="&#xee;" horiz-adv-x="314" 
d="M197 93q0 -61 81 -61v-32h-243v32q73 0 73 65v211q0 85 -64 85v28l153 33v-361zM251 482l-103 58l-106 -58l-13 12l119 116l117 -116z" />
    <glyph glyph-name="idieresis" unicode="&#xef;" horiz-adv-x="314" 
d="M197 93q0 -61 81 -61v-32h-243v32q73 0 73 65v211q0 85 -64 85v28l153 33v-361zM245 604q46 0 46 -47t-46 -47q-50 0 -50 47t50 47zM89 557q0 -47 -47 -47q-50 0 -50 47t50 47q47 0 47 -47z" />
    <glyph glyph-name="eth" unicode="&#xf0;" horiz-adv-x="506" 
d="M406 685l-101 -78q40 -39 72 -80.5t54 -87.5t33.5 -99.5t11.5 -116.5q0 -56 -18.5 -101t-49 -76.5t-71 -48.5t-84.5 -17q-50 0 -91.5 17.5t-70.5 50.5t-45 81t-16 108q0 55 17.5 96t45 68t61.5 40t68 13q35 0 68.5 -10.5t53.5 -25.5q-19 35 -44 71.5t-55 72.5l-82 -63
l-27 38l79 59q-23 26 -48.5 50.5t-51.5 47.5l32 39q33 -24 64 -47.5t58 -47.5l111 84zM253 417q-42 0 -67 -18.5t-38 -44.5t-16.5 -53.5t-3.5 -45.5q0 -35 4 -76.5t17.5 -77.5t39 -60.5t68.5 -24.5q41 0 65.5 18.5t37 44t16 53.5t3.5 46q0 34 -4 76t-17.5 78t-38.5 60.5
t-66 24.5z" />
    <glyph glyph-name="ntilde" unicode="&#xf1;" horiz-adv-x="601" 
d="M497 73q0 -41 69 -41v-32h-227v32q69 0 69 45v174q0 146 -105 146q-106 0 -106 -130v-190q0 -45 77 -45v-32h-226v32q60 0 60 49v271q0 37 -58 37h-15v28l154 37q4 -4 4 -21v-64q8 16 21.5 31.5t33 27.5t46 19t61.5 7q19 0 43.5 -8t46.5 -25.5t37 -45.5t15 -67v-235z
M455 593q-9 -37 -35 -60.5t-61 -23.5q-20 0 -35.5 8.5t-30.5 19t-30 19.5t-32 9q-20 0 -36.5 -14.5t-28.5 -37.5l-20 12q10 38 38 61.5t56 23.5t44.5 -8.5t28.5 -19t24 -19t32 -8.5q19 0 35.5 11.5t30.5 41.5z" />
    <glyph glyph-name="ograve" unicode="&#xf2;" horiz-adv-x="506" 
d="M257 454q48 0 88.5 -18.5t69.5 -50t45 -73.5t16 -89q0 -56 -18.5 -101t-49 -76.5t-71 -48.5t-84.5 -17q-50 0 -91.5 18.5t-70.5 50t-45 73.5t-16 89q0 56 18 101t48.5 76.5t72 48.5t88.5 17zM253 417q-42 0 -67 -18.5t-38 -44.5t-16.5 -53.5t-3.5 -45.5q0 -35 4 -76.5
t17.5 -77.5t39 -60.5t68.5 -24.5q41 0 65.5 18.5t37 44t16 53.5t3.5 46q0 34 -4 76t-17.5 78t-38.5 60.5t-66 24.5zM341 471q-25 13 -57.5 25t-61.5 24t-49 25.5t-20 29.5q0 11 6.5 23t27.5 12q16 -4 35.5 -18t40.5 -32t43.5 -37.5t45.5 -33.5z" />
    <glyph glyph-name="oacute" unicode="&#xf3;" horiz-adv-x="506" 
d="M257 454q48 0 88.5 -18.5t69.5 -50t45 -73.5t16 -89q0 -56 -18.5 -101t-49 -76.5t-71 -48.5t-84.5 -17q-50 0 -91.5 18.5t-70.5 50t-45 73.5t-16 89q0 56 18 101t48.5 76.5t72 48.5t88.5 17zM253 417q-42 0 -67 -18.5t-38 -44.5t-16.5 -53.5t-3.5 -45.5q0 -35 4 -76.5
t17.5 -77.5t39 -60.5t68.5 -24.5q41 0 65.5 18.5t37 44t16 53.5t3.5 46q0 34 -4 76t-17.5 78t-38.5 60.5t-66 24.5zM153 489q32 21 62 45.5t57 48.5q10 9 21 18t25 9q21 0 27.5 -12t6.5 -23q0 -15 -20 -28.5t-49.5 -26.5t-62 -25t-56.5 -24z" />
    <glyph glyph-name="ocircumflex" unicode="&#xf4;" horiz-adv-x="506" 
d="M257 454q48 0 88.5 -18.5t69.5 -50t45 -73.5t16 -89q0 -56 -18.5 -101t-49 -76.5t-71 -48.5t-84.5 -17q-50 0 -91.5 18.5t-70.5 50t-45 73.5t-16 89q0 56 18 101t48.5 76.5t72 48.5t88.5 17zM253 417q-42 0 -67 -18.5t-38 -44.5t-16.5 -53.5t-3.5 -45.5q0 -35 4 -76.5
t17.5 -77.5t39 -60.5t68.5 -24.5q41 0 65.5 18.5t37 44t16 53.5t3.5 46q0 34 -4 76t-17.5 78t-38.5 60.5t-66 24.5zM357 482l-103 58l-106 -58l-13 12l119 116l117 -116z" />
    <glyph glyph-name="otilde" unicode="&#xf5;" horiz-adv-x="506" 
d="M257 454q48 0 88.5 -18.5t69.5 -50t45 -73.5t16 -89q0 -56 -18.5 -101t-49 -76.5t-71 -48.5t-84.5 -17q-50 0 -91.5 18.5t-70.5 50t-45 73.5t-16 89q0 56 18 101t48.5 76.5t72 48.5t88.5 17zM253 417q-42 0 -67 -18.5t-38 -44.5t-16.5 -53.5t-3.5 -45.5q0 -35 4 -76.5
t17.5 -77.5t39 -60.5t68.5 -24.5q41 0 65.5 18.5t37 44t16 53.5t3.5 46q0 34 -4 76t-17.5 78t-38.5 60.5t-66 24.5zM407 593q-9 -37 -35 -60.5t-61 -23.5q-20 0 -35.5 8.5t-30.5 19t-30 19.5t-32 9q-20 0 -36.5 -14.5t-28.5 -37.5l-20 12q10 38 38 61.5t56 23.5t44.5 -8.5
t28.5 -19t24 -19t32 -8.5q19 0 35.5 11.5t30.5 41.5z" />
    <glyph glyph-name="odieresis" unicode="&#xf6;" horiz-adv-x="506" 
d="M257 454q48 0 88.5 -18.5t69.5 -50t45 -73.5t16 -89q0 -56 -18.5 -101t-49 -76.5t-71 -48.5t-84.5 -17q-50 0 -91.5 18.5t-70.5 50t-45 73.5t-16 89q0 56 18 101t48.5 76.5t72 48.5t88.5 17zM253 417q-42 0 -67 -18.5t-38 -44.5t-16.5 -53.5t-3.5 -45.5q0 -35 4 -76.5
t17.5 -77.5t39 -60.5t68.5 -24.5q41 0 65.5 18.5t37 44t16 53.5t3.5 46q0 34 -4 76t-17.5 78t-38.5 60.5t-66 24.5zM356 604q46 0 46 -47t-46 -47q-50 0 -50 47t50 47zM200 557q0 -47 -47 -47q-50 0 -50 47t50 47q47 0 47 -47z" />
    <glyph glyph-name="divide" unicode="&#xf7;" horiz-adv-x="573" 
d="M287 244q68 0 68 -69t-68 -69q-73 0 -73 69t73 69zM355 532q0 -69 -68 -69q-73 0 -73 69q0 68 73 68q68 0 68 -68zM526 322h-478v69h478v-69z" />
    <glyph glyph-name="oslash" unicode="&#xf8;" horiz-adv-x="506" 
d="M381 415q45 -31 70 -81.5t25 -110.5q0 -56 -18.5 -101t-49 -76.5t-71 -48.5t-84.5 -17q-27 0 -51.5 5.5t-46.5 15.5l-31 -58l-38 21l32 59q-42 33 -65 81.5t-23 106.5q0 56 18 101t48.5 76.5t72 48.5t88.5 17t86 -18l29 51l39 -17zM180 48q30 -32 77 -32q41 0 65.5 18.5
t37 44t16 53.5t3.5 46q0 41 -6 89t-26 86zM320 392q-25 25 -67 25t-67 -18.5t-38 -44.5t-16.5 -53.5t-3.5 -45.5q0 -38 4.5 -83t21.5 -83z" />
    <glyph glyph-name="ugrave" unicode="&#xf9;" horiz-adv-x="570" 
d="M473 85q0 -36 73 -40l8 -29l-162 -20q-4 7 -4 28v41q-11 -18 -23.5 -32.5t-30 -24.5t-40.5 -15t-56 -5q-41 0 -69.5 7.5t-46.5 26.5t-26 50t-8 78v215q0 36 -69 36l-4 28l162 12v-271q0 -26 1.5 -49t9.5 -41t26.5 -28.5t51.5 -10.5q87 0 118 109v215q0 36 -77 36l-4 28
l170 12v-356zM374 471q-25 13 -57.5 25t-61.5 24t-49 25.5t-20 29.5q0 11 6.5 23t27.5 12q16 -4 35.5 -18t40.5 -32t43.5 -37.5t45.5 -33.5z" />
    <glyph glyph-name="uacute" unicode="&#xfa;" horiz-adv-x="570" 
d="M473 85q0 -36 73 -40l8 -29l-162 -20q-4 7 -4 28v41q-11 -18 -23.5 -32.5t-30 -24.5t-40.5 -15t-56 -5q-41 0 -69.5 7.5t-46.5 26.5t-26 50t-8 78v215q0 36 -69 36l-4 28l162 12v-271q0 -26 1.5 -49t9.5 -41t26.5 -28.5t51.5 -10.5q87 0 118 109v215q0 36 -77 36l-4 28
l170 12v-356zM186 489q32 21 62 45.5t57 48.5q10 9 21 18t25 9q21 0 27.5 -12t6.5 -23q0 -15 -20 -28.5t-49.5 -26.5t-62 -25t-56.5 -24z" />
    <glyph glyph-name="ucircumflex" unicode="&#xfb;" horiz-adv-x="570" 
d="M473 85q0 -36 73 -40l8 -29l-162 -20q-4 7 -4 28v41q-11 -18 -23.5 -32.5t-30 -24.5t-40.5 -15t-56 -5q-41 0 -69.5 7.5t-46.5 26.5t-26 50t-8 78v215q0 36 -69 36l-4 28l162 12v-271q0 -26 1.5 -49t9.5 -41t26.5 -28.5t51.5 -10.5q87 0 118 109v215q0 36 -77 36l-4 28
l170 12v-356zM389 482l-103 58l-106 -58l-13 12l119 116l117 -116z" />
    <glyph glyph-name="udieresis" unicode="&#xfc;" horiz-adv-x="570" 
d="M473 85q0 -36 73 -40l8 -29l-162 -20q-4 7 -4 28v41q-11 -18 -23.5 -32.5t-30 -24.5t-40.5 -15t-56 -5q-41 0 -69.5 7.5t-46.5 26.5t-26 50t-8 78v215q0 36 -69 36l-4 28l162 12v-271q0 -26 1.5 -49t9.5 -41t26.5 -28.5t51.5 -10.5q87 0 118 109v215q0 36 -77 36l-4 28
l170 12v-356zM388 604q46 0 46 -47t-46 -47q-50 0 -50 47t50 47zM232 557q0 -47 -47 -47q-50 0 -50 47t50 47q47 0 47 -47z" />
    <glyph glyph-name="yacute" unicode="&#xfd;" horiz-adv-x="463" 
d="M480 401q-45 0 -61 -36l-129 -324q-5 -11 -14 -31.5t-22 -46t-29.5 -52t-36.5 -48t-43.5 -35.5t-49.5 -14q-57 0 -57 52q0 53 41 53q19 0 25 -9t9 -19.5t6.5 -19.5t16.5 -9q8 0 20.5 13.5t26 34.5t25 46t17.5 48l-166 356q-17 41 -61 41v32h219v-32h-21q-40 0 -40 -24
q2 -7 3 -15t5 -22l109 -235l85 219q9 40 9 45q0 32 -69 32v32h182v-32zM132 489q32 21 62 45.5t57 48.5q10 9 21 18t25 9q21 0 27.5 -12t6.5 -23q0 -15 -20 -28.5t-49.5 -26.5t-62 -25t-56.5 -24z" />
    <glyph glyph-name="thorn" unicode="&#xfe;" horiz-adv-x="540" 
d="M172 369q20 44 58.5 64.5t79.5 20.5q52 0 89 -23.5t60.5 -58t34 -73t10.5 -68.5q0 -45 -13.5 -87.5t-39 -75.5t-61 -54.5t-80.5 -25.5q-53 0 -83 12t-51 32l-4 -4q4 -7 4 -40v-118q0 -36 85 -36v-28h-235v28q57 0 57 32v721q0 85 -69 85v29l158 32v-364zM172 182
q4 -32 10.5 -59t19.5 -47.5t35 -32t57 -11.5q33 0 56.5 15t37.5 39.5t20.5 56t6.5 64.5t-8.5 66.5t-25.5 61t-43 45t-61 17.5q-39 0 -60.5 -20t-31 -47t-11.5 -53t-2 -38v-57z" />
    <glyph glyph-name="ydieresis" unicode="&#xff;" horiz-adv-x="463" 
d="M480 401q-45 0 -61 -36l-129 -324q-5 -11 -14 -31.5t-22 -46t-29.5 -52t-36.5 -48t-43.5 -35.5t-49.5 -14q-57 0 -57 52q0 53 41 53q19 0 25 -9t9 -19.5t6.5 -19.5t16.5 -9q8 0 20.5 13.5t26 34.5t25 46t17.5 48l-166 356q-17 41 -61 41v32h219v-32h-21q-40 0 -40 -24
q2 -7 3 -15t5 -22l109 -235l85 219q9 40 9 45q0 32 -69 32v32h182v-32zM335 604q46 0 46 -47t-46 -47q-50 0 -50 47t50 47zM179 557q0 -47 -47 -47q-50 0 -50 47t50 47q47 0 47 -47z" />
    <glyph glyph-name="dotlessi" unicode="&#x131;" horiz-adv-x="314" 
d="M197 93q0 -61 81 -61v-32h-243v32q73 0 73 65v211q0 85 -64 85v28l153 33v-361z" />
    <glyph glyph-name="Lslash" unicode="&#x141;" horiz-adv-x="627" 
d="M358 672q-97 0 -97 -81v-223l228 105l24 -49l-252 -116v-219q0 -44 69 -44h49q96 0 146 26q48 25 85 152l28 -4l-32 -219h-543v32q93 0 93 57v170l-44 -20l-24 49l68 31v272q0 81 -105 81v33h307v-33z" />
    <glyph glyph-name="lslash" unicode="&#x142;" horiz-adv-x="322" 
d="M206 415l68 33l25 -49l-93 -44v-278q0 -45 81 -45v-32h-243v32q72 0 72 49v232l-71 -34l-25 49l96 45v247q0 52 -81 52v29l171 32v-318z" />
    <glyph glyph-name="OE" unicode="&#x152;" horiz-adv-x="1126" 
d="M1054 506l-32 -4q-10 58 -29.5 90t-47 47t-62.5 18t-76 3h-28q-81 0 -81 -48v-191q0 -32 24 -32h36q27 0 50 3t40 14t28.5 34t15.5 62h41v-275h-41q-4 39 -12.5 62t-24 35.5t-39.5 16t-58 3.5h-12q-48 0 -48 -36v-203q0 -60 85 -60h32q67 0 108 10.5t66.5 31.5t41 54
t31.5 78l29 -8l-29 -211h-569q-20 -8 -46 -12t-55 -4q-76 0 -140 28.5t-110 78t-72 115.5t-26 142q0 70 24.5 136.5t70 118t109.5 83t144 31.5q31 0 76 -12h578zM384 680q-61 0 -103 -26.5t-67.5 -71.5t-37 -103.5t-11.5 -122.5q0 -70 14 -130.5t42.5 -105.5t73 -70.5
t105.5 -25.5q59 0 100 25t66 68.5t36 103t11 127.5q0 64 -11 123.5t-37 106t-70 74.5t-111 28z" />
    <glyph glyph-name="oe" unicode="&#x153;" horiz-adv-x="809" 
d="M491 239q-20 0 -20 -16q0 -38 10.5 -70.5t30 -56.5t47 -37.5t62.5 -13.5q45 0 77 22t56 55l25 -17q-57 -117 -187 -117q-63 0 -104 20.5t-66 59.5q-29 -43 -73 -65.5t-96 -22.5q-50 0 -91.5 18.5t-70.5 50t-45 73.5t-16 89q0 56 18 101t48.5 76.5t72 48.5t88.5 17
q57 0 98.5 -24.5t68.5 -64.5q27 40 66.5 64.5t93.5 24.5q26 0 57.5 -8t60 -29.5t50 -58.5t27.5 -95q0 -17 -4 -24h-284zM253 417q-42 0 -67 -18.5t-38 -44.5t-16.5 -53.5t-3.5 -45.5q0 -35 4 -76.5t17.5 -77.5t39 -60.5t68.5 -24.5q41 0 65.5 18.5t37 44t16 53.5t3.5 46
q0 34 -4 76t-17.5 78t-38.5 60.5t-66 24.5zM633 271q44 0 44 45q-4 42 -28 71.5t-69 29.5q-25 0 -45 -11t-34.5 -30t-22 -43t-7.5 -49q0 -13 24 -13h138z" />
    <glyph glyph-name="Scaron" unicode="&#x160;" horiz-adv-x="577" 
d="M467 490q-21 88 -70.5 139t-124.5 51q-61 0 -97 -32t-36 -81q0 -38 25.5 -66t79.5 -51q64 -28 117.5 -47t91 -43t58.5 -61t21 -101q0 -39 -12 -77.5t-38 -69t-67 -49t-98 -18.5q-37 0 -64 5.5t-46 13t-29.5 14.5t-14.5 11q-46 -32 -81 -44q-24 157 -24 251h36
q0 -47 19 -86t49 -66.5t66.5 -43t72.5 -15.5q22 0 49.5 8t51.5 24t40.5 40.5t16.5 57.5q0 43 -22.5 75t-73.5 50q-59 21 -112.5 39t-94.5 43t-65.5 63t-24.5 99q0 45 16 81.5t43 62.5t63 40t76 14q45 0 77.5 -16t60.5 -29q16 13 33.5 22t35.5 15q28 -91 28 -223h-32z
M288 751l-117 115l14 13l103 -58l106 58l13 -13z" />
    <glyph glyph-name="scaron" unicode="&#x161;" horiz-adv-x="385" 
d="M304 312q-49 109 -130 109q-32 0 -56.5 -16t-24.5 -53q0 -21 19.5 -36t48.5 -27.5t63.5 -25.5t63.5 -30.5t48.5 -42t19.5 -60.5q0 -32 -12 -57.5t-32 -43.5t-47.5 -29.5t-57.5 -15.5q-54 0 -94 28q-24 -20 -64 -24q-9 42 -13 81.5t-4 84.5h29q12 -39 26 -64.5t31 -41
t38 -22t47 -6.5q89 0 89 69q0 21 -7.5 35t-21.5 24.5t-35.5 19t-49.5 18.5q-22 7 -47.5 18.5t-47.5 27.5t-36.5 37.5t-14.5 50.5q0 28 8.5 52.5t26.5 42.5t45.5 28.5t65.5 10.5q46 0 89 -25q8 6 18.5 11.5t22.5 9.5q20 -80 20 -138h-24zM191 480l-117 115l14 13l103 -58
l106 58l13 -13z" />
    <glyph glyph-name="Ydieresis" unicode="&#x178;" horiz-adv-x="646" 
d="M671 672q-55 0 -85 -40l-198 -340v-215q0 -45 105 -45v-32h-324v32q109 0 109 49v207l-178 295q-54 89 -117 89v33h291v-33q-77 0 -77 -36q0 -8 4.5 -15.5t12.5 -21.5l150 -251l137 247q8 27 8 45q0 32 -85 32v33h247v-33zM426 875q46 0 46 -47t-46 -47q-50 0 -50 47
t50 47zM270 828q0 -47 -47 -47q-50 0 -50 47t50 47q47 0 47 -47z" />
    <glyph glyph-name="Zcaron" unicode="&#x17d;" horiz-adv-x="578" 
d="M551 672l-393 -623q46 -8 69 -8h81q55 0 94 20.5t65.5 49t42.5 59.5t25 53l32 -8l-28 -215h-511l-4 24l397 628q-23 4 -45 6t-44 2h-48q-15 0 -38.5 -2t-48 -8t-46.5 -17t-34 -29q-8 -17 -20 -43t-20 -59h-32l20 211q20 -4 40 -6t41 -2h405v-33zM288 751l-117 115l14 13
l103 -58l106 58l13 -13z" />
    <glyph glyph-name="zcaron" unicode="&#x17e;" horiz-adv-x="421" 
d="M386 413l-255 -356q8 -8 24 -8h81q30 0 51 6t36 18.5t25 31.5t18 45l32 -4q-4 -37 -11 -73t-17 -73h-341v28l251 353q-4 4 -28 4h-44q-21 0 -37 -2t-28 -6q-13 -4 -21 -7.5t-15.5 -12t-16.5 -24.5t-24 -45l-24 4q2 36 10 73.5t22 75.5q43 -8 105 -8h207v-20zM210 480
l-117 115l14 13l103 -58l106 58l13 -13z" />
    <glyph glyph-name="circumflex" unicode="&#x2c6;" horiz-adv-x="322" 
d="M265 482l-103 58l-106 -58l-13 12l119 116l117 -116z" />
    <glyph glyph-name="caron" unicode="&#x2c7;" horiz-adv-x="322" 
d="M160 480l-117 115l14 13l103 -58l106 58l13 -13z" />
    <glyph glyph-name="ring" unicode="&#x2da;" horiz-adv-x="241" 
d="M191 534q0 27 -20.5 46t-51.5 19t-51.5 -19t-20.5 -46q0 -32 20.5 -50t51.5 -18t51.5 18t20.5 50zM240 534q0 -23 -9.5 -43t-26 -35t-38.5 -23.5t-47 -8.5t-46.5 8.5t-37.5 23.5t-25 35t-9 43q0 21 9 40.5t25 34.5t37.5 23.5t46.5 8.5t47 -8.5t38.5 -23.5t26 -34.5
t9.5 -40.5z" />
    <glyph glyph-name="tilde" unicode="&#x2dc;" horiz-adv-x="354" 
d="M331 593q-9 -37 -35 -60.5t-61 -23.5q-20 0 -35.5 8.5t-30.5 19t-30 19.5t-32 9q-20 0 -36.5 -14.5t-28.5 -37.5l-20 12q10 38 38 61.5t56 23.5t44.5 -8.5t28.5 -19t24 -19t32 -8.5q19 0 35.5 11.5t30.5 41.5z" />
    <glyph glyph-name="endash" unicode="&#x2013;" horiz-adv-x="472" 
d="M436 239h-401v65h401v-65z" />
    <glyph glyph-name="emdash" unicode="&#x2014;" horiz-adv-x="796" 
d="M760 239h-725v65h725v-65z" />
    <glyph glyph-name="quoteleft" unicode="&#x2018;" horiz-adv-x="229" 
d="M193 712q-35 -23 -54 -41.5t-27.5 -34t-10 -28t-1.5 -22.5q0 -24 25 -24q60 0 60 -53q0 -69 -65 -69q-85 0 -85 102q0 66 36.5 112t105.5 82z" />
    <glyph glyph-name="quoteright" unicode="&#x2019;" horiz-adv-x="229" 
d="M35 465q35 22 54 40.5t28 34t10.5 28t1.5 22.5q0 25 -25 25q-60 0 -60 52q0 69 64 69q85 0 85 -101q0 -66 -36 -112t-105 -83z" />
    <glyph glyph-name="quotesinglbase" unicode="&#x201a;" horiz-adv-x="229" 
d="M35 -146q35 22 54 40.5t28 34t10.5 28t1.5 23.5q0 24 -25 24q-60 0 -60 53q0 69 64 69q85 0 85 -102q0 -66 -36 -112t-105 -82z" />
    <glyph glyph-name="quotedblleft" unicode="&#x201c;" horiz-adv-x="411" 
d="M193 712q-35 -23 -54 -41.5t-27.5 -34t-10 -28t-1.5 -22.5q0 -24 25 -24q60 0 60 -53q0 -69 -65 -69q-85 0 -85 102q0 66 36.5 112t105.5 82zM376 712q-35 -23 -54 -41.5t-27.5 -34t-10 -28t-1.5 -22.5q0 -24 24 -24q61 0 61 -53q0 -69 -65 -69q-85 0 -85 102
q0 66 36 112t105 82z" />
    <glyph glyph-name="quotedblright" unicode="&#x201d;" horiz-adv-x="411" 
d="M218 465q34 22 53 40t28 33t10.5 27t1.5 23q0 27 -24 27q-61 0 -61 52q0 69 65 69q85 0 85 -101q0 -66 -36.5 -112t-105.5 -83zM35 465q35 22 54 40.5t28 34t10.5 28t1.5 22.5q0 25 -25 25q-60 0 -60 52q0 69 64 69q85 0 85 -101q0 -66 -36 -112t-105 -83z" />
    <glyph glyph-name="quotedblbase" unicode="&#x201e;" horiz-adv-x="411" 
d="M218 -146q34 22 53 40t28 33t10.5 27.5t1.5 23.5q0 26 -24 26q-61 0 -61 53q0 69 65 69q85 0 85 -102q0 -66 -36.5 -112t-105.5 -82zM35 -146q35 22 54 40.5t28 34t10.5 28t1.5 23.5q0 24 -25 24q-60 0 -60 53q0 69 64 69q85 0 85 -102q0 -66 -36 -112t-105 -82z" />
    <glyph glyph-name="dagger" unicode="&#x2020;" horiz-adv-x="440" 
d="M255 627l-5 -115q27 2 52 5t46 10h46q11 -11 11 -26t-11 -23h-46q-23 4 -47.5 8t-50.5 6l-20 -486h-22l-20 486q-25 -1 -49 -4.5t-48 -8.5h-43q-13 9 -13 25q0 17 13 24h43q24 -6 47 -10t49 -6l-5 115v55q13 24 37 24q10 0 20 -6t16 -18v-55z" />
    <glyph glyph-name="daggerdbl" unicode="&#x2021;" horiz-adv-x="444" 
d="M258 627l-5 -115q27 2 52 5t46 10h46q11 -11 11 -26t-11 -23h-46q-23 4 -47.5 8t-50.5 6l-9 -148l9 -141q26 2 49.5 5.5t46.5 8.5h44q12 -9 12 -25t-12 -23h-44q-23 4 -46.5 7.5t-49.5 7.5l4 -115v-55q-14 -23 -35 -23t-38 23v56l6 114q-26 -3 -51.5 -6t-47.5 -8h-44
q-12 9 -12 24q0 16 12 24h44q24 -5 48.5 -8t51.5 -7l9 141l-9 148q-25 -1 -49 -4.5t-48 -8.5h-43q-13 10 -13 25q0 17 13 24h43q24 -6 47 -10t49 -6l-5 115v55q13 24 37 24q10 0 20 -6t16 -18v-55z" />
    <glyph glyph-name="bullet" unicode="&#x2022;" horiz-adv-x="309" 
d="M158 449q115 0 115 -116q0 -115 -115 -115q-123 0 -123 115q0 116 123 116z" />
    <glyph glyph-name="ellipsis" unicode="&#x2026;" horiz-adv-x="1387" 
d="M177 53q0 -69 -69 -69q-73 0 -73 69t73 69q69 0 69 -69zM765 53q0 -69 -69 -69q-73 0 -73 69t73 69q69 0 69 -69zM1352 53q0 -69 -69 -69q-73 0 -73 69t73 69q69 0 69 -69z" />
    <glyph glyph-name="perthousand" unicode="&#x2030;" horiz-adv-x="808" 
d="M695 340q91 0 91 -162q0 -190 -127 -190q-99 0 -99 166q0 186 135 186zM698 316q-85 0 -85 -190q0 -110 51 -110q88 0 88 162q0 138 -54 138zM170 689q90 0 90 -162q0 -191 -125 -191q-100 0 -100 166q0 187 135 187zM173 664q-85 0 -85 -190q0 -109 52 -109q88 0 88 162
q0 137 -55 137zM166 0h-35l271 705h38zM445 344q90 0 90 -162q0 -190 -126 -190q-99 0 -99 166q0 186 135 186zM448 320q-85 0 -85 -190q0 -110 51 -110q88 0 88 162q0 138 -54 138z" />
    <glyph glyph-name="guilsinglleft" unicode="&#x2039;" horiz-adv-x="340" 
d="M259 420l-114 -155l114 -158l-18 -19l-192 177l192 176z" />
    <glyph glyph-name="guilsinglright" unicode="&#x203a;" horiz-adv-x="325" 
d="M67 88l-18 21l113 155l-113 158l18 19l191 -177z" />
    <glyph glyph-name="fraction" unicode="&#x2044;" horiz-adv-x="137" 
d="M-98 0h-53l401 705h57z" />
    <glyph glyph-name="Euro" unicode="&#x20ac;" horiz-adv-x="686" 
d="M489 373h-275q0 -19 0.5 -37t3.5 -36h247l-16 -49h-223q10 -50 28.5 -90.5t46.5 -69t65.5 -44t86.5 -15.5q51 0 91.5 15t74.5 54l32 -28q-77 -89 -223 -89q-66 0 -120 19t-95.5 53.5t-69 84t-39.5 110.5h-89l24 49h57v73h-81l24 48h61q12 65 43 119.5t74.5 93.5t97.5 61
t113 22q47 0 89 -7t73.5 -22t50 -38t18.5 -55q0 -21 -17.5 -36.5t-39.5 -15.5q-44 0 -44 48q0 3 2 13.5t2 19.5q0 18 -9.5 28.5t-26.5 15.5t-41 6.5t-53 1.5q-53 0 -92 -21t-65.5 -56.5t-41.5 -81.5t-19 -96h291z" />
    <glyph glyph-name="uni2117" unicode="&#x2117;" horiz-adv-x="806" 
d="M402 714q78 0 143.5 -27t113.5 -75t74.5 -115.5t26.5 -148.5q0 -77 -25.5 -143t-72 -115.5t-112.5 -77.5t-148 -28q-83 0 -149 28.5t-112.5 77.5t-71.5 115.5t-25 142.5q0 78 28 145t76.5 116t113.5 77t140 28zM405 677q-64 0 -120 -24t-97.5 -67.5t-65.5 -104
t-24 -133.5q0 -90 30 -152.5t75.5 -102t99.5 -57t102 -17.5q84 0 142 31.5t95 80t53.5 106.5t16.5 111q0 87 -30.5 149.5t-76 102t-99.5 58.5t-101 19zM337 572q22 0 35 0.5t23 1t20.5 1t27.5 0.5q153 0 153 -134q0 -26 -9 -48.5t-28.5 -39.5t-49 -27t-70.5 -10q-55 0 -84 7
v-134q0 -51 69 -51v-22h-199v22q63 0 63 49v322q0 43 -66 43v20h115zM385 552q-30 0 -30 -38v-165q27 -7 84 -7q23 0 39.5 8.5t27 22.5t15.5 33t5 39q0 107 -123 107h-18z" />
    <glyph glyph-name="trademark" unicode="&#x2122;" horiz-adv-x="769" 
d="M729 682q-37 0 -37 -23v-207q0 -32 41 -32v-22h-136v22q36 0 36 29v185l-88 -236h-18l-96 234v-176q0 -36 45 -36v-22h-117v22q42 0 44 39v200q0 23 -45 23v23h101l88 -221l84 221h98v-23zM308 606l-21 -2q-5 71 -68 71q-19 0 -19 -11v-207q0 -37 49 -37v-22h-150v22
q49 0 49 37v207q0 13 -18 13q-56 0 -72 -78l-23 6l14 104q12 -2 22.5 -3t18.5 -1h173q9 0 20.5 1t24.5 3v-103z" />
    <glyph glyph-name="onethird" unicode="&#x2153;" horiz-adv-x="805" 
d="M210 707q-3 -16 -4 -28t-1 -20v-334q0 -35 75 -35v-34h-223v34q77 0 77 35v283q0 20 -19 20h-60v32q25 4 42.5 7.5t31 9t26 14.5t28.5 23zM228 0h-53l401 705h57zM594 219q-14 0 -14 17q0 20 14 20q45 0 65 22t20 64q0 64 -55 64q-49 0 -52 -16q12 -9 12 -25
q0 -35 -33 -35t-33 34q0 88 123 88q107 0 107 -102q0 -69 -62 -95q85 -16 85 -118q0 -144 -166 -144q-109 0 -109 71q0 38 39 38q30 0 30 -28q0 -19 -12 -26q7 -13 34 -13q105 0 105 100q0 84 -65 84h-33z" />
    <glyph glyph-name="twothirds" unicode="&#x2154;" horiz-adv-x="805" 
d="M228 0h-53l401 705h57zM594 219q-14 0 -14 17q0 20 14 20q45 0 65 22t20 64q0 64 -55 64q-49 0 -52 -16q12 -9 12 -25q0 -35 -33 -35t-33 34q0 88 123 88q107 0 107 -102q0 -69 -62 -95q85 -16 85 -118q0 -144 -166 -144q-109 0 -109 71q0 38 39 38q30 0 30 -28
q0 -19 -12 -26q7 -13 34 -13q105 0 105 100q0 84 -65 84h-33zM283 256h-206q-10 0 -24.5 -1t-28.5 -2l-5 27q43 43 80 83t64 77.5t42.5 73.5t15.5 72q0 35 -20 52.5t-55 17.5q-64 0 -67 -37q22 -7 22 -31q0 -38 -34 -38q-16 0 -25.5 12t-9.5 36q0 107 138 107
q124 0 124 -115q0 -35 -11.5 -68t-35 -65.5t-57.5 -65.5t-79 -69h94q15 0 26.5 2t19.5 7.5t14.5 16t12.5 28.5l32 -2z" />
    <glyph glyph-name="minus" unicode="&#x2212;" horiz-adv-x="583" 
d="M528 322h-478v69h478v-69z" />
    <glyph glyph-name="Aswash" unicode="&#xe000;" horiz-adv-x="1020" 
d="M955 77q8 -12 10.5 -18t8.5 -10t20 -7t46 -10v-32h-292v32q17 2 33.5 4.5t30 6t21.5 8.5t8 12q-3 4 -3.5 11.5t-4.5 18.5l-48 130q-7 28 -65 28h-158q-42 0 -49 -28l-17 -46q-32 -85 -65.5 -153.5t-75 -117t-93 -74.5t-117.5 -26q-36 0 -68.5 11.5t-57 33t-38.5 52
t-14 68.5q0 33 10.5 60t28.5 45.5t43 28.5t54 10q62 0 62 -49q0 -48 -45 -48q-41 0 -41 40q-31 -6 -47 -30t-16 -55q0 -26 11 -50.5t30 -43t43.5 -30t51.5 -11.5q54 0 98 33.5t81 87t67.5 119t57.5 129.5l215 514l32 -12zM562 348q-12 -24 -12 -36q0 -16 40 -16h134
q32 0 32 12q0 4 -3.5 13t-8.5 23l-89 227z" />
    <glyph glyph-name="Bswash" unicode="&#xe001;" horiz-adv-x="834" 
d="M593 377q88 -13 139.5 -57t51.5 -117q0 -58 -19.5 -97.5t-53 -64t-79.5 -35t-99 -10.5q-45 0 -87.5 0.5t-86 1.5t-89.5 1.5t-98 0.5v32q101 0 101 60v506q0 74 -105 74q-32 0 -60 -11t-48.5 -30t-32 -43t-11.5 -50q0 -32 16 -55.5t47 -29.5q0 39 41 39q45 0 45 -47
q0 -50 -62 -50q-29 0 -54 10t-43 29t-28.5 46t-10.5 60q0 37 14.5 67.5t41 52.5t63.5 33.5t82 11.5h308q56 0 104 -9t83.5 -28.5t55.5 -51t20 -77.5q0 -35 -10.5 -60t-30 -43.5t-46.5 -31.5t-59 -23v-4zM409 348q-30 0 -30 -41v-229q0 -42 76 -42h46q36 0 67 8.5t53.5 26.5
t35.5 47.5t13 71.5q0 50 -15.5 81t-44.5 48t-70 23t-92 6h-39zM453 664q-74 0 -74 -40v-205q0 -30 30 -30q74 0 118.5 8t68 25t31 43t7.5 62q0 137 -140 137h-41z" />
    <glyph glyph-name="Cswash" unicode="&#xe002;" horiz-adv-x="792" 
d="M762 203q-10 -55 -36 -96t-63.5 -68.5t-84.5 -41t-99 -13.5q-75 0 -136.5 27t-105 75t-67 113t-23.5 141q0 106 39.5 183.5t105.5 126.5q-20 5 -42 8t-48 3q-45 0 -83.5 -13t-69 -32.5t-52.5 -42t-34 -41.5l-24 21q16 23 41.5 50.5t61 51t82 39t105.5 15.5
q37 0 68.5 -5.5t59.5 -15.5q28 12 64 20.5t96 8.5q42 0 77.5 -7t61.5 -21t40.5 -37t14.5 -54q0 -29 -26.5 -52t-83.5 -23q-40 0 -72.5 11t-61.5 26.5t-57 34t-59 33.5q-45 -42 -66 -107.5t-21 -135.5q0 -75 13.5 -140t42 -112t74 -74t109.5 -27q41 0 73.5 8.5t59.5 29.5
t50 56.5t44 88.5zM411 664q39 -17 69 -34.5t53.5 -32t42 -24t34.5 -9.5q41 0 41 40q0 32 -37.5 52t-97.5 20q-44 0 -66.5 -3.5t-38.5 -8.5z" />
    <glyph glyph-name="Dswash" unicode="&#xe003;" horiz-adv-x="923" 
d="M496 705q186 0 281.5 -89.5t95.5 -263.5q0 -81 -24.5 -146t-77 -110.5t-135 -70.5t-197.5 -25h-267v32q31 0 51 3t31 13.5t15 30t4 51.5v441q0 101 -105 101q-32 0 -60 -11t-48.5 -30t-32 -43t-11.5 -50q0 -32 16 -55.5t47 -29.5q0 39 41 39q45 0 45 -47q0 -50 -62 -50
q-29 0 -54 10t-43 29t-28.5 46t-10.5 60q0 37 14.5 67.5t41 52.5t63.5 33.5t82 11.5h328zM445 664q-20 0 -32.5 -2t-20 -8.5t-10.5 -19.5t-3 -35v-477q0 -29 4.5 -45t15.5 -24t29 -10t45 -2h31q127 0 187 75t60 236q0 160 -68.5 236t-196.5 76h-41z" />
    <glyph glyph-name="Eswash" unicode="&#xe004;" horiz-adv-x="803" 
d="M735 506l-32 -4q-10 58 -29.5 90t-47 47t-62.5 18t-76 3h-28q-81 0 -81 -48v-191q0 -32 24 -32h36q27 0 50 3t40 14t28.5 34t15.5 62h41v-275h-41q-4 39 -12.5 62t-24 35.5t-39.5 16t-58 3.5h-12q-48 0 -48 -36v-203q0 -60 85 -60h32q67 0 108 10.5t66.5 31.5t41 54
t31.5 78l29 -8l-29 -211h-567v32q97 0 97 69v482q0 89 -105 89q-32 0 -60 -11t-48.5 -30t-32 -43t-11.5 -50q0 -32 16 -55.5t47 -29.5q0 39 41 39q45 0 45 -47q0 -50 -62 -50q-29 0 -54 10t-43 29t-28.5 46t-10.5 60q0 37 14.5 67.5t41 52.5t63.5 33.5t82 11.5h559z" />
    <glyph glyph-name="Fswash" unicode="&#xe005;" horiz-adv-x="738" 
d="M731 510l-36 -4q-11 54 -30 85t-46.5 46.5t-64 19t-82.5 3.5h-33q-64 0 -64 -44v-187q0 -40 60 -40h17q35 0 55.5 5t32 17t17.5 33t12 54h37v-271h-37v32q0 14 -5 29t-19 27.5t-38 20.5t-63 8h-49q-20 0 -20 -32v-195q0 -85 109 -85v-32h-308v32q93 0 93 85v462
q0 93 -101 93q-32 0 -60 -11t-48.5 -30t-32 -43t-11.5 -50q0 -32 16 -55.5t47 -29.5q0 39 41 39q45 0 45 -47q0 -50 -62 -50q-29 0 -54 10t-43 29t-28.5 46t-10.5 60q0 37 14.5 67.5t41 52.5t63.5 33.5t82 11.5h547z" />
    <glyph glyph-name="Gswash" unicode="&#xe006;" horiz-adv-x="864" 
d="M864 288q-93 0 -93 -81v-219h-29q-24 18 -43 32t-34 25q-36 -29 -86 -45t-104 -16q-69 0 -129 24t-104 72t-69.5 119t-25.5 166q0 46 11 88t30.5 78t46 66t57.5 53q-20 5 -42 8t-48 3q-45 0 -83.5 -13t-69 -32.5t-52.5 -42t-34 -41.5l-24 21q16 23 41.5 50.5t61 51t82 39
t105.5 15.5q37 0 68.5 -5.5t59.5 -15.5q28 12 64 20.5t96 8.5q42 0 77.5 -7t61.5 -21t40.5 -37t14.5 -54q0 -29 -26.5 -52t-83.5 -23q-40 0 -72.5 11t-61.5 26.5t-57 34t-59 33.5q-45 -43 -66 -109t-21 -154q0 -73 14.5 -134.5t44 -106.5t73.5 -70.5t103 -25.5q35 0 66 8
t54 26t36.5 46.5t13.5 69.5q0 110 -109 110v32h304v-32zM411 664q39 -17 69 -34.5t53.5 -32t42 -24t34.5 -9.5q41 0 41 40q0 32 -37.5 52t-97.5 20q-44 0 -66.5 -3.5t-38.5 -8.5z" />
    <glyph glyph-name="Hswash" unicode="&#xe007;" horiz-adv-x="984" 
d="M934 672q-98 0 -98 -93v-474q0 -73 98 -73v-32h-308v32q105 0 105 73v223q-19 16 -81 16h-190q-46 0 -77 -16v-223q0 -73 97 -73v-32h-312v32q109 0 109 73v474q0 93 -109 93q-32 0 -60 -11t-48.5 -30t-32 -43t-11.5 -50q0 -32 16 -55.5t47 -29.5q0 39 41 39q45 0 45 -47
q0 -50 -62 -50q-29 0 -54 10t-43 29t-28.5 46t-10.5 60q0 37 14.5 67.5t41 52.5t63.5 33.5t82 11.5h312v-33q-97 0 -97 -93v-182q31 -12 77 -12h190q61 0 81 12v182q0 93 -105 93v33h308v-33z" />
    <glyph glyph-name="Iswash" unicode="&#xe008;" horiz-adv-x="531" 
d="M476 672q-97 0 -97 -93v-474q0 -73 101 -73v-32h-308v32q101 0 101 73v474q0 93 -105 93q-32 0 -60 -11t-48.5 -30t-32 -43t-11.5 -50q0 -32 16 -55.5t47 -29.5q0 39 41 39q45 0 45 -47q0 -50 -62 -50q-29 0 -54 10t-43 29t-28.5 46t-10.5 60q0 37 14.5 67.5t41 52.5
t63.5 33.5t82 11.5h308v-33z" />
    <glyph glyph-name="Jswash" unicode="&#xe009;" horiz-adv-x="499" 
d="M472 672q-89 0 -89 -93v-514q0 -54 -11 -101t-35 -82t-62 -55.5t-91 -20.5q-28 0 -54 9t-46.5 25t-33 39t-12.5 52t16.5 51t44.5 22q49 0 49 -45q0 -44 -29 -44q-20 0 -28 8q4 -28 30.5 -46.5t62.5 -18.5q32 0 50.5 22t28 55t12 71t2.5 71v498q0 97 -109 97
q-32 0 -60 -11t-48.5 -30t-32 -43t-11.5 -50q0 -32 16 -55.5t47 -29.5q0 39 41 39q45 0 45 -47q0 -50 -62 -50q-29 0 -54 10t-43 29t-28.5 46t-10.5 60q0 37 14.5 67.5t41 52.5t63.5 33.5t82 11.5h304v-33z" />
    <glyph glyph-name="Kswash" unicode="&#xe00a;" horiz-adv-x="884" 
d="M869 672q-34 -4 -55.5 -10t-40 -17.5t-37.5 -30t-49 -47.5l-150 -146l243 -316q15 -16 27.5 -29.5t26.5 -23t31.5 -15t43.5 -5.5v-32h-291v32q60 0 60 17q0 12 -28 52l-190 247l-49 -44q-12 -11 -20.5 -25t-11.5 -32v-142q0 -73 105 -73v-32h-308v32q97 0 97 73v490
q0 77 -105 77q-32 0 -60 -11t-48.5 -30t-32 -43t-11.5 -50q0 -32 16 -55.5t47 -29.5q0 39 41 39q45 0 45 -47q0 -50 -62 -50q-29 0 -54 10t-43 29t-28.5 46t-10.5 60q0 37 14.5 67.5t41 52.5t63.5 33.5t82 11.5h304v-33q-93 0 -93 -77v-259l247 235q24 23 32 36.5t8 36.5
q0 28 -73 28v33h276v-33z" />
    <glyph glyph-name="Lswash" unicode="&#xe00b;" horiz-adv-x="744" 
d="M476 672q-97 0 -97 -81v-502q0 -44 69 -44h48q96 0 146 26q49 25 85 152l28 -4l-32 -219h-543v32q93 0 93 57v502q0 81 -105 81q-32 0 -60 -11t-48.5 -30t-32 -43t-11.5 -50q0 -32 16 -55.5t47 -29.5q0 39 41 39q45 0 45 -47q0 -50 -62 -50q-29 0 -54 10t-43 29t-28.5 46
t-10.5 60q0 37 14.5 67.5t41 52.5t63.5 33.5t82 11.5h308v-33z" />
    <glyph glyph-name="Mswash" unicode="&#xe00c;" horiz-adv-x="1263" 
d="M1204 672q-35 0 -55 -4.5t-30.5 -13t-13 -20.5t-2.5 -26v-491q12 -85 109 -85v-32h-300v32q94 0 94 78v494l-235 -604h-29l-243 595v-327q0 -107 -23.5 -192.5t-68 -145.5t-107 -92t-140.5 -32q-42 0 -77.5 11.5t-61 33t-40 52t-14.5 68.5q0 33 10.5 60t28.5 45.5
t43 28.5t54 10q62 0 62 -49q0 -48 -45 -48q-41 0 -41 40q-31 -6 -47 -30t-16 -55q0 -26 11 -50.5t31.5 -43t48.5 -30t61 -11.5q52 0 102 29t89.5 84.5t64 136t24.5 184.5v336q0 64 -99 64q-32 0 -60 -11t-48.5 -30t-32 -43t-11.5 -50q0 -32 16.5 -55.5t46.5 -29.5
q0 39 42 39q44 0 44 -47q0 -50 -61 -50q-29 0 -54 10t-43.5 29t-29 46t-10.5 60q0 37 14.5 67.5t41 52.5t63.5 33.5t82 11.5h219l215 -539l206 539h215v-33z" />
    <glyph glyph-name="Nswash" unicode="&#xe00d;" horiz-adv-x="1111" 
d="M1100 672q-98 0 -98 -117v-559l-28 -8l-470 599v-319q0 -107 -24.5 -192.5t-69.5 -145.5t-108.5 -92t-141.5 -32q-42 0 -77.5 11.5t-61 33t-40 52t-14.5 68.5q0 33 10.5 60t28.5 45.5t43 28.5t54 10q62 0 62 -49q0 -48 -45 -48q-41 0 -41 40q-31 -6 -47 -30t-16 -55
q0 -26 11 -50.5t31.5 -43t48.5 -30t61 -11.5q52 0 102 29t89.5 84.5t64 136t24.5 184.5v356q0 44 -106 44q-32 0 -60 -11t-48.5 -30t-32 -43t-11.5 -50q0 -32 16.5 -55.5t46.5 -29.5q0 39 42 39q44 0 44 -47q0 -50 -62 -50q-29 0 -54 10t-43 29t-28.5 46t-10.5 60
q0 37 14.5 67.5t41 52.5t63.5 33.5t82 11.5h195l417 -531v381q0 117 -109 117v33h255v-33z" />
    <glyph glyph-name="Oswash" unicode="&#xe00e;" horiz-adv-x="786" 
d="M376 680q-61 0 -103 -26.5t-67.5 -71.5t-37 -103.5t-11.5 -122.5q0 -70 14 -130.5t42.5 -105.5t73 -70.5t105.5 -25.5q59 0 102 25t70.5 68.5t41 103t13.5 127.5q0 64 -13 123.5t-42 106t-75.5 74.5t-112.5 28zM384 717q77 0 142.5 -27.5t113 -75.5t74 -114t26.5 -144
q0 -68 -25.5 -135t-72 -119.5t-112.5 -85t-146 -32.5q-76 0 -140 28.5t-110.5 78t-72.5 115.5t-26 142q0 70 25 136.5t70.5 118t110 83t143.5 31.5zM393 423q57 0 57 -60q0 -65 -61 -65q-57 0 -57 65q0 60 61 60z" />
    <glyph glyph-name="Pswash" unicode="&#xe00f;" horiz-adv-x="787" 
d="M346 705q34 0 54 0.5t35 1.5t31 1.5t42 0.5q239 0 239 -207q0 -40 -14.5 -75.5t-44.5 -61.5t-75.5 -41.5t-108.5 -15.5q-69 0 -129 12v-207q0 -81 105 -81v-32h-308v32q97 0 97 77v499q0 64 -101 64q-32 0 -60 -11t-48.5 -30t-32 -43t-11.5 -50q0 -32 16 -55.5t47 -29.5
q0 39 41 39q45 0 45 -47q0 -50 -62 -50q-29 0 -54 10t-43 29t-28.5 46t-10.5 60q0 37 14.5 67.5t41 52.5t63.5 33.5t82 11.5h178zM419 672q-44 0 -44 -56v-256q52 -12 129 -12q35 0 60.5 13t42 35t24 50.5t7.5 59.5q0 166 -190 166h-29z" />
    <glyph glyph-name="Qswash" unicode="&#xe010;" horiz-adv-x="779" 
d="M1028 -154q-14 28 -38.5 50.5t-56 38t-68 23.5t-75.5 8q-42 0 -81 -10t-74 -29q-45 -24 -72 -44.5t-50 -35.5t-50 -23.5t-73 -8.5q-27 0 -48.5 8.5t-36.5 22.5t-22.5 31t-7.5 34q0 57 35 80q-59 13 -109.5 46t-87.5 80.5t-57.5 106.5t-20.5 124q0 70 25 136.5t70.5 118
t110 83t143.5 31.5q77 0 142.5 -27.5t113 -75.5t74 -114t26.5 -144q0 -68 -25.5 -134.5t-72 -119.5t-112 -85.5t-144.5 -32.5q-30 -8 -41.5 -27t-11.5 -41q0 -26 14.5 -43t40.5 -17q24 0 43.5 13t42.5 33.5t54.5 46t79.5 49.5q30 15 65.5 23.5t73.5 8.5q47 0 95 -11.5
t89.5 -32.5t73 -51.5t45.5 -67.5zM376 680q-61 0 -103 -26.5t-67.5 -71.5t-37 -103.5t-11.5 -122.5q0 -70 14 -130.5t42.5 -105.5t73 -70.5t105.5 -25.5q59 0 102 25t70.5 68.5t41 103t13.5 127.5q0 64 -13 123.5t-42 106t-75.5 74.5t-112.5 28zM393 423q57 0 57 -60
q0 -65 -61 -65q-57 0 -57 65q0 60 61 60z" />
    <glyph glyph-name="Rswash" unicode="&#xe011;" horiz-adv-x="826" 
d="M840 93q0 -13 -6 -31t-18 -34.5t-29.5 -28t-39.5 -11.5q-35 0 -58.5 5.5t-39 16.5t-25.5 29t-18 42q-14 40 -27.5 86t-31.5 85.5t-42.5 65.5t-60.5 26h-33q-28 0 -32 -12v-231q0 -69 97 -69v-32h-300v32q93 0 93 69v503q0 68 -101 68q-32 0 -60 -11t-48.5 -30t-32 -43
t-11.5 -50q0 -32 16 -55.5t47 -29.5q0 39 41 39q45 0 45 -47q0 -50 -62 -50q-29 0 -54 10t-43 29t-28.5 46t-10.5 60q0 37 14.5 67.5t41 52.5t63.5 33.5t82 11.5h134q35 0 59.5 1t47 1.5t48 1.5t63.5 1q46 0 86.5 -13.5t69.5 -37t46 -55.5t17 -69t-13.5 -65.5t-38.5 -50
t-59 -36t-75 -23.5v-4q57 -24 87.5 -60.5t41.5 -70.5q7 -22 16.5 -51.5t21.5 -56.5t27 -45.5t33 -18.5q24 0 36 48zM418 664q-39 0 -39 -60v-203q4 -16 24 -16h57q32 0 62 4.5t53 19.5t37 43t14 75q0 40 -14.5 66.5t-37 42.5t-50.5 22t-54 6h-52z" />
    <glyph glyph-name="Sswash" unicode="&#xe012;" horiz-adv-x="835" 
d="M352 235q0 -47 18.5 -85.5t48 -66.5t66.5 -43.5t74 -15.5q21 0 48.5 7.5t52 23.5t41 40.5t16.5 58.5q0 42 -23 78.5t-74 51.5q-60 18 -113.5 36t-94 43.5t-64.5 63.5t-24 96q0 25 8.5 56.5t32.5 52.5q-36 26 -83.5 41t-96.5 15q-33 0 -64 -7.5t-54 -23.5t-37 -40.5
t-14 -57.5q0 -32 16 -55.5t47 -29.5q0 39 41 39q45 0 45 -47q0 -50 -62 -50q-29 0 -54 10t-43 29t-28.5 46t-10.5 60q0 47 20.5 80t54 54t77 30.5t89.5 9.5q60 0 115.5 -14t91.5 -41q23 21 69 34t97 13q28 0 54 -5t46.5 -16.5t32.5 -30t12 -44.5q0 -25 -9.5 -42t-26.5 -28
t-39.5 -16t-48.5 -5q-51 0 -103.5 17t-90.5 44q-3 -3 -7.5 -14t-4.5 -21q0 -38 27 -65.5t79 -50.5q43 -19 81 -33t70 -27.5t57.5 -29t43 -37t27 -52t9.5 -73.5q0 -40 -12 -78.5t-38 -68.5t-67 -48.5t-98 -18.5q-36 0 -63.5 5.5t-46 13t-29.5 14.5t-15 11q-39 -33 -81 -44
q-24 157 -24 251h36zM441 659q15 -14 36.5 -29.5t46 -29t48.5 -22.5t44 -9q23 0 37 14t14 50q0 18 -7.5 30.5t-20 21t-29 12.5t-33.5 4q-20 0 -40 -4t-38.5 -10t-33.5 -13.5t-24 -14.5z" />
    <glyph glyph-name="Tswash" unicode="&#xe013;" horiz-adv-x="701" 
d="M692 490l-29 -4q-12 170 -170 170q-53 0 -53 -36v-490q0 -98 114 -98v-32h-332v32q113 0 113 98v490q0 52 -82 52h-85q-32 0 -60 -11t-48.5 -30t-32 -43t-11.5 -50q0 -32 16 -55.5t47 -29.5q0 39 41 39q45 0 45 -47q0 -50 -62 -50q-29 0 -54 10t-43 29t-28.5 46t-10.5 60
q0 37 14.5 67.5t41 52.5t63.5 33.5t82 11.5h430q23 0 46 2t48 6v-223z" />
    <glyph glyph-name="Uswash" unicode="&#xe014;" horiz-adv-x="926" 
d="M917 672q-89 0 -89 -93v-324q0 -61 -10.5 -111t-42.5 -85.5t-91.5 -55t-158.5 -19.5q-63 0 -110.5 17t-80 48t-49 73.5t-16.5 92.5v380q0 77 -101 77q-32 0 -60 -11t-48.5 -30t-32 -43t-11.5 -50q0 -32 16 -55.5t47 -29.5q0 39 41 39q45 0 45 -47q0 -50 -62 -50
q-29 0 -54 10t-43 29t-28.5 46t-10.5 60q0 37 14.5 67.5t41 52.5t63.5 33.5t82 11.5h308v-33q-101 0 -101 -77v-352q0 -36 3.5 -73.5t22.5 -68t59 -50t113 -19.5q68 0 109 20.5t62.5 51.5t28.5 68.5t7 70.5v336q0 93 -110 93v33h247v-33z" />
    <glyph glyph-name="Vswash" unicode="&#xe015;" horiz-adv-x="878" 
d="M885 672h-32q-37 0 -57 -56l-255 -632l-37 8l-243 612q-32 68 -93 68q-32 0 -60 -11t-48.5 -30t-32 -43t-11.5 -50q0 -32 16 -55.5t47 -29.5q0 39 41 39q45 0 45 -47q0 -50 -62 -50q-29 0 -54 10t-43 29t-28.5 46t-10.5 60q0 37 14.5 67.5t41 52.5t63.5 33.5t82 11.5h288
v-33h-49q-36 0 -36 -20q0 -11 8 -48l178 -478l166 457q2 10 3 19.5t1 17.5q0 52 -97 52v33h255v-33z" />
    <glyph glyph-name="Wswash" unicode="&#xe016;" horiz-adv-x="1141" 
d="M1156 672q-66 0 -97 -105l-190 -579l-41 -4l-166 474l-150 -470l-40 -4l-223 620q-30 68 -81 68q-32 0 -60 -11t-48.5 -30t-32 -43t-11.5 -50q0 -32 16 -55.5t47 -29.5q0 39 41 39q45 0 45 -47q0 -50 -62 -50q-29 0 -54 10t-43 29t-28.5 46t-10.5 60q0 37 14.5 67.5
t41 52.5t63.5 33.5t82 11.5h267v-33q-46 0 -63.5 -9.5t-17.5 -28.5q0 -12 9 -30l153 -454l126 377l-41 109q-7 18 -25 27t-51 9v33h275v-33q-79 0 -79 -43q0 -2 0.5 -5t1.5 -8l154 -466l130 413q5 15 6.5 26.5t1.5 26.5q0 56 -89 56v33h230v-33z" />
    <glyph glyph-name="Xswash" unicode="&#xe017;" horiz-adv-x="1089" 
d="M1059 672q-69 0 -105 -40l-195 -243l231 -324q24 -33 93 -33v-32h-315v32q85 0 85 21q0 14 -21 44l-137 203l-63 -90q-25 -35 -56.5 -79t-68 -88.5t-78.5 -87t-88 -76t-95 -53.5t-100 -20q-36 0 -68.5 11.5t-57 33t-39 52t-14.5 68.5q0 33 10.5 60t28.5 45.5t43 28.5
t54 10q62 0 62 -49q0 -48 -45 -48q-41 0 -41 40q-31 -6 -47 -30t-16 -55q0 -26 11 -50.5t30 -43t43.5 -30t51.5 -11.5q38 0 79 21.5t82 56t81 78.5t76 88.5t67 86t54 70.5l79 101l-198 284q-35 48 -105 48q-33 0 -60.5 -11t-48 -30t-32 -43t-11.5 -50q0 -32 16 -55.5
t46 -29.5q0 39 42 39q45 0 45 -47q0 -50 -62 -50q-29 0 -54 10t-43.5 29t-29 46t-10.5 60q0 37 14.5 67.5t41 52.5t64 33.5t82.5 11.5h303v-33q-77 0 -77 -28q0 -12 13 -28l129 -191l126 174q8 26 8 33q0 40 -77 40v33h267v-33z" />
    <glyph glyph-name="Yswash" unicode="&#xe018;" horiz-adv-x="831" 
d="M857 672q-57 0 -85 -40l-199 -340v-215q0 -45 105 -45v-32h-324v32q110 0 110 49v207l-178 295q-50 89 -118 89q-32 0 -60 -11t-48.5 -30t-32 -43t-11.5 -50q0 -32 16 -55.5t47 -29.5q0 39 41 39q45 0 45 -47q0 -50 -62 -50q-29 0 -54 10t-43 29t-28.5 46t-10.5 60
q0 37 14.5 67.5t41 52.5t63.5 33.5t82 11.5h292v-33q-77 0 -77 -36q0 -8 4 -15.5t12 -21.5l150 -251l138 247q8 27 8 45q0 32 -85 32v33h247v-33z" />
    <glyph glyph-name="Zswash" unicode="&#xe019;" horiz-adv-x="606" 
d="M561 672l-395 -608q28 22 53.5 29t46.5 7q26 0 54 -5t56 -10.5t55 -10.5t53 -5t49 7.5t40 27.5l21 -26q-38 -56 -80 -74.5t-90 -18.5q-27 0 -56 4t-59 9.5t-60.5 9.5t-60.5 4t-61 -6t-61 -22l-24 31l394 609q-27 -23 -48 -30t-43 -7q-27 0 -52.5 5t-50.5 11t-50 11t-50 5
q-27 0 -47.5 -7.5t-37.5 -28.5l-22 27q39 55 79 74t88 19q27 0 53 -4.5t52.5 -9.5t54 -9.5t57.5 -4.5q31 0 59 6t59 23z" />
    <glyph glyph-name="bswash" unicode="&#xe01a;" horiz-adv-x="523" 
d="M151 369q52 85 138 85q42 0 78.5 -17t63 -46.5t41.5 -69.5t15 -86q0 -52 -15.5 -97t-43 -78.5t-66.5 -52.5t-86 -19q-98 0 -153 57q-9 -26 -49 -57l-24 8q12 64 12 158v362q0 69 26 130q-146 86 -239 86q-51 0 -94.5 -12.5t-78 -32t-60 -42.5t-39.5 -43l-27 22
q19 23 48 50.5t69 51t93 39t121 15.5q121 0 256 -65q65 65 152 65q140 0 140 -115q0 -105 -121 -105q-73 0 -147 38q-7 -14 -8.5 -36t-1.5 -53v-140zM147 198q0 -25 4 -56t17.5 -58t39 -45.5t68.5 -18.5q31 0 54 15.5t38 40.5t22.5 57t7.5 65t-6 68t-21.5 64.5t-42 49
t-68.5 21.5q-38 0 -60 -17t-34 -42.5t-15.5 -55.5t-3.5 -55v-33zM189 670q36 -36 65 -54.5t53 -18.5q58 0 58 69q0 70 -76 70q-52 0 -100 -66z" />
    <glyph glyph-name="cswash" unicode="&#xe01b;" horiz-adv-x="570" 
d="M712 255q-11 -29 -42.5 -75.5t-81 -91t-116 -76.5t-147.5 -32q-141 0 -215.5 60t-74.5 189q0 42 14.5 82t43.5 72t73.5 51.5t103.5 19.5q25 0 50 -7.5t44.5 -21t31.5 -32.5t12 -41q0 -21 -17.5 -36.5t-39.5 -15.5q-44 0 -44 48q0 3 2 13.5t2 19.5q0 21 -20 30.5t-41 9.5
q-30 0 -52.5 -16t-36.5 -40t-21 -51t-7 -48q0 -64 14 -107t42.5 -69.5t72.5 -37.5t104 -11q40 0 77.5 14t71 36t61.5 49t49.5 52.5t36.5 46.5t22 32z" />
    <glyph glyph-name="dswash" unicode="&#xe01c;" horiz-adv-x="523" 
d="M440 130q0 -90 73 -94l-4 -28q-16 -4 -54.5 -8t-95.5 -12l-12 69q-44 -69 -137 -69q-40 0 -75.5 12t-62 38t-42 66.5t-15.5 98.5q0 54 16.5 99.5t46 79.5t70.5 53t90 19q33 0 63 -16.5t46 -32.5v111q0 76 27 130q-149 86 -239 86q-51 0 -94.5 -12.5t-78.5 -32
t-60.5 -42.5t-39.5 -43l-26 22q19 24 48 51t69.5 50.5t93.5 39t119 15.5q128 0 255 -70q70 70 153 70q141 0 141 -115q0 -105 -122 -105q-77 0 -140 48q-6 -21 -9.5 -45.5t-3.5 -53.5v-379zM230 413q-31 0 -54 -15.5t-38 -40.5t-22.5 -56t-7.5 -62q0 -37 7 -72.5t23 -63.5
t41.5 -45t62.5 -17q35 0 56.5 12t33 35.5t15.5 58t4 80.5q0 186 -121 186zM471 672q76 -75 121 -75q58 0 58 69q0 70 -76 70q-52 0 -103 -64z" />
    <glyph glyph-name="fswash" unicode="&#xe01d;" horiz-adv-x="309" 
d="M292 393h-94q-15 0 -16 -10v-298q0 -53 93 -53v-32h-251v32q69 0 69 53v294q-1 10 -12 10h-65v44h61q16 0 16 29v54q0 70 26 130q-75 45 -134 65.5t-104 20.5q-51 0 -94.5 -12.5t-78.5 -32t-60.5 -42.5t-39.5 -43l-26 22q19 24 48 51t69.5 50.5t93.5 39t119 15.5
q121 0 256 -65q68 65 152 65q141 0 141 -115q0 -105 -122 -105q-76 0 -147 38q-10 -26 -10 -89v-47q0 -29 16 -29l98 4zM221 670q70 -73 117 -73q58 0 58 69q0 70 -76 70q-53 0 -99 -66z" />
    <glyph glyph-name="gswash" unicode="&#xe01e;" horiz-adv-x="523" 
d="M465 446q-3 -34 -5.5 -60.5t-2.5 -45.5v-396q0 -74 -27 -129q146 -86 235 -86q41 0 80.5 9.5t75 26.5t65.5 40.5t52 52.5l26 -21q-61 -72 -140.5 -114t-189.5 -42q-128 0 -256 65q-65 -65 -152 -65q-141 0 -141 114q0 106 122 106q76 0 150 -39q11 33 11 89v98
q-25 -34 -61.5 -49.5t-76.5 -15.5q-58 0 -95.5 23t-59.5 56t-31 69t-9 62q0 47 13 92.5t39.5 81t67 57t95.5 21.5q58 0 92 -15t58 -42l40 57h25zM368 239q0 29 -5.5 60.5t-19 57.5t-36.5 43t-57 17q-58 0 -91.5 -44.5t-33.5 -141.5q0 -41 8.5 -75.5t25.5 -60t42.5 -40
t60.5 -14.5q106 0 106 133v65zM325 -210q-72 73 -117 73q-58 0 -58 -69t76 -69q52 0 99 65z" />
    <glyph glyph-name="hswash" unicode="&#xe01f;" horiz-adv-x="596" 
d="M488 77q0 -45 73 -45v-32h-227v32q69 0 69 45v162q0 150 -97 150q-110 0 -122 -110v-194q0 -53 77 -53v-32h-235v32q69 0 69 53v431q0 76 27 130q-149 86 -239 86q-51 0 -94.5 -12.5t-78.5 -32t-60.5 -42.5t-39.5 -43l-26 22q19 24 48 51t69.5 50.5t93.5 39t119 15.5
q121 0 256 -65q68 65 152 65q141 0 141 -115q0 -105 -122 -105q-76 0 -147 38q-10 -26 -10 -89v-144q33 42 71 63.5t83 21.5q38 0 66.5 -11t47 -29.5t27.5 -44t9 -53.5v-235zM223 670q70 -73 117 -73q58 0 58 69q0 70 -76 70q-53 0 -99 -66z" />
    <glyph glyph-name="jswash" unicode="&#xe020;" horiz-adv-x="238" 
d="M177 -56q0 -69 -26 -129q143 -86 235 -86q51 0 94.5 13t78.5 32.5t60 42t39 41.5l27 -21q-20 -24 -49 -51.5t-69.5 -50.5t-93 -38.5t-119.5 -15.5q-128 0 -256 65q-65 -65 -152 -65q-140 0 -140 114q0 106 121 106q76 0 151 -39q10 27 10 89v401q0 41 -81 41v28l170 37
v-514zM46 -210q-72 73 -118 73q-58 0 -58 -69t76 -69q52 0 100 65zM133 697q56 0 56 -61q0 -65 -60 -65q-57 0 -57 65q0 61 61 61z" />
    <glyph glyph-name="kswash" unicode="&#xe021;" horiz-adv-x="558" 
d="M533 405q-15 0 -40 -8t-62 -24q-32 -33 -58.5 -55t-46.5 -34l146 -199q20 -27 40 -40t37 -13h24v-32h-223v32q37 0 37 17l-118 170q-12 -8 -26 -16.5t-34 -16.5v-105q0 -49 77 -49v-32h-235v32q68 0 68 53v431q0 38 7 70.5t20 59.5q-146 86 -239 86q-51 0 -94.5 -12.5
t-78.5 -32t-60.5 -42.5t-39.5 -43l-26 22q18 23 46.5 50t69 50.5t93.5 39.5t121 16q121 0 256 -65q68 65 152 65q141 0 141 -115q0 -105 -121 -105q-76 0 -147 38q-10 -26 -10 -89v-274q20 12 46.5 32.5t50.5 42.5t40.5 42.5t16.5 32.5q0 20 -61 20v28h231v-28zM247 670
q73 -73 118 -73q57 0 57 69q0 70 -76 70q-53 0 -99 -66z" />
    <glyph glyph-name="lswash" unicode="&#xe022;" horiz-adv-x="309" 
d="M192 77q0 -45 81 -45v-32h-243v32q73 0 73 49v435q0 76 27 130q-149 86 -239 86q-51 0 -94.5 -12.5t-78.5 -32t-60.5 -42.5t-39.5 -43l-26 22q19 24 48 51t69.5 50.5t93.5 39t119 15.5q121 0 256 -65q68 65 152 65q141 0 141 -115q0 -105 -122 -105q-75 0 -146 38
q-11 -31 -11 -89v-432zM231 670q70 -73 117 -73q58 0 58 69q0 70 -76 70q-53 0 -99 -66z" />
    <glyph glyph-name="mswash" unicode="&#xe023;" horiz-adv-x="863" 
d="M760 23q0 -26 2 -56.5t9.5 -57t22.5 -44t41 -17.5q30 0 51 14.5t24 37.5q-6 -6 -22 -6q-23 0 -23 35q0 37 39 37q23 0 36 -18.5t13 -40.5q0 -23 -10 -41.5t-26.5 -32t-38 -20.5t-43.5 -7q-43 0 -73 16.5t-49.5 44.5t-28.5 66t-9 81v265q0 118 -89 118q-76 0 -105 -89
v-207q0 -69 69 -69v-32h-223v32q65 0 65 73v146q0 146 -89 146q-106 0 -106 -130v-178q0 -57 69 -57v-32h-218v32q60 0 60 53v271q0 33 -73 33v28l154 37q4 -4 4 -21v-64q8 16 22 31t33 27t42 19.5t49 7.5q19 0 40 -7t40 -19t32.5 -28.5t17.5 -34.5q10 19 26.5 35.5
t36.5 28.5t42 18.5t45 6.5q66 0 103.5 -40.5t37.5 -113.5v-277z" />
    <glyph glyph-name="nswash" unicode="&#xe024;" horiz-adv-x="598" 
d="M497 23q0 -26 1.5 -56.5t9 -57t22.5 -44t41 -17.5q30 0 51 14.5t24 37.5q-6 -6 -22 -6q-24 0 -24 35q0 37 40 37q22 0 35.5 -18.5t13.5 -40.5q0 -23 -10 -41.5t-26.5 -32t-38 -20.5t-43.5 -7q-42 0 -73 16t-51 44t-29.5 66t-9.5 82v237q0 146 -105 146q-106 0 -106 -130
v-190q0 -45 77 -45v-32h-226v32q60 0 60 49v271q0 37 -58 37h-15v28l154 37q4 -4 4 -21v-64q8 16 21.5 31t33 27t46 19.5t61.5 7.5q19 0 43.5 -8t46.5 -25.5t37 -45.5t15 -67v-285z" />
    <glyph glyph-name="oswash" unicode="&#xe025;" horiz-adv-x="506" 
d="M257 454q48 0 88.5 -18.5t69.5 -50t45 -73.5t16 -89q0 -56 -18.5 -101t-49 -76.5t-71 -48.5t-84.5 -17q-50 0 -91.5 18.5t-70.5 50t-45 73.5t-16 89q0 56 18 101t48.5 76.5t72 48.5t88.5 17zM253 417q-42 0 -67 -18.5t-38 -44.5t-16.5 -53.5t-3.5 -45.5q0 -35 4 -76.5
t17.5 -77.5t39 -60.5t68.5 -24.5q41 0 65.5 18.5t37 44t16 53.5t3.5 46q0 34 -4 76t-17.5 78t-38.5 60.5t-66 24.5zM305 223q0 -50 -50 -50q-46 0 -46 50q0 46 49 46q47 0 47 -46z" />
    <glyph glyph-name="pswash" unicode="&#xe026;" horiz-adv-x="530" 
d="M164 369q20 44 58.5 64.5t79.5 20.5q52 0 89 -23.5t60 -58t34 -73t11 -68.5q0 -45 -13.5 -87.5t-39 -75.5t-61 -54.5t-80.5 -25.5q-53 0 -83.5 12t-50.5 32l-4 -4q4 -7 4 -40v-44q0 -69 -26 -129q143 -86 235 -86q51 0 94.5 13t78.5 32.5t60 42t39 41.5l26 -21
q-19 -24 -48.5 -51.5t-70 -50.5t-93 -38.5t-118.5 -15.5q-128 0 -256 65q-65 -65 -152 -65q-141 0 -141 114q0 106 122 106q76 0 147 -39q10 27 10 89v385q0 49 -65 49v20l150 49q4 -7 4 -33v-52zM164 182q4 -32 10.5 -59t19.5 -47.5t35 -32t57 -11.5q33 0 56.5 15
t37.5 39.5t20.5 56t6.5 64.5t-8.5 66.5t-25.5 61t-43 45t-61 17.5q-39 0 -60.5 -20t-31 -47t-11.5 -53t-2 -38v-57zM36 -210q-70 73 -117 73q-58 0 -58 -69t76 -69q52 0 99 65z" />
    <glyph glyph-name="qswash" unicode="&#xe027;" horiz-adv-x="531" 
d="M465 446q-3 -34 -5.5 -60.5t-2.5 -45.5v-377q0 -26 2 -56.5t9.5 -57t22.5 -44.5t41 -18q29 0 50 15t25 37q-8 -6 -23 -6q-23 0 -23 35q0 37 39 37q23 0 36 -18.5t13 -40.5q0 -23 -10 -41.5t-26.5 -32t-37.5 -20.5t-43 -7q-45 0 -76.5 17.5t-51 46.5t-28 66.5t-8.5 77.5
v96q-25 -34 -61.5 -49.5t-76.5 -15.5q-58 0 -95.5 23t-59.5 56t-31 69t-9 62q0 47 13 92.5t39.5 81t67 57t95.5 21.5q58 0 92 -15t58 -42l40 57h25zM368 239q0 29 -5.5 60.5t-19 57.5t-36.5 43t-57 17q-58 0 -91.5 -44.5t-33.5 -141.5q0 -41 8.5 -75.5t25.5 -60t42.5 -40
t60.5 -14.5q106 0 106 133v65z" />
    <glyph glyph-name="rswash" unicode="&#xe028;" horiz-adv-x="475" 
d="M197 393l5 -4q39 94 100 133.5t133 39.5q42 0 69 -17t27 -53q0 -25 -12.5 -39.5t-36.5 -14.5q-45 0 -45 41q0 17 5.5 26.5t10.5 14.5q-50 0 -89 -16t-70 -47t-54.5 -77t-42.5 -105v-186q0 -57 81 -57v-32h-239v32q69 0 69 61v223q0 77 -73 77v28l162 33v-61z" />
    <glyph glyph-name="sswash" unicode="&#xe029;" horiz-adv-x="398" 
d="M317 312q-24 55 -53 82t-71 27q-32 0 -56.5 -16t-24.5 -53q0 -26 10.5 -53.5t35.5 -44.5q47 -33 86 -61.5t67 -60t43.5 -69.5t15.5 -90q0 -35 -14.5 -65.5t-38 -53t-54 -35.5t-63.5 -13q-85 0 -126.5 39t-41.5 97q0 62 50 62q48 0 48 -45q0 -41 -40 -41q6 -31 35 -48.5
t72 -17.5q20 0 39.5 7.5t34.5 23t24 38.5t9 53q0 34 -18.5 60.5t-46.5 50t-61 46.5t-61 50.5t-46.5 61t-18.5 77.5q0 57 34.5 95.5t110.5 38.5q23 0 42 -6t41 -19q9 6 19 11.5t22 9.5q20 -85 20 -138h-24z" />
    <glyph glyph-name="vswash" unicode="&#xe02a;" horiz-adv-x="420" 
d="M115 624q24 28 59.5 55.5t78.5 49.5t90.5 36t94.5 14q46 0 76 -15.5t51 -37.5q31 25 66.5 39.5t78.5 14.5q20 0 39 -7t34 -19.5t24 -29t9 -35.5q0 -35 -12.5 -60t-33 -41.5t-47.5 -24.5t-56 -8q-28 0 -48.5 5.5t-36 15t-27 22t-20.5 26.5q-47 -55 -85.5 -130t-71 -159
t-59.5 -173t-50 -172l-40 -6l-177 389q-10 15 -23 21.5t-34 6.5v32h227v-32q-65 0 -65 -28q0 -10 0.5 -14t3.5 -7l104 -259q13 69 37 145.5t55.5 152.5t69.5 146.5t79 126.5q-19 28 -45.5 48.5t-76.5 20.5q-37 0 -76 -13.5t-74.5 -34t-63.5 -43t-44 -40.5zM592 692
q11 -17 21 -34t20 -30t20.5 -21t24.5 -8t29 4.5t27 14t20 25t8 38.5q0 26 -15 40.5t-41 14.5q-33 0 -60.5 -11.5t-53.5 -32.5z" />
    <glyph glyph-name="wswash" unicode="&#xe02b;" horiz-adv-x="654" 
d="M349 624q24 28 59.5 55.5t78.5 49.5t90.5 36t94.5 14q46 0 76 -15.5t51 -37.5q30 25 66 39.5t79 14.5q20 0 39 -7t34 -19.5t24 -29t9 -35.5q0 -35 -12.5 -60t-33 -41.5t-47.5 -24.5t-56 -8q-28 0 -48.5 5.5t-36 15t-27 22t-20.5 26.5q-41 -59 -77.5 -132.5t-69.5 -156
t-62 -171.5t-55 -180l-28 -4l-113 271l-118 -267l-28 -4l-158 380q-17 41 -65 41v32h211v-32q-49 0 -49 -32q0 -1 8 -33l93 -231l89 195l-24 73q-16 28 -65 28v32h215v-32q-57 0 -57 -24q0 1 8 -45l85 -227q14 72 37.5 148t53.5 149.5t65.5 140.5t74.5 121
q-19 28 -45.5 48.5t-76.5 20.5q-38 0 -77 -13.5t-74 -34t-63.5 -43t-44.5 -40.5zM826 692q11 -17 21 -34t20 -30t20.5 -21t24.5 -8q10 0 24.5 3t27.5 12.5t22.5 26.5t9.5 45q0 26 -18 38t-38 12q-33 0 -60.5 -11.5t-53.5 -32.5z" />
    <glyph glyph-name="xswash" unicode="&#xe02c;" horiz-adv-x="498" 
d="M283 624q23 28 58.5 55.5t78.5 49.5t90.5 36t95.5 14q45 0 75 -15.5t51 -37.5q31 25 66.5 39.5t78.5 14.5q21 0 40.5 -6.5t34 -18.5t23 -28.5t8.5 -35.5q0 -35 -12.5 -61t-33 -42.5t-47.5 -24.5t-56 -8q-28 0 -48.5 5.5t-36 15t-27 22t-20.5 26.5q-35 -33 -83 -74
t-103 -89.5t-114 -103t-116 -114.5l138 -178q25 -33 73 -33v-32h-231v32q53 0 53 21q0 12 -16 28l-76 100l-84 -98q-6 -11 -6 -26q0 -25 56 -25v-32h-182v32q23 0 42 11t39 30l114 137l-126 167q-18 24 -65 24v32h223v-32q-49 0 -49 -20q0 4 8 -25l63 -82q60 67 119 124
t112.5 105t100 88t81.5 73q-19 28 -45.5 48.5t-76.5 20.5q-37 0 -76 -13.5t-74.5 -34t-63.5 -43t-44 -40.5zM759 692q11 -17 21 -34t20 -30t21 -21t25 -8q10 0 24.5 3.5t28 12.5t22.5 24.5t9 39.5q0 32 -18.5 44.5t-38.5 12.5q-33 0 -60.5 -11.5t-53.5 -32.5z" />
    <glyph glyph-name="yswash" unicode="&#xe02d;" horiz-adv-x="451" 
d="M466 401q-46 0 -61 -36l-136 -322q-38 -91 -66 -145t-54 -78q151 -91 244 -91q51 0 96 12.5t82 32t65 42t45 42.5l25 -21q-21 -23 -53 -50t-75.5 -50.5t-99 -39.5t-123.5 -16q-129 0 -248 74q-74 -74 -159 -74q-127 0 -127 95q0 125 123 125q92 0 174 -61q27 39 50 78.5
t43 85.5l-166 356q-20 41 -61 41v32h219v-32h-21q-40 0 -40 -24q1 -8 2 -18t6 -19l109 -235l85 219l6 30q1 5 1.5 9t0.5 6q0 32 -68 32v32h182v-32zM76 -221q-78 84 -131 84q-59 0 -59 -81q0 -57 68 -57q51 0 122 54z" />
    <glyph glyph-name="zswash" unicode="&#xe02e;" horiz-adv-x="411" 
d="M381 417l-238 -345q9 4 16.5 5t15.5 1q38 0 76.5 -9t70.5 -9q16 0 30.5 5t27.5 19l23 -25q-28 -38 -57 -51t-61 -13q-37 0 -75 8.5t-76 8.5q-20 0 -40 -4t-40 -15l-23 27l237 346q-13 -7 -34 -7q-36 0 -68 10t-62 10q-17 0 -29.5 -5.5t-24.5 -20.5l-23 27q27 37 55 50
t61 13q34 0 67.5 -8.5t71.5 -8.5q18 0 36.5 3.5t38.5 14.5z" />
    <glyph glyph-name="a_b" unicode="&#xe02f;" horiz-adv-x="1019" 
d="M647 369q55 85 138 85q42 0 78.5 -17t63 -46.5t41.5 -69.5t15 -86q0 -52 -15.5 -97t-43 -78.5t-66.5 -52.5t-85 -19q-25 0 -49.5 2.5t-46.5 10t-40 20.5t-30 33q-15 -15 -35 -28t-41.5 -22.5t-42.5 -14.5t-38 -5q-54 0 -92.5 18.5t-43.5 56.5q-65 -71 -169 -71
q-110 0 -110 105q0 126 264 174v41q0 105 -81 105q-18 0 -33 -1t-25.5 -6t-16.5 -17t-6 -33q8 -14 8 -32q0 -40 -53 -40q-40 0 -40 48q0 25 14.5 47t39 38.5t56 26.5t64.5 10q88 0 125 -33t37 -109v-231q0 -30 23.5 -43.5t52.5 -13.5q15 0 31.5 5t30.5 15.5t23 26t9 36.5
v480q0 85 -65 85v29l154 32v-364zM643 189q0 -18 3.5 -47t17 -56t39.5 -46.5t70 -19.5q31 0 54 15.5t38 40.5t22 57t7 65t-6 68t-21.5 64.5t-42 49t-67.5 21.5q-38 0 -60.5 -18t-34.5 -42.5t-15.5 -50t-3.5 -41.5v-60zM303 231q-33 -4 -64.5 -12t-57 -22t-41 -36.5
t-15.5 -55.5q0 -69 68 -69q31 0 51 9.5t32.5 25.5t18.5 35.5t8 39.5v85z" />
    <glyph glyph-name="c_t" unicode="&#xe030;" horiz-adv-x="756" 
d="M732 393h-134v-280q0 -12 1 -25t6 -23.5t15.5 -17t30.5 -6.5q31 0 55 21.5t30 54.5l24 -8q-6 -28 -15.5 -51t-25.5 -39.5t-39.5 -25.5t-56.5 -9q-52 0 -83 25t-31 80v304h-39l-7 32q14 3 29.5 11.5t28 22.5t21 33.5t8.5 45.5q0 42 -29.5 68.5t-77.5 26.5q-51 0 -78.5 -33
t-27.5 -85q0 -35 11 -55.5t24.5 -36t24.5 -31t11 -40.5q0 -21 -17.5 -36.5t-39.5 -15.5q-44 0 -44 48q0 3 2 13.5t2 19.5q0 21 -20 30.5t-41 9.5q-30 0 -52.5 -16.5t-36.5 -42.5t-21 -57.5t-7 -61.5q0 -42 8.5 -79t25.5 -64.5t44 -43t63 -15.5q72 0 114 64l28 -16
q-11 -29 -31 -49.5t-45 -34t-52.5 -19.5t-53.5 -6q-47 0 -84 17.5t-62.5 48.5t-39 72.5t-13.5 88.5q0 46 16 91t44 80.5t67 57t84 21.5q19 0 38.5 -4t38.5 -13q-19 37 -19 80q0 27 9 51.5t26.5 43t44 29t61.5 10.5q41 0 70 -12.5t47.5 -33.5t27 -49.5t8.5 -61.5v-64h86
q15 0 27 2.5t21 5.5v-48z" />
    <glyph glyph-name="e_b" unicode="&#xe031;" horiz-adv-x="949" 
d="M577 369q55 85 138 85q42 0 78.5 -17t63 -46.5t41.5 -69.5t15 -86q0 -52 -12.5 -97.5t-38.5 -79.5t-65 -54t-93 -20q-40 0 -71.5 11t-55.5 29t-40.5 40.5t-25.5 45.5q-32 -54 -89 -90t-135 -36q-68 0 -116.5 18t-80 51t-46 79.5t-14.5 103.5q0 44 14.5 83.5t41.5 69.5
t65.5 47.5t85.5 17.5q26 0 57.5 -8t60 -29.5t49.5 -58.5t27 -95q0 -17 -4 -24h-283q-20 0 -20 -16q0 -49 14 -83.5t40 -56.5t62.5 -32t81.5 -10q26 0 52.5 8.5t49.5 23t40 32.5t24 37v445q0 85 -65 85v29l154 32v-364zM573 198q0 -24 5 -55.5t20 -59.5t41 -47.5t68 -19.5
q30 0 52.5 16t36.5 42t21 58.5t7 65.5t-6 68.5t-21.5 65.5t-42 49.5t-67.5 19.5q-38 0 -60.5 -16.5t-34.5 -42t-15.5 -55.5t-3.5 -56v-33zM286 271q44 0 44 45q-4 42 -28 71.5t-69 29.5q-25 0 -45 -11t-34.5 -30t-22 -43t-7.5 -49q0 -13 24 -13h138z" />
    <glyph glyph-name="e_e" unicode="&#xe032;" horiz-adv-x="906" 
d="M583 239q-20 0 -20 -16q0 -38 10.5 -70.5t30 -56.5t47 -37.5t62.5 -13.5q46 0 77.5 22t56.5 55l24 -17q-57 -117 -186 -117q-138 0 -189 108q-35 -48 -87.5 -78t-118.5 -30q-59 0 -106.5 12.5t-82 41t-53 74t-18.5 110.5q0 52 14.5 94t41.5 72t65.5 46t85.5 16
q26 0 57.5 -8t60 -29.5t49.5 -58.5t27 -95q0 -17 -4 -24h-283q-20 0 -20 -16q0 -79 43 -128.5t135 -49.5q51 0 97 28t80 71q-4 15 -6.5 32t-2.5 35q0 47 14.5 91t41.5 77.5t65 54t85 20.5q26 0 57.5 -8t60 -29.5t50 -58.5t27.5 -95q0 -17 -4 -24h-284zM725 271q45 0 45 45
q-4 42 -28.5 71.5t-69.5 29.5q-24 0 -44.5 -11t-34.5 -30t-22 -43t-8 -49q0 -13 24 -13h138zM286 271q44 0 44 45q-4 42 -28 71.5t-69 29.5q-25 0 -45 -11t-34.5 -30t-22 -43t-7.5 -49q0 -13 24 -13h138z" />
    <glyph glyph-name="f_j" unicode="&#xe033;" horiz-adv-x="608" 
d="M554 8q0 -35 -12.5 -69.5t-34.5 -62.5t-52.5 -45t-66.5 -17q-69 0 -69 60q0 45 45 45q15 0 19.5 -9t6.5 -19.5t4.5 -19.5t13.5 -9q57 0 57 118v372q0 41 -70 41h-182q-17 0 -17 -12v-296q0 -53 94 -53v-32h-252v32q69 0 69 53v292q0 12 -12 12h-87v44h83q16 0 16 29
q0 70 19 121t53 84.5t80 49.5t99 16q21 0 49 -5.5t52.5 -20.5t41.5 -42.5t17 -70.5q0 -21 -14 -42.5t-40 -21.5q-23 0 -39 10t-16 30q0 4 0.5 11.5t3.5 15.5t9 15t17 11q-8 38 -36.5 52t-68.5 14q-37 0 -63 -17t-42.5 -43.5t-24.5 -57t-8 -57.5v-52q0 -29 17 -29h341v-425z
" />
    <glyph glyph-name="f_t" unicode="&#xe034;" horiz-adv-x="615" 
d="M591 393h-134v-280q0 -12 1 -25t6 -23.5t15.5 -17t30.5 -6.5q31 0 55 21.5t30 54.5l24 -8q-6 -28 -15.5 -51t-25.5 -39.5t-39.5 -25.5t-56.5 -9q-52 0 -83 25t-31 80v304h-156q-17 0 -17 -12v-296q0 -53 94 -53v-32h-252v32q69 0 69 53v292q0 12 -12 12h-86v44h82
q16 0 16 29q0 43 4 91t23 88t57 66t106 26q89 0 126 -23.5t37 -63.5q0 -19 -12.5 -30t-31.5 -11q-41 0 -41 33q0 17 9 25q-12 11 -31 19.5t-59 8.5q-51 0 -74.5 -51t-23.5 -151v-27q0 -29 17 -29h76q58 0 93 35t44 93l32 4v-132h85q16 0 28 2.5t21 5.5v-48z" />
    <glyph glyph-name="g_g" unicode="&#xe035;" horiz-adv-x="889" 
d="M513 415q-7 31 -25.5 46.5t-38.5 15.5q-26 0 -47 -22t-21 -70l1 -12q14 -17 21 -38t7 -39q0 -84 -47 -123t-155 -39q-8 0 -20 2t-29 6q-53 -5 -53 -43q0 -23 18.5 -32.5t60.5 -9.5h67q31 0 58.5 -7t48.5 -21.5t33 -37.5t12 -55q0 -61 -35.5 -95.5t-114.5 -34.5h-85
q-65 0 -106.5 23t-41.5 70q0 60 93 89q-68 17 -68 81q0 17 6.5 33t18 28.5t27 20t33.5 7.5q-81 43 -81 138q0 32 11.5 60.5t34.5 50.5t57 34.5t79 12.5q71 0 125 -45q-1 5 -1.5 9t-0.5 9q0 21 8 37t21 26.5t29.5 15.5t34.5 5q16 0 32.5 -5t29 -14.5t21 -24.5t9.5 -35
q40 22 101 22q70 0 126 -45q17 27 39.5 38t48.5 11q44 0 44 -38q0 -41 -34 -41q-22 0 -35 16q-23 -3 -39 -22q14 -17 21 -38t7 -39q0 -84 -47 -123t-155 -39q-8 0 -20 2t-29 6q-53 -5 -53 -43q0 -23 26 -32.5t69 -9.5h105q31 0 58 -7t47.5 -21.5t32 -37.5t11.5 -55
q0 -30 -13.5 -54t-37 -41t-56 -26t-71.5 -9h-93q-66 0 -101.5 22.5t-35.5 70.5q0 29 17.5 52t65.5 37q-35 8 -59.5 28t-24.5 53q0 17 6.5 33t18 28.5t27 20t33.5 7.5q-81 43 -81 138q0 65 46 111zM637 421q-93 0 -93 -113q0 -134 89 -134q97 0 97 101q0 146 -93 146z
M228 421q-93 0 -93 -113q0 -134 89 -134q97 0 97 101q0 146 -93 146zM595 -20q-35 -7 -48.5 -20.5t-13.5 -41.5q0 -80 114 -80h16q132 0 132 85q0 57 -126 57h-74zM171 -20q-35 -7 -54 -20.5t-19 -41.5q0 -80 117 -80h17q33 0 53.5 5t31.5 15.5t14.5 26.5t3.5 38
q0 57 -128 57h-36z" />
    <glyph glyph-name="g_i" unicode="&#xe036;" horiz-adv-x="759" 
d="M643 93q0 -61 81 -61v-32h-230v32q60 0 60 65v211q0 85 -65 85h-123q30 -37 37 -58t7 -39q0 -84 -47 -123t-155 -39q-8 0 -20 2t-29 6q-53 -5 -53 -43q0 -23 18.5 -32.5t60.5 -9.5h121q31 0 58 -7t47.5 -21.5t32 -37.5t11.5 -55q0 -30 -13.5 -54t-37 -41t-56.5 -26
t-72 -9h-107q-65 0 -106.5 23t-41.5 70q0 60 93 89q-68 17 -68 81q0 17 6.5 33t18 28.5t27 20t33.5 7.5q-81 43 -81 138q0 32 11.5 60.5t34.5 50.5t57 34.5t79 12.5q54 0 92 -21h319v-340zM228 421q-93 0 -93 -113q0 -134 89 -134q97 0 97 101q0 146 -93 146zM171 -20
q-35 -7 -54 -20.5t-19 -41.5q0 -39 33.5 -59.5t91.5 -20.5h31q132 0 132 85q0 57 -126 57h-89zM594 697q57 0 57 -61q0 -65 -61 -65q-56 0 -56 65q0 61 60 61z" />
    <glyph glyph-name="g_m" unicode="&#xe037;" horiz-adv-x="1280" 
d="M1176 85q0 -53 68 -53v-32h-222v32q69 0 69 53v194q0 118 -90 118q-76 0 -105 -89v-207q0 -69 69 -69v-32h-223v32q65 0 65 73v146q0 146 -89 146q-105 0 -105 -130v-178q0 -57 68 -57v-32h-207v32q50 0 50 53v271q0 50 -73 50h-82q21 -23 31 -51t10 -59q0 -84 -47 -123
t-155 -39q-8 0 -20 2t-29 6q-53 -5 -53 -43q0 -23 18.5 -32.5t60.5 -9.5h121q31 0 58 -7t47.5 -21.5t32 -37.5t11.5 -55q0 -30 -13.5 -54t-37 -41t-56.5 -26t-72 -9h-107q-65 0 -106.5 23t-41.5 70q0 60 93 89q-68 17 -68 81q0 17 6.5 33t18 28.5t27 20t33.5 7.5
q-81 43 -81 138q0 32 11.5 60.5t34.5 50.5t57 34.5t79 12.5q30 0 52.5 -5.5t44.5 -14.5l280 -1v-64q8 16 22 31t32.5 27t41.5 19.5t49 7.5q19 0 40 -7t39.5 -19.5t32.5 -28.5t18 -34q10 19 26.5 35.5t36.5 28.5t42 18.5t45 6.5q66 0 104 -40.5t38 -113.5v-215zM228 421
q-93 0 -93 -113q0 -134 89 -134q97 0 97 101q0 146 -93 146zM171 -20q-35 -7 -54 -20.5t-19 -41.5q0 -39 33.5 -59.5t91.5 -20.5h31q132 0 132 85q0 57 -126 57h-89z" />
    <glyph glyph-name="g_n" unicode="&#xe038;" horiz-adv-x="1014" 
d="M909 73q0 -41 69 -41v-32h-227v32q69 0 69 45v174q0 146 -105 146t-105 -130v-190q0 -45 77 -45v-32h-207v32q40 0 40 49v271q0 53 -39 53h-111q20 -21 30 -49.5t10 -59.5q0 -84 -47 -123t-155 -39q-8 0 -20 2t-29 6q-53 -5 -53 -43q0 -23 18.5 -32.5t60.5 -9.5h121
q31 0 58 -7t47.5 -21.5t32 -37.5t11.5 -55q0 -30 -13.5 -54t-37 -41t-56.5 -26t-72 -9h-107q-65 0 -106.5 23t-41.5 70q0 60 93 89q-68 17 -68 81q0 17 6.5 33t18 28.5t27 20t33.5 7.5q-81 43 -81 138q0 32 11.5 60.5t34.5 50.5t57 34.5t79 12.5q58 0 99 -21h275v-64
q8 16 21 31t32.5 27t46.5 19.5t62 7.5q19 0 43 -8t46 -25.5t37 -45.5t15 -67v-235zM228 421q-93 0 -93 -113q0 -134 89 -134q97 0 97 101q0 146 -93 146zM171 -20q-35 -7 -54 -20.5t-19 -41.5q0 -39 33.5 -59.5t91.5 -20.5h31q132 0 132 85q0 57 -126 57h-89z" />
    <glyph glyph-name="g_r" unicode="&#xe039;" horiz-adv-x="838" 
d="M724 385q-32 0 -50.5 -20.5t-28.5 -49t-13.5 -59.5t-4.5 -53v-114q0 -57 81 -57v-32h-229v32q59 0 59 61v234q0 77 -57 77h-110q20 -21 29.5 -49.5t9.5 -58.5q0 -84 -47 -123t-155 -39q-8 0 -20 2t-29 6q-53 -5 -53 -43q0 -23 18.5 -32.5t60.5 -9.5h121q31 0 58 -7
t47.5 -21.5t32 -37.5t11.5 -55q0 -30 -13.5 -54t-37 -41t-56.5 -26t-72 -9h-107q-65 0 -106.5 23t-41.5 70q0 60 93 89q-68 17 -68 81q0 17 6.5 33t18 28.5t27 20t33.5 7.5q-81 43 -81 138q0 32 11.5 60.5t34.5 50.5t57 34.5t79 12.5q58 0 99 -21h296v-81l4 -4q3 13 14 31.5
t27.5 35t37 28t42.5 11.5q81 0 81 -73q0 -61 -48 -61q-45 0 -45 40q0 18 4 25h-20zM228 421q-93 0 -93 -113q0 -134 89 -134q97 0 97 101q0 146 -93 146zM171 -20q-35 -7 -54 -20.5t-19 -41.5q0 -39 33.5 -59.5t91.5 -20.5h31q132 0 132 85q0 57 -126 57h-89z" />
    <glyph glyph-name="g_t" unicode="&#xe03a;" horiz-adv-x="736" 
d="M578 433h85q16 0 28 2.5t21 5.5v-48h-134v-280q0 -12 1 -25t6 -23.5t15.5 -17t30.5 -6.5q30 0 54.5 21.5t30.5 54.5l24 -8q-6 -28 -15.5 -51t-25.5 -39.5t-39.5 -25.5t-57.5 -9q-51 0 -82 25t-31 80v304h-109q16 -20 23 -45.5t7 -51.5q0 -84 -47 -123t-155 -39
q-8 0 -20 2t-29 6q-53 -5 -53 -43q0 -23 18.5 -32.5t60.5 -9.5h121q31 0 58 -7t47.5 -21.5t32 -37.5t11.5 -55q0 -30 -13.5 -54t-37 -41t-56.5 -26t-72 -9h-107q-65 0 -106.5 23t-41.5 70q0 60 93 89q-68 17 -68 81q0 17 6.5 33t18 28.5t27 20t33.5 7.5q-81 43 -81 138
q0 32 11.5 60.5t34.5 50.5t57 34.5t79 12.5q58 0 99 -21h100q21 0 39 13t33 34.5t26 49.5t17 57l32 4v-158zM228 421q-93 0 -93 -113q0 -134 89 -134q97 0 97 101q0 146 -93 146zM171 -20q-35 -7 -54 -20.5t-19 -41.5q0 -39 33.5 -59.5t91.5 -20.5h31q132 0 132 85
q0 57 -126 57h-89z" />
    <glyph glyph-name="g_u" unicode="&#xe03b;" horiz-adv-x="963" 
d="M866 85q0 -36 73 -40l8 -29l-162 -20q-4 7 -4 28v41q-11 -18 -23.5 -32.5t-30 -24.5t-40.5 -15t-56 -5q-41 0 -69.5 7.5t-46.5 26t-26 50t-8 78.5v215q0 40 -69 40h-42q20 -21 30 -49.5t10 -59.5q0 -84 -47 -123t-155 -39q-8 0 -20 2t-29 6q-53 -5 -53 -43
q0 -23 18.5 -32.5t60.5 -9.5h121q31 0 58 -7t47.5 -21.5t32 -37.5t11.5 -55q0 -30 -13.5 -54t-37 -41t-56.5 -26t-72 -9h-107q-65 0 -106.5 23t-41.5 70q0 60 93 89q-68 17 -68 81q0 17 6.5 33t18 28.5t27 20t33.5 7.5q-81 43 -81 138q0 32 11.5 60.5t34.5 50.5t57 34.5
t79 12.5q58 0 99 -21h239v-263q0 -26 1.5 -49t9.5 -41t26.5 -28.5t51.5 -10.5q85 0 118 109v215q0 36 -77 36l-4 28l170 12v-356zM228 421q-93 0 -93 -113q0 -134 89 -134q97 0 97 101q0 146 -93 146zM171 -20q-35 -7 -54 -20.5t-19 -41.5q0 -39 33.5 -59.5t91.5 -20.5h31
q132 0 132 85q0 57 -126 57h-89z" />
    <glyph glyph-name="g_y" unicode="&#xe03c;" horiz-adv-x="899" 
d="M916 401q-44 0 -60 -36l-130 -324q-5 -11 -14 -31.5t-22 -46t-29.5 -52t-36.5 -48t-43 -35.5t-49 -14q-57 0 -57 52q0 53 40 53q19 0 25 -9t9 -19.5t6.5 -19.5t16.5 -9q8 0 20.5 13.5t26 34.5t25 46t17.5 48l-166 356q-17 41 -61 41h-60q18 -21 27 -48.5t9 -56.5
q0 -84 -47 -123t-155 -39q-8 0 -20 2t-29 6q-53 -5 -53 -43q0 -23 18.5 -32.5t60.5 -9.5h121q31 0 58 -7t47.5 -21.5t32 -37.5t11.5 -55q0 -30 -13.5 -54t-37 -41t-56.5 -26t-72 -9h-107q-65 0 -106.5 23t-41.5 70q0 60 93 89q-68 17 -68 81q0 17 6.5 33t18 28.5t27 20
t33.5 7.5q-81 43 -81 138q0 32 11.5 60.5t34.5 50.5t57 34.5t79 12.5q58 0 99 -21h322v-32h-20q-41 0 -41 -24q2 -7 3 -15t5 -22l110 -235l85 219l6 30q1 5 1.5 9t0.5 6q0 32 -69 32v32h182v-32zM228 421q-93 0 -93 -113q0 -134 89 -134q97 0 97 101q0 146 -93 146zM171 -20
q-35 -7 -54 -20.5t-19 -41.5q0 -39 33.5 -59.5t91.5 -20.5h31q132 0 132 85q0 57 -126 57h-89z" />
    <glyph glyph-name="o_o" unicode="&#xe03d;" horiz-adv-x="857" 
d="M429 368q32 42 78 64t101 22q48 0 88 -18.5t69 -50t45 -73.5t16 -89q0 -56 -18 -101t-49 -76.5t-71 -48.5t-84 -17q-58 0 -103 23t-75 63q-31 -42 -76 -64t-97 -22q-50 0 -91.5 18.5t-70.5 50t-45 73.5t-16 89q0 56 18 101t48.5 76.5t72 48.5t88.5 17q55 0 99 -24t73 -62
zM604 417q-43 0 -68 -18.5t-38 -44.5t-16.5 -53.5t-3.5 -45.5q0 -35 4 -76.5t17.5 -77.5t39 -60.5t69.5 -24.5q41 0 65 18.5t36.5 44t16 53.5t3.5 46q0 34 -4 76t-17.5 78t-38 60.5t-65.5 24.5zM253 417q-42 0 -67 -18.5t-38 -44.5t-16.5 -53.5t-3.5 -45.5q0 -35 4 -76.5
t17.5 -77.5t39 -60.5t68.5 -24.5q41 0 65.5 18.5t37 44t16 53.5t3.5 46q0 34 -4 76t-17.5 78t-38.5 60.5t-66 24.5z" />
    <glyph glyph-name="r_a" unicode="&#xe03e;" horiz-adv-x="839" 
d="M756 81q0 -40 37 -40q15 0 32 12l12 -8q-17 -57 -85 -57q-59 0 -77 69q-77 -69 -162 -69q-109 0 -109 105q0 126 263 174v41q0 66 -17.5 94t-60.5 28q-26 0 -53.5 -10t-48.5 -27q10 -13 10 -37q0 -20 -14 -35t-40 -15q-24 0 -37.5 14t-13.5 36q0 9 1 17t3 12
q-25 13 -57 13q-47 0 -75 -20.5t-42.5 -50t-19 -63.5t-5.5 -61v-114q0 -57 81 -57v-32h-239v32q69 0 69 61v223q0 77 -73 77v28l162 33v-102l5 -4q21 55 74 80.5t128 25.5q42 0 61 -19q30 14 67 21.5t76 7.5q69 0 108.5 -34t39.5 -118v-231zM671 231q-32 -4 -64 -12
t-57.5 -22t-41 -36.5t-15.5 -55.5q0 -69 69 -69q30 0 50.5 9.5t32.5 25.5t18 35.5t8 39.5v85z" />
    <glyph glyph-name="r_f" unicode="&#xe03f;" horiz-adv-x="594" 
d="M471 475q20 -4 45 -11.5t47.5 -19t37.5 -27t15 -36.5q0 -61 -49 -61q-44 0 -44 40q0 4 1 11.5t2.5 14.5t3 12.5t2.5 7.5q-13 11 -28.5 17.5t-32.5 10.5v-349q0 -53 93 -53v-32h-251v32q69 0 69 53v362q-56 -16 -92 -39t-56.5 -53t-28.5 -68t-8 -84v-114q0 -57 81 -57v-32
h-239v32q69 0 69 61v223q0 77 -73 77v28l162 33v-102l5 -4q6 23 20.5 45.5t37 40.5t53.5 30.5t69 15.5q1 56 11.5 102.5t33 80t58.5 52t87 18.5q85 0 85 -70q0 -20 -13.5 -33.5t-32.5 -13.5q-39 0 -39 31q0 17 8 25q-11 17 -32 17q-24 0 -39.5 -20t-23.5 -47.5t-11 -57.5
t-3 -50v-39z" />
    <glyph glyph-name="r_g" unicode="&#xe040;" horiz-adv-x="776" 
d="M197 352l5 -4q29 70 77.5 100.5t120.5 30.5q39 0 68 -7t60 -18q71 0 125 -45q17 27 40 38t48 11q45 0 45 -38q0 -41 -35 -41q-21 0 -34 16q-22 -3 -40 -22q15 -17 22 -38t7 -39q0 -83 -47.5 -122.5t-155.5 -39.5q-8 0 -48 8q-53 -5 -53 -43q0 -23 18 -32.5t61 -9.5h120
q31 0 58.5 -7t47.5 -21.5t31.5 -37.5t11.5 -55q0 -30 -13.5 -54t-37 -41t-56 -26t-71.5 -9h-107q-65 0 -106.5 23t-41.5 70q0 60 93 89q-69 16 -69 81q0 17 6.5 33t18 28.5t27 20t33.5 7.5q-81 43 -81 138q0 43 23.5 82.5t68.5 58.5q-10 3 -19.5 6.5t-19.5 3.5
q-47 0 -84 -24t-63 -60.5t-40 -79.5t-14 -80v-114q0 -57 81 -57v-32h-239v32q69 0 69 61v223q0 77 -73 77v28l162 33v-102zM524 421q-94 0 -94 -113q0 -134 89 -134q98 0 98 101q0 146 -93 146zM467 -20q-36 -7 -54.5 -20.5t-18.5 -41.5q0 -39 33 -59.5t91 -20.5h32
q131 0 131 85q0 57 -125 57h-89z" />
    <glyph glyph-name="r_t" unicode="&#xe041;" horiz-adv-x="643" 
d="M476 478q69 -5 110 -33.5t41 -63.5q0 -61 -49 -61q-44 0 -44 40q0 19 19 47q-16 16 -35.5 24.5t-41.5 13.5v-332q0 -12 1 -25t6 -23.5t15.5 -17t30.5 -6.5q30 0 54.5 21.5t30.5 54.5l24 -8q-6 -28 -16 -51t-26 -39.5t-39.5 -25.5t-56.5 -9q-52 0 -82.5 25t-30.5 80v349
q-54 -12 -90.5 -35.5t-58.5 -55t-31.5 -68.5t-9.5 -76v-114q0 -57 81 -57v-32h-239v32q69 0 69 61v223q0 77 -73 77v28l162 33v-102l5 -4q32 55 85 86.5t113 40.5q17 31 27.5 59t16.5 53l32 4v-113z" />
    <glyph glyph-name="r_y" unicode="&#xe042;" horiz-adv-x="836" 
d="M854 401q-17 0 -27.5 -2.5t-17 -7t-10 -11t-6.5 -15.5l-130 -324q-5 -11 -14 -31.5t-22 -46t-29.5 -52t-36.5 -48t-43 -35.5t-49 -14q-57 0 -57 52q0 53 41 53q18 0 24.5 -9t9 -19.5t6 -19.5t16.5 -9q8 0 21 13.5t26 34.5t24.5 46t17.5 48l-123 265q-17 36 -32.5 58.5
t-32 35t-35 17.5t-40.5 5q-51 0 -78.5 -16t-41 -42t-16 -58.5t-2.5 -65.5v-114q0 -57 81 -57v-32h-239v32q69 0 69 61v223q0 77 -73 77v28l162 33v-102l5 -4q3 13 12 31.5t28.5 35t52 28t83.5 11.5q34 0 61 -13t48.5 -34.5t39.5 -51t33 -62.5l87 -188l85 219l6 30q1 5 1.5 9
t0.5 6q0 32 -69 32v32h183v-32z" />
    <glyph glyph-name="t_a" unicode="&#xe043;" horiz-adv-x="833" 
d="M717 81q0 -40 36 -40q16 0 33 12l12 -8q-17 -57 -85 -57q-61 0 -77 69q-78 -69 -162 -69q-81 0 -102 57q-19 -30 -50 -45.5t-79 -15.5q-26 0 -56.5 6.5t-56.5 23.5t-43.5 46.5t-17.5 76.5v256h-69l4 32q24 4 44 18.5t35 36.5t26 49.5t17 57.5l32 4v-158h85q15 0 27 2.5
t22 5.5v-48h-134v-235q0 -32 10.5 -54t26.5 -36t36 -20.5t40 -6.5q27 0 54 13t40 38v1q0 126 263 174v41q0 105 -81 105q-18 0 -32.5 -1.5t-25.5 -7t-17 -17t-6 -31.5q8 -14 8 -32q0 -40 -53 -40q-40 0 -40 48q0 25 14.5 47t39 38.5t56 26.5t64.5 10q88 0 125 -33t37 -109
v-231zM632 231q-32 -4 -64 -12t-57.5 -22t-41 -36.5t-15.5 -55.5q0 -69 69 -69q30 0 50.5 9.5t32.5 25.5t18 35.5t8 39.5v85z" />
    <glyph glyph-name="t_f" unicode="&#xe044;" horiz-adv-x="636" 
d="M622 393h-93q-17 0 -17 -12v-296q0 -53 94 -53v-32h-252v32q69 0 69 53v292q0 12 -12 12h-253v-276q0 -12 1 -25t6 -23.5t15.5 -17t30.5 -6.5q30 0 54.5 21.5t30.5 54.5l24 -8q-6 -28 -16 -51t-26 -39.5t-39.5 -25.5t-56.5 -9q-52 0 -82.5 25t-30.5 80v304h-69l4 32
q24 4 44 18.5t35 36.5t26 49.5t17 57.5l32 4v-158h249q16 0 16 29q0 59 9.5 109t32 86t59 56t90.5 20q85 0 85 -70q0 -20 -14 -33.5t-33 -13.5q-38 0 -38 31q0 17 8 25q-11 17 -33 17q-24 0 -39 -20t-23.5 -47.5t-11.5 -57.5t-3 -50v-52q0 -29 17 -29l97 4z" />
    <glyph glyph-name="t_o" unicode="&#xe045;" horiz-adv-x="842" 
d="M158 433h85q15 0 27 2.5t22 5.5v-48h-134v-239q0 -28 8.5 -49t22.5 -35.5t32 -21.5t38 -7q15 0 34.5 5.5t37.5 15t31.5 23t17.5 29.5q-9 23 -14 46.5t-5 50.5q0 56 18 101t48.5 76.5t72 48.5t88.5 17q48 0 88.5 -18.5t69.5 -50t45 -73.5t16 -89q0 -56 -18.5 -101
t-49 -76.5t-71 -48.5t-84.5 -17q-64 0 -111.5 27.5t-76.5 75.5q-19 -46 -62 -72.5t-103 -26.5q-26 0 -54.5 7t-52.5 24t-39.5 47t-15.5 75v256h-69l4 32q24 4 44 18.5t35 36.5t26 49.5t17 57.5l32 4v-158zM584 417q-42 0 -67 -18.5t-38 -44.5t-16.5 -53.5t-3.5 -45.5
q0 -35 4 -76.5t17.5 -77.5t39 -60.5t68.5 -24.5q41 0 65.5 18.5t37 44t16 53.5t3.5 46q0 34 -4 76t-17.5 78t-38.5 60.5t-66 24.5z" />
    <glyph glyph-name="s_h" unicode="&#xe046;" horiz-adv-x="962" 
d="M549 365q33 42 71 63.5t83 21.5q38 0 66.5 -10.5t47 -29.5t27.5 -44t9 -54v-235q0 -45 73 -45v-32h-227v32q69 0 69 45v162q0 150 -97 150q-110 0 -122 -110v-194q0 -53 77 -53v-32h-235v32q69 0 69 53v301q-27 9 -58.5 15.5t-63 11t-61.5 6.5t-55 2q-71 0 -100 -16
t-29 -53q0 -16 13.5 -29t35.5 -25t49 -23.5t53.5 -23t49.5 -23.5t38 -25q24 -33 24 -73q0 -32 -11.5 -57t-31.5 -43.5t-47.5 -30t-58.5 -15.5q-54 0 -94 28q-24 -20 -64 -24q-9 38 -13 79.5t-4 86.5h29q12 -38 26 -64t31 -41.5t38 -22t47 -6.5q89 0 89 69q0 21 -7 35.5
t-21.5 25t-36 19t-49.5 17.5q-22 7 -47.5 18t-47.5 27.5t-36.5 38t-14.5 50.5q0 57 41 95.5t122 38.5q60 0 130.5 -6t134.5 -19v158q0 85 -65 85v29l154 32v-368z" />
    <glyph glyph-name="s_t" unicode="&#xe047;" horiz-adv-x="724" 
d="M700 393h-134v-280q0 -12 1 -25t6 -23.5t15.5 -17t30.5 -6.5q30 0 54.5 21.5t30.5 54.5l24 -8q-6 -28 -16 -51t-26 -39.5t-39.5 -25.5t-56.5 -9q-52 0 -82.5 25t-30.5 80v304h-69l4 32q52 5 77.5 29t25.5 82q0 48 -30 72.5t-78 24.5q-54 0 -77 -37t-23 -98q0 -43 5 -86
t16 -100h-24q-49 109 -130 109q-32 0 -56.5 -16t-24.5 -53q0 -16 13.5 -29t35.5 -25t49 -23.5t53.5 -23t49.5 -23.5t38 -25q24 -33 24 -73q0 -32 -11.5 -57t-31.5 -43.5t-47.5 -30t-58.5 -15.5q-54 0 -94 28q-24 -20 -64 -24q-9 38 -13 79.5t-4 86.5h29q12 -38 26 -64
t31 -41.5t38 -22t47 -6.5q89 0 89 69q0 21 -7 35.5t-21.5 25t-36 19t-49.5 17.5q-22 7 -47.5 18t-47.5 27.5t-36.5 38t-14.5 50.5q0 57 35 95.5t111 38.5q46 0 89 -25q-6 31 -6 61q0 33 8 62.5t25.5 52t45.5 36t69 13.5q43 0 72.5 -11.5t48.5 -33t27.5 -51t8.5 -65.5v-60h85
q15 0 27.5 2.5t21.5 5.5v-48z" />
    <glyph glyph-name="Asmall" unicode="&#xe048;" horiz-adv-x="478" 
d="M438 62q7 -17 20 -21t40 -9v-32h-213v32q21 2 42.5 6t21.5 10q0 3 -2 8.5t-4 11.5l-33 92q-4 16 -41 16h-110q-25 0 -29 -16l-26 -77q-3 -9 -3 -18q0 -30 65 -30v-35h-177v35q20 2 36 14t27 38l181 429l28 -11zM163 247q-8 -19 -8 -23q0 -7 23 -7h94q18 0 18 5q1 2 -2 8
t-8 17l-57 144z" />
    <glyph glyph-name="Bsmall" unicode="&#xe049;" horiz-adv-x="543" 
d="M255 465q-46 0 -46 -24v-142q0 -16 16 -16q49 0 79 5t46.5 16t21.5 28.5t5 41.5q0 91 -93 91h-29zM271 503q40 0 75 -6.5t60.5 -20.5t40 -37t14.5 -57q0 -48 -26 -72t-66 -40q57 -11 90 -41.5t33 -81.5q0 -42 -13.5 -70t-38 -45t-57.5 -24.5t-72 -7.5h-257v32q71 0 71 38
v354q0 47 -74 47v32h220zM225 244q-16 0 -16 -24v-160q0 -25 47 -25h33q49 0 81 23.5t32 80.5q0 33 -10.5 53.5t-30 32t-47.5 15.5t-63 4h-26z" />
    <glyph glyph-name="Csmall" unicode="&#xe04a;" horiz-adv-x="521" 
d="M446 329q-17 72 -57.5 108.5t-97.5 36.5q-39 0 -67 -17t-46 -45t-26.5 -64t-8.5 -74q0 -51 9 -95.5t28.5 -77t50 -51t74.5 -18.5q28 0 50 6t40.5 21t34.5 40t31 63l31 -12q-7 -41 -26 -71t-46 -50t-60.5 -30t-70.5 -10q-54 0 -98 19.5t-75 53.5t-48 80.5t-17 100.5
q0 59 19 108.5t51 85t75.5 55.5t92.5 20q55 0 106 -33q25 24 57 30q3 -3 7.5 -18t9 -39.5t8 -56t3.5 -66.5h-34z" />
    <glyph glyph-name="Dsmall" unicode="&#xe04b;" horiz-adv-x="605" 
d="M51 504q19 -2 36 -3t33 -1q26 0 46 1t39 2l38 2t43 1q132 0 200 -66.5t68 -187.5q0 -58 -17.5 -104.5t-55 -79.5t-95.5 -50.5t-140 -17.5h-192v32q22 0 35.5 2t21.5 8.5t11 19.5t3 34v309q0 25 -4 37t-13 17t-23 6.5t-34 6.5v32zM249 465q-24 0 -32 -6.5t-8 -34.5v-334
q0 -36 13 -44t47 -8h22q85 0 126.5 51t41.5 163q0 109 -46.5 161t-134.5 52h-29z" />
    <glyph glyph-name="Esmall" unicode="&#xe04c;" horiz-adv-x="515" 
d="M458 355l-33 -4q-7 40 -20 62.5t-31.5 33.5t-42.5 13.5t-52 2.5h-19q-51 0 -51 -30v-133q0 -17 11 -17h26q18 0 33 2t26.5 9.5t19 23.5t10.5 43h38v-202h-38q-3 27 -8.5 43.5t-16 25t-26 11t-38.5 2.5h-9q-28 0 -28 -20v-142q0 -37 53 -37h24q46 0 73.5 7t44.5 22t28 38
t23 55l29 -7l-21 -157h-406v32q68 0 68 44v337q0 58 -74 58v32h401z" />
    <glyph glyph-name="Fsmall" unicode="&#xe04d;" horiz-adv-x="463" 
d="M456 358l-36 -5q-7 39 -20 61t-32 33t-44 13.5t-56 2.5h-22q-40 0 -40 -27v-130q0 -23 37 -23h11q23 0 36.5 3.5t21.5 11.5t12 22.5t8 37.5h35v-199h-36v20q0 9 -2 20t-10.5 20.5t-25 15.5t-45.5 6h-33q-9 0 -9 -17v-137q0 -55 76 -55v-32h-225v32q65 0 65 55v323
q0 61 -71 61v32h393z" />
    <glyph glyph-name="Gsmall" unicode="&#xe04e;" horiz-adv-x="565" 
d="M466 329q-17 66 -57.5 107t-103.5 41q-44 0 -74.5 -19t-49 -50t-27 -71t-8.5 -83q0 -45 10 -85.5t29.5 -71.5t49.5 -49t70 -18q24 0 44.5 5.5t36 17.5t24.5 31t9 46q0 72 -76 72v32h222v-32q-65 0 -65 -52v-158h-25q-19 9 -32 20t-22 18q-26 -20 -60.5 -30.5t-71.5 -10.5
q-53 0 -96.5 19.5t-75 54t-49 81t-17.5 99.5q0 52 18 101t51 86.5t78 60.5t99 23q31 0 60 -10.5t57 -24.5q26 24 59 30q27 -66 27 -180h-34z" />
    <glyph glyph-name="Hsmall" unicode="&#xe04f;" horiz-adv-x="647" 
d="M596 471q-67 0 -67 -61v-331q0 -47 67 -47v-32h-224v32q73 0 73 47v154q-21 8 -52 8h-133q-28 0 -49 -9v-153q0 -47 68 -47v-32h-228v32q77 0 77 47v331q0 61 -77 61v32h228v-32q-68 0 -68 -61v-123q27 -8 49 -8h133q20 0 32 2t20 5v124q0 61 -73 61v32h224v-32z" />
    <glyph glyph-name="Ismall" unicode="&#xe050;" horiz-adv-x="330" 
d="M276 471q-67 0 -67 -61v-331q0 -47 70 -47v-32h-225v32q71 0 71 47v331q0 61 -74 61v32h225v-32z" />
    <glyph glyph-name="Jsmall" unicode="&#xe051;" horiz-adv-x="348" 
d="M321 471q-62 0 -62 -61v-232q0 -39 -8 -72.5t-25.5 -59t-45 -40t-66.5 -14.5q-20 0 -39 6.5t-34 18.5t-24 29t-9 38q0 22 12.5 39.5t35.5 17.5q38 0 38 -37q0 -36 -24 -36q-1 0 -4 0.5t-8 1.5q5 -14 20.5 -23t35.5 -9q21 0 33.5 15t18.5 37.5t7.5 48t1.5 47.5v222
q0 63 -77 63v32h223v-32z" />
    <glyph glyph-name="Ksmall" unicode="&#xe052;" horiz-adv-x="554" 
d="M551 472q-24 -3 -39.5 -7t-28.5 -12t-26.5 -21t-34.5 -33l-102 -100l168 -217q18 -23 36.5 -36.5t54.5 -13.5v-32h-213v32q42 0 42 7q-7 4 -8 12t-11 22l-130 169l-29 -27q-16 -15 -21 -38v-98q0 -47 73 -47v-32h-225v32q68 0 68 47v343q0 49 -74 49v32h222v-32
q-64 0 -64 -49v-170l164 156q12 11 19.5 22.5t7.5 25.5q0 15 -52 15v32h203v-31z" />
    <glyph glyph-name="Lsmall" unicode="&#xe053;" horiz-adv-x="462" 
d="M276 471q-67 0 -67 -52v-351q0 -26 42 -26h35q33 0 56.5 2t41.5 14t32 37t28 72l29 -5l-24 -162h-389v32q65 0 65 36v351q0 52 -74 52v32h225v-32z" />
    <glyph glyph-name="Msmall" unicode="&#xe054;" horiz-adv-x="699" 
d="M642 471q-23 0 -37 -3.5t-21.5 -9t-10 -13t-2.5 -15.5l9 -343q0 -55 68 -55v-32h-220v32q26 0 45.5 12.5t19.5 37.5l-5 317l-151 -399h-26l-162 397l-3 -304q-1 -30 16.5 -45.5t57.5 -15.5v-32h-189v32q68 0 71 66l5 342q0 7 -2 13t-9 10t-22 6t-40 2v32h161l147 -367
l141 367h159v-32z" />
    <glyph glyph-name="Nsmall" unicode="&#xe055;" horiz-adv-x="572" 
d="M561 471q-68 0 -68 -77v-396l-27 -7l-321 410v-286q0 -83 76 -83v-32h-189v32q63 0 63 83v330q0 26 -74 26v32h143l286 -362v253q0 77 -77 77v32h188v-32z" />
    <glyph glyph-name="Osmall" unicode="&#xe056;" horiz-adv-x="592" 
d="M287 477q-42 0 -70 -18.5t-45.5 -49t-25 -71t-7.5 -84.5q0 -48 9 -89t28.5 -72t49.5 -48.5t72 -17.5q40 0 69 17t48 47t28 70.5t9 87.5q0 44 -9 85t-28.5 73t-51 51t-76.5 19zM293 512q55 0 101.5 -19.5t80.5 -54t53 -82t19 -102.5q0 -48 -18 -95.5t-51.5 -85t-80.5 -61
t-104 -23.5q-54 0 -100 20t-79 55.5t-51.5 83t-18.5 101.5q0 50 18 97.5t50.5 84t78.5 59t102 22.5z" />
    <glyph glyph-name="Psmall" unicode="&#xe057;" horiz-adv-x="505" 
d="M180 503q24 0 37.5 0.5t24 1t21.5 1t31 0.5q172 0 172 -150q0 -29 -10.5 -54.5t-32 -44.5t-54.5 -30t-78 -11q-23 0 -44.5 1.5t-40.5 5.5v-139q0 -52 73 -52v-32h-225v32q68 0 68 50v348q0 41 -71 41v32h129zM232 471q-26 0 -26 -35v-175q18 -3 38.5 -5t46.5 -2
q46 0 67.5 31.5t21.5 73.5q0 112 -129 112h-19z" />
    <glyph glyph-name="Qsmall" unicode="&#xe058;" horiz-adv-x="600" 
d="M564 -38q-8 -29 -21 -46.5t-27.5 -26.5t-29.5 -11.5t-27 -2.5q-83 0 -123 114h-25q-83 0 -134 27.5t-79 67.5t-37.5 85t-9.5 80q0 54 19.5 102.5t54 84.5t81 57t99.5 21q55 0 101 -21t79 -56t51 -82t18 -98q0 -35 -8 -69.5t-26 -66.5t-47 -60t-71 -50q14 -34 40.5 -57.5
t49.5 -23.5q29 0 43 32h29zM305 474q-71 0 -115 -54t-44 -168q0 -106 43.5 -165.5t121.5 -59.5q39 0 67.5 17t47 47t27.5 70.5t9 87.5q0 39 -8.5 79t-27.5 72.5t-49 53t-72 20.5z" />
    <glyph glyph-name="Rsmall" unicode="&#xe059;" horiz-adv-x="517" 
d="M231 465q-22 0 -22 -38v-139q4 -9 11 -9h40q21 0 41 3t35.5 12.5t25.5 28.5t10 51q0 27 -10 44.5t-25 28t-33.5 14.5t-36.5 4h-36zM532 75q0 -11 -5 -25t-14 -27t-22.5 -22t-29.5 -9q-39 0 -62 18.5t-37 46t-22.5 60t-19 60t-27 46t-45.5 18.5h-22q-14 0 -17 -5v-160
q0 -44 67 -44v-32h-219v32q65 0 65 44v351q0 44 -71 44v32h98q36 0 73.5 2t80.5 2q33 0 62 -9.5t50.5 -27t33.5 -40.5t12 -50q0 -52 -34 -82t-91 -44q32 -15 54.5 -38.5t33.5 -63.5q4 -16 10 -34.5t13.5 -34t16.5 -26t20 -10.5t22 35z" />
    <glyph glyph-name="Ssmall" unicode="&#xe05a;" horiz-adv-x="445" 
d="M345 343q-14 60 -48.5 97t-83.5 37q-42 0 -65 -21.5t-23 -53.5q0 -23 14 -39.5t34 -28t43 -19.5t40 -14q33 -13 59.5 -26t45 -30t28.5 -41t10 -60q0 -29 -9 -56.5t-27.5 -49.5t-48 -35.5t-70.5 -13.5q-48 0 -73 10.5t-34 18.5q-14 -10 -29 -18t-32 -13q-18 115 -18 187
h35q0 -33 12.5 -60t33 -46.5t45.5 -30t49 -10.5q15 0 33 5t34 15.5t27 26.5t11 38q0 29 -18 50t-48 33q-41 16 -78.5 29t-66.5 31t-46 45t-17 71q0 33 11.5 59t31 45t46 29t55.5 10q32 0 52 -8.5t42 -21.5q11 8 24.5 14.5t28.5 11.5q22 -66 22 -167h-32z" />
    <glyph glyph-name="Tsmall" unicode="&#xe05b;" horiz-adv-x="446" 
d="M436 344l-29 -5q-9 121 -114 121q-33 0 -33 -22v-342q0 -64 80 -64v-32h-243v32q80 0 80 64v342q0 25 -32 25q-92 0 -122 -130l-31 8l21 168q37 -6 67 -6h286q32 0 70 6v-165z" />
    <glyph glyph-name="Usmall" unicode="&#xe05c;" horiz-adv-x="586" 
d="M578 471q-63 0 -63 -61v-227q0 -44 -7.5 -79.5t-30.5 -61t-66 -39.5t-113 -14q-90 0 -137 47t-47 119v267q0 49 -70 49v32h225v-32q-71 0 -71 -49v-247q0 -25 2.5 -50.5t15.5 -46t40 -33.5t76 -13q46 0 74 14t42.5 35t19 46t4.5 48v235q0 61 -77 61v32h183v-32z" />
    <glyph glyph-name="Vsmall" unicode="&#xe05d;" horiz-adv-x="485" 
d="M492 471h-27q-14 0 -21 -9t-15 -28l-180 -446l-32 7l-170 430q-10 24 -27 35t-39 11v32h210v-32h-38q-20 0 -20 -9q0 -13 5 -33l120 -321l111 307q3 12 3 23q0 33 -68 33v32h188v-32z" />
    <glyph glyph-name="Wsmall" unicode="&#xe05e;" horiz-adv-x="677" 
d="M693 471q-46 0 -68 -70l-135 -409l-35 -3l-114 320l-100 -317l-36 -3l-156 436q-9 24 -28 35t-30 11v32h196v-32q-56 0 -56 -18q0 -9 6 -24l103 -302l82 247l-28 75q-9 22 -54 22v32h203v-32q-55 0 -55 -25q0 -11 4 -18l100 -300l85 273q6 18 6 35q0 35 -63 35v32h173
v-32z" />
    <glyph glyph-name="Xsmall" unicode="&#xe05f;" horiz-adv-x="525" 
d="M502 471q-51 0 -75 -27l-133 -167l160 -223q8 -11 21.5 -16.5t43.5 -5.5v-32h-230v32q58 0 58 10q-10 5 -8.5 11.5t-4.5 16.5l-92 136l-95 -132q-5 -17 -5 -20q0 -22 66 -22v-32h-203v32q45 0 91 52l123 159l-137 195q-12 17 -31.5 24.5t-43.5 8.5v32h223v-32
q-54 0 -54 -15q0 -4 8 -18l86 -126l84 115q2 5 3.5 10t1.5 11q0 23 -54 23v32h197v-32z" />
    <glyph glyph-name="Ysmall" unicode="&#xe060;" horiz-adv-x="450" 
d="M475 471q-20 0 -36 -6t-24 -20l-139 -237v-149q0 -27 74 -27v-32h-237v32q77 0 77 30v143l-124 205q-37 61 -83 61v32h214v-32q-29 0 -41.5 -5.5t-12.5 -15.5q-1 -5 3.5 -12.5t12.5 -20.5l95 -158l89 158q5 8 6.5 17.5t1.5 18.5q0 18 -59 18v32h183v-32z" />
    <glyph glyph-name="Zsmall" unicode="&#xe061;" horiz-adv-x="426" 
d="M403 474l-272 -431q11 -3 21 -4t19 -1h57q37 0 64 14.5t45.5 35t29.5 42.5t17 37l31 -7l-21 -160h-367l-3 23l275 435q-14 2 -27.5 3.5t-26.5 1.5h-34q-23 0 -44 -2t-39 -12.5t-33 -33.5t-25 -64h-33l17 158q31 -6 60 -6h289v-29z" />
    <glyph glyph-name="zerooldstyle" unicode="&#xe062;" horiz-adv-x="529" 
d="M270 454q50 0 91 -18.5t70.5 -50t45.5 -72.5t16 -85q0 -45 -16.5 -88.5t-47 -78t-75 -56t-100.5 -21.5q-53 0 -94 18.5t-69 49.5t-42 72t-14 85q0 47 16.5 91.5t47 78.5t74 54.5t97.5 20.5zM242 405q-32 0 -54.5 -16t-36 -41t-19.5 -55.5t-6 -58.5q0 -94 34.5 -148
t109.5 -54q42 0 68 14t40.5 38t19.5 55t5 65q0 27 -6 62t-23.5 65.5t-49 52t-82.5 21.5z" />
    <glyph glyph-name="oneoldstyle" unicode="&#xe063;" horiz-adv-x="415" 
d="M380 401q-126 0 -126 -69v-231q0 -69 126 -69v-32h-345v32q126 0 126 69v231q0 69 -126 69v32h345v-32z" />
    <glyph glyph-name="twooldstyle" unicode="&#xe064;" horiz-adv-x="520" 
d="M445 0h-329q-22 0 -41 -1t-36 -3l-4 28q64 47 124 82.5t105.5 67t73 62t27.5 67.5q0 48 -34.5 71t-100.5 23q-61 0 -91.5 -17t-30.5 -46q37 -12 37 -40q0 -52 -45 -52q-44 0 -44 69q0 30 13.5 56t40.5 45.5t67 30.5t93 11q97 0 144.5 -37.5t47.5 -100.5
q0 -42 -19.5 -74.5t-55.5 -59.5t-86.5 -50t-111.5 -47h138q28 0 48.5 3t35 12.5t25.5 27t21 46.5l28 -4z" />
    <glyph glyph-name="threeoldstyle" unicode="&#xe065;" horiz-adv-x="489" 
d="M295 156q159 -17 159 -173q0 -35 -16.5 -67.5t-49 -57t-81.5 -39t-115 -14.5q-167 0 -167 105q0 52 53 52q37 0 37 -35q0 -30 -21 -37q3 -39 70 -39q94 0 138.5 34t44.5 95q0 70 -29 102t-89 32h-53q-12 0 -12 17q0 21 12 21q38 0 66.5 11.5t47 31t28 45t9.5 54.5
q0 60 -25 84.5t-77 24.5q-98 0 -98 -46q20 -11 20 -34q0 -47 -43 -47q-42 0 -42 45q0 133 191 133q83 0 123.5 -41.5t40.5 -105.5q0 -63 -29.5 -94.5t-92.5 -47.5v-9z" />
    <glyph glyph-name="fouroldstyle" unicode="&#xe066;" horiz-adv-x="521" 
d="M399 474q-12 -41 -12 -85v-300q0 -20 16 -20h41q22 0 52 8v-77h-93q-16 0 -16 -20v-174h-89v174q0 20 -21 20h-255v41l341 437zM95 69h182q21 0 21 20v238z" />
    <glyph glyph-name="fiveoldstyle" unicode="&#xe067;" horiz-adv-x="493" 
d="M449 478q-50 -126 -179 -126q-61 0 -110 12l-35 -154q49 28 110 28q223 0 223 -197q0 -235 -268 -235q-162 0 -162 89q0 40 33 40q32 0 32 -32q0 -16 -16 -29q24 -28 97 -28q182 0 182 195q0 140 -149 140q-73 0 -110 -52l-36 16l59 309q43 -6 83.5 -9.5t79.5 -3.5
q110 0 153 37h13z" />
    <glyph glyph-name="sixoldstyle" unicode="&#xe068;" horiz-adv-x="525" 
d="M385 659q-21 9 -46 9q-29 0 -64.5 -17t-66 -53.5t-51 -93t-20.5 -135.5q10 26 26.5 42.5t38.5 26t48.5 13t56.5 3.5q82 0 132 -55t50 -164q0 -121 -53 -186t-162 -65q-59 0 -104 17.5t-75 50.5t-45 79.5t-15 103.5q0 115 22.5 205t63.5 151.5t100 93.5t132 32
q92 0 92 -68q0 -42 -38 -42q-31 0 -31 27q0 16 9 25zM261 413q-32 0 -55 -17t-38.5 -45t-23 -64t-7.5 -74q0 -39 8.5 -72.5t25.5 -58.5t42.5 -39.5t60.5 -14.5q30 0 53 14.5t38.5 39.5t23 58.5t7.5 71.5q0 103 -36 152t-99 49z" />
    <glyph glyph-name="sevenoldstyle" unicode="&#xe069;" horiz-adv-x="444" 
d="M444 389q-38 -62 -70 -120t-56 -119.5t-37.5 -129t-13.5 -146.5q0 -68 -60 -68q-61 0 -61 60q0 42 11.5 87.5t30.5 90.5t43.5 88.5t50 82t50 70.5t43.5 54q0 9 -11 9h-245q-42 0 -72 -97l-25 12l25 174q21 -3 46 -3.5t59 -0.5h292v-44z" />
    <glyph glyph-name="eightoldstyle" unicode="&#xe06a;" horiz-adv-x="531" 
d="M345 398q66 -29 108 -79t42 -124q0 -53 -17.5 -92.5t-49 -65.5t-74.5 -39.5t-93 -13.5q-45 0 -86 12t-72 36t-49.5 59.5t-18.5 82.5q0 34 11 61.5t30 49t44 38t53 28.5q-24 16 -44.5 33t-35.5 37.5t-23.5 47t-8.5 61.5q0 88 54.5 137.5t157.5 49.5q35 0 69.5 -10.5
t62 -30.5t44.5 -49.5t17 -67.5q0 -30 -10.5 -54t-27.5 -43.5t-39 -35t-44 -28.5zM228 330q-59 -12 -88.5 -57.5t-29.5 -102.5q0 -33 12.5 -61.5t34.5 -48.5t51 -31.5t61 -11.5q28 0 55.5 10t48.5 28t34 43t13 55q0 42 -19 69.5t-47.5 46.5t-62 32.5t-63.5 28.5zM307 415
q48 26 68 59.5t20 76.5q0 58 -36.5 90.5t-93.5 32.5q-26 0 -48.5 -6.5t-39.5 -20t-27 -33.5t-10 -47q0 -35 15 -60.5t39 -44t54 -30t59 -17.5z" />
    <glyph glyph-name="nineoldstyle" unicode="&#xe06b;" horiz-adv-x="532" 
d="M395 95q-14 -21 -30 -36.5t-36 -25.5t-45.5 -14.5t-58.5 -4.5q-38 0 -72.5 12t-60.5 37t-41.5 62.5t-15.5 87.5q0 111 57.5 176t164.5 65q59 0 104 -13t75 -42.5t45 -76.5t15 -115q0 -81 -18 -153.5t-56 -128t-96 -88t-139 -32.5q-100 0 -100 72q0 39 39 39q30 0 30 -26
q0 -18 -11 -32q22 -9 47 -9q42 0 78.5 20.5t64.5 55t44 78.5t16 92zM257 412q-61 0 -91.5 -47.5t-30.5 -135.5t33.5 -123t100.5 -35q27 0 50 14t39.5 39t26 57.5t9.5 70.5q0 70 -33.5 115t-103.5 45z" />
    <glyph glyph-name="Asmallgrave" unicode="&#xe06c;" horiz-adv-x="478" 
d="M438 62q7 -17 20 -21t40 -9v-32h-213v32q21 2 42.5 6t21.5 10q0 3 -2 8.5t-4 11.5l-33 92q-4 16 -41 16h-110q-25 0 -29 -16l-26 -77q-3 -9 -3 -18q0 -30 65 -30v-35h-177v35q20 2 36 14t27 38l181 429l28 -11zM163 247q-8 -19 -8 -23q0 -7 23 -7h94q18 0 18 5q1 2 -2 8
t-8 17l-57 144zM327 512q-25 13 -57.5 25t-61.5 24t-49 25.5t-20 29.5q0 11 6.5 23t27.5 12q16 -4 35.5 -18t40.5 -32t43.5 -37.5t45.5 -33.5z" />
    <glyph glyph-name="Asmallacute" unicode="&#xe06d;" horiz-adv-x="478" 
d="M438 62q7 -17 20 -21t40 -9v-32h-213v32q21 2 42.5 6t21.5 10q0 3 -2 8.5t-4 11.5l-33 92q-4 16 -41 16h-110q-25 0 -29 -16l-26 -77q-3 -9 -3 -18q0 -30 65 -30v-35h-177v35q20 2 36 14t27 38l181 429l28 -11zM163 247q-8 -19 -8 -23q0 -7 23 -7h94q18 0 18 5q1 2 -2 8
t-8 17l-57 144zM139 530q32 21 62 45.5t57 48.5q10 9 21 18t25 9q21 0 27.5 -12t6.5 -23q0 -15 -20 -28.5t-49.5 -26.5t-62 -25t-56.5 -24z" />
    <glyph glyph-name="Asmallcircumflex" unicode="&#xe06e;" horiz-adv-x="478" 
d="M438 62q7 -17 20 -21t40 -9v-32h-213v32q21 2 42.5 6t21.5 10q0 3 -2 8.5t-4 11.5l-33 92q-4 16 -41 16h-110q-25 0 -29 -16l-26 -77q-3 -9 -3 -18q0 -30 65 -30v-35h-177v35q20 2 36 14t27 38l181 429l28 -11zM163 247q-8 -19 -8 -23q0 -7 23 -7h94q18 0 18 5q1 2 -2 8
t-8 17l-57 144zM343 523l-103 58l-106 -58l-13 12l119 116l117 -116z" />
    <glyph glyph-name="Asmalldieresis" unicode="&#xe06f;" horiz-adv-x="478" 
d="M438 62q7 -17 20 -21t40 -9v-32h-213v32q21 2 42.5 6t21.5 10q0 3 -2 8.5t-4 11.5l-33 92q-4 16 -41 16h-110q-25 0 -29 -16l-26 -77q-3 -9 -3 -18q0 -30 65 -30v-35h-177v35q20 2 36 14t27 38l181 429l28 -11zM163 247q-8 -19 -8 -23q0 -7 23 -7h94q18 0 18 5q1 2 -2 8
t-8 17l-57 144zM342 645q46 0 46 -47t-46 -47q-50 0 -50 47t50 47zM186 598q0 -47 -47 -47q-50 0 -50 47t50 47q47 0 47 -47z" />
    <glyph glyph-name="Asmalltilde" unicode="&#xe070;" horiz-adv-x="478" 
d="M438 62q7 -17 20 -21t40 -9v-32h-213v32q21 2 42.5 6t21.5 10q0 3 -2 8.5t-4 11.5l-33 92q-4 16 -41 16h-110q-25 0 -29 -16l-26 -77q-3 -9 -3 -18q0 -30 65 -30v-35h-177v35q20 2 36 14t27 38l181 429l28 -11zM163 247q-8 -19 -8 -23q0 -7 23 -7h94q18 0 18 5q1 2 -2 8
t-8 17l-57 144zM393 634q-9 -37 -35 -60.5t-61 -23.5q-20 0 -35.5 8.5t-30.5 19t-30 19.5t-32 9q-20 0 -36.5 -14.5t-28.5 -37.5l-20 12q10 38 38 61.5t56 23.5t44.5 -8.5t28.5 -19t24 -19t32 -8.5q19 0 35.5 11.5t30.5 41.5z" />
    <glyph glyph-name="Asmallring" unicode="&#xe071;" horiz-adv-x="478" 
d="M438 62q7 -17 20 -21t40 -9v-32h-213v32q21 2 42.5 6t21.5 10q0 3 -2 8.5t-4 11.5l-33 92q-4 16 -41 16h-110q-25 0 -29 -16l-26 -77q-3 -9 -3 -18q0 -30 65 -30v-35h-177v35q20 2 36 14t27 38l160 380q-42 8 -67.5 38.5t-25.5 68.5q0 22 9 41.5t25 34t37.5 23t47.5 8.5
q25 0 47 -8.5t38 -23t25.5 -34t9.5 -41.5q0 -36 -23.5 -64.5t-59.5 -39.5zM163 247q-8 -21 -8 -23q0 -7 23 -7h94q18 0 18 5q1 2 -2 8t-8 17l-57 144zM310 574q0 28 -21 47t-51 19q-32 0 -52.5 -19t-20.5 -47q0 -32 20.5 -50t52.5 -18q30 0 51 18t21 50z" />
    <glyph glyph-name="AEsmall" unicode="&#xe072;" horiz-adv-x="667" 
d="M627 355l-33 -4q-7 40 -20 62.5t-31 33.5t-42 13.5t-52 2.5h-20q-51 0 -51 -30v-133q0 -17 11 -17h26q18 0 33 2t26.5 9.5t19 23.5t10.5 43h38v-202h-38q-3 27 -8.5 43.5t-16 25t-26 11t-38.5 2.5h-9q-28 0 -28 -20v-142q0 -37 53 -37h24q46 0 73.5 7t44.5 22t28 38
t23 55l29 -7l-21 -157h-406v32q68 0 68 44v88q-5 12 -18 12h-117q-25 0 -29 -16l-26 -77q-3 -9 -3 -18q0 -30 65 -30v-35h-177v35q20 2 36 14.5t27 37.5l179 416h390zM254 455l-91 -208q-8 -17 -8 -23q0 -7 23 -7h98q18 0 18 5v191q0 13 -3 27.5t-14 14.5h-23z" />
    <glyph glyph-name="Csmallcedilla" unicode="&#xe073;" horiz-adv-x="521" 
d="M446 329q-17 72 -57.5 108.5t-97.5 36.5q-39 0 -67 -17t-46 -45t-26.5 -64t-8.5 -74q0 -51 9 -95.5t28.5 -77t50 -51t74.5 -18.5q28 0 50 6t40.5 21t34.5 40t31 63l31 -12q-7 -39 -25 -68t-43.5 -49.5t-57.5 -31t-66 -11.5v-34q24 0 41 -6t27 -15.5t14.5 -22t4.5 -24.5
q0 -17 -9 -31t-25 -23.5t-36.5 -15t-43.5 -5.5v21q37 3 53 18t16 36q0 16 -6.5 26t-17 15t-22.5 6.5t-23 1.5v53q-51 3 -92 23t-70 53.5t-44.5 78.5t-15.5 98q0 59 19 108.5t51 85t75.5 55.5t92.5 20q55 0 106 -33q25 24 57 30q3 -3 7.5 -18t9 -39.5t8 -56t3.5 -66.5h-34z
" />
    <glyph glyph-name="Esmallgrave" unicode="&#xe074;" horiz-adv-x="515" 
d="M458 355l-33 -4q-7 40 -20 62.5t-31.5 33.5t-42.5 13.5t-52 2.5h-19q-51 0 -51 -30v-133q0 -17 11 -17h26q18 0 33 2t26.5 9.5t19 23.5t10.5 43h38v-202h-38q-3 27 -8.5 43.5t-16 25t-26 11t-38.5 2.5h-9q-28 0 -28 -20v-142q0 -37 53 -37h24q46 0 73.5 7t44.5 22t28 38
t23 55l29 -7l-21 -157h-406v32q68 0 68 44v337q0 58 -74 58v32h401zM346 512q-25 13 -57.5 25t-61.5 24t-49 25.5t-20 29.5q0 11 6.5 23t27.5 12q16 -4 35.5 -18t40.5 -32t43.5 -37.5t45.5 -33.5z" />
    <glyph glyph-name="Esmallacute" unicode="&#xe075;" horiz-adv-x="515" 
d="M458 355l-33 -4q-7 40 -20 62.5t-31.5 33.5t-42.5 13.5t-52 2.5h-19q-51 0 -51 -30v-133q0 -17 11 -17h26q18 0 33 2t26.5 9.5t19 23.5t10.5 43h38v-202h-38q-3 27 -8.5 43.5t-16 25t-26 11t-38.5 2.5h-9q-28 0 -28 -20v-142q0 -37 53 -37h24q46 0 73.5 7t44.5 22t28 38
t23 55l29 -7l-21 -157h-406v32q68 0 68 44v337q0 58 -74 58v32h401zM158 530q32 21 62 45.5t57 48.5q10 9 21 18t25 9q21 0 27.5 -12t6.5 -23q0 -15 -20 -28.5t-49.5 -26.5t-62 -25t-56.5 -24z" />
    <glyph glyph-name="Esmallcircumflex" unicode="&#xe076;" horiz-adv-x="515" 
d="M458 355l-33 -4q-7 40 -20 62.5t-31.5 33.5t-42.5 13.5t-52 2.5h-19q-51 0 -51 -30v-133q0 -17 11 -17h26q18 0 33 2t26.5 9.5t19 23.5t10.5 43h38v-202h-38q-3 27 -8.5 43.5t-16 25t-26 11t-38.5 2.5h-9q-28 0 -28 -20v-142q0 -37 53 -37h24q46 0 73.5 7t44.5 22t28 38
t23 55l29 -7l-21 -157h-406v32q68 0 68 44v337q0 58 -74 58v32h401zM361 523l-103 58l-106 -58l-13 12l119 116l117 -116z" />
    <glyph glyph-name="Esmalldieresis" unicode="&#xe077;" horiz-adv-x="515" 
d="M458 355l-33 -4q-7 40 -20 62.5t-31.5 33.5t-42.5 13.5t-52 2.5h-19q-51 0 -51 -30v-133q0 -17 11 -17h26q18 0 33 2t26.5 9.5t19 23.5t10.5 43h38v-202h-38q-3 27 -8.5 43.5t-16 25t-26 11t-38.5 2.5h-9q-28 0 -28 -20v-142q0 -37 53 -37h24q46 0 73.5 7t44.5 22t28 38
t23 55l29 -7l-21 -157h-406v32q68 0 68 44v337q0 58 -74 58v32h401zM361 645q46 0 46 -47t-46 -47q-50 0 -50 47t50 47zM205 598q0 -47 -47 -47q-50 0 -50 47t50 47q47 0 47 -47z" />
    <glyph glyph-name="Ismallgrave" unicode="&#xe078;" horiz-adv-x="330" 
d="M276 471q-67 0 -67 -61v-331q0 -47 70 -47v-32h-225v32q71 0 71 47v331q0 61 -74 61v32h225v-32zM253 512q-25 13 -57.5 25t-61.5 24t-49 25.5t-20 29.5q0 11 6.5 23t27.5 12q16 -4 35.5 -18t40.5 -32t43.5 -37.5t45.5 -33.5z" />
    <glyph glyph-name="Ismallacute" unicode="&#xe079;" horiz-adv-x="330" 
d="M276 471q-67 0 -67 -61v-331q0 -47 70 -47v-32h-225v32q71 0 71 47v331q0 61 -74 61v32h225v-32zM65 530q32 21 62 45.5t57 48.5q10 9 21 18t25 9q21 0 27.5 -12t6.5 -23q0 -15 -20 -28.5t-49.5 -26.5t-62 -25t-56.5 -24z" />
    <glyph glyph-name="Ismallcircumflex" unicode="&#xe07a;" horiz-adv-x="330" 
d="M276 471q-67 0 -67 -61v-331q0 -47 70 -47v-32h-225v32q71 0 71 47v331q0 61 -74 61v32h225v-32zM269 523l-103 58l-106 -58l-13 12l119 116l117 -116z" />
    <glyph glyph-name="Ismalldieresis" unicode="&#xe07b;" horiz-adv-x="330" 
d="M276 471q-67 0 -67 -61v-331q0 -47 70 -47v-32h-225v32q71 0 71 47v331q0 61 -74 61v32h225v-32zM270 645q46 0 46 -47t-46 -47q-50 0 -50 47t50 47zM114 598q0 -47 -47 -47q-50 0 -50 47t50 47q47 0 47 -47z" />
    <glyph glyph-name="Ethsmall" unicode="&#xe07c;" horiz-adv-x="605" 
d="M51 504q19 -2 36 -3t33 -1q26 0 46 1t39 2l38 2t43 1q132 0 200 -66.5t68 -187.5q0 -58 -17.5 -104.5t-55 -79.5t-95.5 -50.5t-140 -17.5h-192v32q22 0 35.5 2t21.5 8.5t11 19.5t3 34v148h-50v54h50v107q0 25 -4 37t-13 17t-23 6.5t-34 6.5v32zM249 465q-24 0 -32 -6.5
t-8 -34.5v-126h116v-54h-116v-154q0 -36 13 -44t47 -8h22q85 0 126.5 51t41.5 163q0 109 -46.5 161t-134.5 52h-29z" />
    <glyph glyph-name="Nsmalltilde" unicode="&#xe07d;" horiz-adv-x="572" 
d="M561 471q-68 0 -68 -77v-396l-27 -7l-321 410v-286q0 -83 76 -83v-32h-189v32q63 0 63 83v330q0 26 -74 26v32h143l286 -362v253q0 77 -77 77v32h188v-32zM440 634q-9 -37 -35 -60.5t-61 -23.5q-20 0 -35.5 8.5t-30.5 19t-30 19.5t-32 9q-20 0 -36.5 -14.5t-28.5 -37.5
l-20 12q10 38 38 61.5t56 23.5t44.5 -8.5t28.5 -19t24 -19t32 -8.5q19 0 35.5 11.5t30.5 41.5z" />
    <glyph glyph-name="Osmallgrave" unicode="&#xe07e;" horiz-adv-x="592" 
d="M287 477q-42 0 -70 -18.5t-45.5 -49t-25 -71t-7.5 -84.5q0 -48 9 -89t28.5 -72t49.5 -48.5t72 -17.5q40 0 69 17t48 47t28 70.5t9 87.5q0 44 -9 85t-28.5 73t-51 51t-76.5 19zM293 512q55 0 101.5 -19.5t80.5 -54t53 -82t19 -102.5q0 -48 -18 -95.5t-51.5 -85t-80.5 -61
t-104 -23.5q-54 0 -100 20t-79 55.5t-51.5 83t-18.5 101.5q0 50 18 97.5t50.5 84t78.5 59t102 22.5zM385 512q-25 13 -57.5 25t-61.5 24t-49 25.5t-20 29.5q0 11 6.5 23t27.5 12q16 -4 35.5 -18t40.5 -32t43.5 -37.5t45.5 -33.5z" />
    <glyph glyph-name="Osmallacute" unicode="&#xe07f;" horiz-adv-x="592" 
d="M287 477q-42 0 -70 -18.5t-45.5 -49t-25 -71t-7.5 -84.5q0 -48 9 -89t28.5 -72t49.5 -48.5t72 -17.5q40 0 69 17t48 47t28 70.5t9 87.5q0 44 -9 85t-28.5 73t-51 51t-76.5 19zM293 512q55 0 101.5 -19.5t80.5 -54t53 -82t19 -102.5q0 -48 -18 -95.5t-51.5 -85t-80.5 -61
t-104 -23.5q-54 0 -100 20t-79 55.5t-51.5 83t-18.5 101.5q0 50 18 97.5t50.5 84t78.5 59t102 22.5zM197 530q32 21 62 45.5t57 48.5q10 9 21 18t25 9q21 0 27.5 -12t6.5 -23q0 -15 -20 -28.5t-49.5 -26.5t-62 -25t-56.5 -24z" />
    <glyph glyph-name="Osmallcircumflex" unicode="&#xe080;" horiz-adv-x="592" 
d="M287 477q-42 0 -70 -18.5t-45.5 -49t-25 -71t-7.5 -84.5q0 -48 9 -89t28.5 -72t49.5 -48.5t72 -17.5q40 0 69 17t48 47t28 70.5t9 87.5q0 44 -9 85t-28.5 73t-51 51t-76.5 19zM293 512q55 0 101.5 -19.5t80.5 -54t53 -82t19 -102.5q0 -48 -18 -95.5t-51.5 -85t-80.5 -61
t-104 -23.5q-54 0 -100 20t-79 55.5t-51.5 83t-18.5 101.5q0 50 18 97.5t50.5 84t78.5 59t102 22.5zM400 523l-103 58l-106 -58l-13 12l119 116l117 -116z" />
    <glyph glyph-name="Osmalldieresis" unicode="&#xe081;" horiz-adv-x="592" 
d="M287 477q-42 0 -70 -18.5t-45.5 -49t-25 -71t-7.5 -84.5q0 -48 9 -89t28.5 -72t49.5 -48.5t72 -17.5q40 0 69 17t48 47t28 70.5t9 87.5q0 44 -9 85t-28.5 73t-51 51t-76.5 19zM293 512q55 0 101.5 -19.5t80.5 -54t53 -82t19 -102.5q0 -48 -18 -95.5t-51.5 -85t-80.5 -61
t-104 -23.5q-54 0 -100 20t-79 55.5t-51.5 83t-18.5 101.5q0 50 18 97.5t50.5 84t78.5 59t102 22.5zM399 645q46 0 46 -47t-46 -47q-50 0 -50 47t50 47zM243 598q0 -47 -47 -47q-50 0 -50 47t50 47q47 0 47 -47z" />
    <glyph glyph-name="Osmalltilde" unicode="&#xe082;" horiz-adv-x="592" 
d="M287 477q-42 0 -70 -18.5t-45.5 -49t-25 -71t-7.5 -84.5q0 -48 9 -89t28.5 -72t49.5 -48.5t72 -17.5q40 0 69 17t48 47t28 70.5t9 87.5q0 44 -9 85t-28.5 73t-51 51t-76.5 19zM293 512q55 0 101.5 -19.5t80.5 -54t53 -82t19 -102.5q0 -48 -18 -95.5t-51.5 -85t-80.5 -61
t-104 -23.5q-54 0 -100 20t-79 55.5t-51.5 83t-18.5 101.5q0 50 18 97.5t50.5 84t78.5 59t102 22.5zM450 634q-9 -37 -35 -60.5t-61 -23.5q-20 0 -35.5 8.5t-30.5 19t-30 19.5t-32 9q-20 0 -36.5 -14.5t-28.5 -37.5l-20 12q10 38 38 61.5t56 23.5t44.5 -8.5t28.5 -19t24 -19
t32 -8.5q19 0 35.5 11.5t30.5 41.5z" />
    <glyph glyph-name="Osmallslash" unicode="&#xe083;" horiz-adv-x="592" 
d="M448 463q46 -35 72.5 -89t26.5 -120q0 -48 -18 -95.5t-51.5 -85t-80.5 -61t-104 -23.5q-28 0 -53.5 5.5t-48.5 14.5l-33 -60l-41 20l36 62q-51 35 -80 92t-29 126q0 50 18 97.5t50.5 84t78.5 59t102 22.5q32 0 61 -7t55 -19l34 59l40 -19zM385 441q-20 17 -44 26.5
t-54 9.5q-42 0 -70 -18.5t-45.5 -49t-25 -71t-7.5 -84.5q0 -52 10 -95.5t33 -74.5zM216 52q31 -25 82 -25q40 0 69 17t48 47t28 70.5t9 87.5q0 92 -37 156z" />
    <glyph glyph-name="Usmallgrave" unicode="&#xe084;" horiz-adv-x="586" 
d="M578 471q-63 0 -63 -61v-227q0 -44 -7.5 -79.5t-30.5 -61t-66 -39.5t-113 -14q-90 0 -137 47t-47 119v267q0 49 -70 49v32h225v-32q-71 0 -71 -49v-247q0 -25 2.5 -50.5t15.5 -46t40 -33.5t76 -13q46 0 74 14t42.5 35t19 46t4.5 48v235q0 61 -77 61v32h183v-32zM395 512
q-25 13 -57.5 25t-61.5 24t-49 25.5t-20 29.5q0 11 6.5 23t27.5 12q16 -4 35.5 -18t40.5 -32t43.5 -37.5t45.5 -33.5z" />
    <glyph glyph-name="Usmallacute" unicode="&#xe085;" horiz-adv-x="586" 
d="M578 471q-63 0 -63 -61v-227q0 -44 -7.5 -79.5t-30.5 -61t-66 -39.5t-113 -14q-90 0 -137 47t-47 119v267q0 49 -70 49v32h225v-32q-71 0 -71 -49v-247q0 -25 2.5 -50.5t15.5 -46t40 -33.5t76 -13q46 0 74 14t42.5 35t19 46t4.5 48v235q0 61 -77 61v32h183v-32zM214 530
q32 21 62 45.5t57 48.5q10 9 21 18t25 9q21 0 27.5 -12t6.5 -23q0 -15 -20 -28.5t-49.5 -26.5t-62 -25t-56.5 -24z" />
    <glyph glyph-name="Usmallcircumflex" unicode="&#xe086;" horiz-adv-x="586" 
d="M578 471q-63 0 -63 -61v-227q0 -44 -7.5 -79.5t-30.5 -61t-66 -39.5t-113 -14q-90 0 -137 47t-47 119v267q0 49 -70 49v32h225v-32q-71 0 -71 -49v-247q0 -25 2.5 -50.5t15.5 -46t40 -33.5t76 -13q46 0 74 14t42.5 35t19 46t4.5 48v235q0 61 -77 61v32h183v-32zM434 523
l-103 58l-106 -58l-13 12l119 116l117 -116z" />
    <glyph glyph-name="Usmalldieresis" unicode="&#xe087;" horiz-adv-x="586" 
d="M578 471q-63 0 -63 -61v-227q0 -44 -7.5 -79.5t-30.5 -61t-66 -39.5t-113 -14q-90 0 -137 47t-47 119v267q0 49 -70 49v32h225v-32q-71 0 -71 -49v-247q0 -25 2.5 -50.5t15.5 -46t40 -33.5t76 -13q46 0 74 14t42.5 35t19 46t4.5 48v235q0 61 -77 61v32h183v-32zM430 645
q46 0 46 -47t-46 -47q-50 0 -50 47t50 47zM274 598q0 -47 -47 -47q-50 0 -50 47t50 47q47 0 47 -47z" />
    <glyph glyph-name="Ysmallacute" unicode="&#xe088;" horiz-adv-x="450" 
d="M475 471q-20 0 -36 -6t-24 -20l-139 -237v-149q0 -27 74 -27v-32h-237v32q77 0 77 30v143l-124 205q-37 61 -83 61v32h214v-32q-29 0 -41.5 -5.5t-12.5 -15.5q-1 -5 3.5 -12.5t12.5 -20.5l95 -158l89 158q5 8 6.5 17.5t1.5 18.5q0 18 -59 18v32h183v-32zM133 530
q32 21 62 45.5t57 48.5q10 9 21 18t25 9q21 0 27.5 -12t6.5 -23q0 -15 -20 -28.5t-49.5 -26.5t-62 -25t-56.5 -24z" />
    <glyph glyph-name="Thornsmall" unicode="&#xe089;" horiz-adv-x="505" 
d="M273 471q-67 0 -67 -61q14 0 23 0.5l18 1t19.5 1t27.5 0.5q172 0 172 -150q0 -29 -10.5 -54.5t-32 -44.5t-54.5 -30t-78 -11q-23 0 -44.5 1.5t-40.5 5.5v-51q0 -47 70 -47v-32h-225v32q71 0 71 47v331q0 61 -74 61v32h225v-32zM232 378q-26 0 -26 -30v-180q18 -3 38.5 -5
t46.5 -2q46 0 67.5 31.5t21.5 73.5q0 112 -129 112h-19z" />
    <glyph glyph-name="OEsmall" unicode="&#xe08a;" horiz-adv-x="825" 
d="M776 355l-33 -4q-7 40 -20 62.5t-31.5 33.5t-42.5 13.5t-52 2.5h-19q-51 0 -51 -30v-133q0 -17 11 -17h26q18 0 33 2t26.5 9.5t19 23.5t10.5 43h38v-202h-38q-3 27 -8.5 43.5t-16 25t-26 11t-38.5 2.5h-9q-28 0 -28 -20v-142q0 -37 53 -37h24q46 0 73.5 7t44.5 22t28 38
t23 55l29 -7l-21 -157h-416q-17 -5 -34.5 -8t-37.5 -3q-54 0 -100 20t-79 55.5t-51.5 83t-18.5 101.5q0 50 18 97.5t50.5 84t78.5 59t102 22.5q36 0 68 -9h409zM287 477q-42 0 -70 -18.5t-45.5 -49t-25 -71t-7.5 -84.5q0 -48 9 -89t28.5 -72t49.5 -48.5t72 -17.5q40 0 69 17
t48 47t28 70.5t9 87.5q0 44 -9 85t-28.5 73t-51 51t-76.5 19z" />
    <glyph glyph-name="Lsmallslash" unicode="&#xe08b;" horiz-adv-x="462" 
d="M276 471q-67 0 -67 -52v-145l133 34l14 -48l-147 -36v-156q0 -26 42 -26h35q33 0 56.5 2t41.5 14t32 37t28 72l29 -5l-24 -162h-389v32q65 0 65 36v135l-20 -5l-14 48l34 8v165q0 52 -74 52v32h225v-32z" />
    <glyph glyph-name="Ssmallcaron" unicode="&#xe08c;" horiz-adv-x="445" 
d="M345 343q-14 60 -48.5 97t-83.5 37q-42 0 -65 -21.5t-23 -53.5q0 -23 14 -39.5t34 -28t43 -19.5t40 -14q33 -13 59.5 -26t45 -30t28.5 -41t10 -60q0 -29 -9 -56.5t-27.5 -49.5t-48 -35.5t-70.5 -13.5q-48 0 -73 10.5t-34 18.5q-14 -10 -29 -18t-32 -13q-18 115 -18 187
h35q0 -33 12.5 -60t33 -46.5t45.5 -30t49 -10.5q15 0 33 5t34 15.5t27 26.5t11 38q0 29 -18 50t-48 33q-41 16 -78.5 29t-66.5 31t-46 45t-17 71q0 33 11.5 59t31 45t46 29t55.5 10q32 0 52 -8.5t42 -21.5q11 8 24.5 14.5t28.5 11.5q22 -66 22 -167h-32zM221 521l-117 115
l14 13l103 -58l106 58l13 -13z" />
    <glyph glyph-name="Zsmallcaron" unicode="&#xe08d;" horiz-adv-x="426" 
d="M403 474l-272 -431q11 -3 21 -4t19 -1h57q37 0 64 14.5t45.5 35t29.5 42.5t17 37l31 -7l-21 -160h-367l-3 23l275 435q-14 2 -27.5 3.5t-26.5 1.5h-34q-23 0 -44 -2t-39 -12.5t-33 -33.5t-25 -64h-33l17 158q31 -6 60 -6h289v-29zM222 521l-117 115l14 13l103 -58l106 58
l13 -13z" />
    <glyph glyph-name="SSsmall" unicode="&#xe08e;" horiz-adv-x="889" 
d="M345 343q-14 60 -48.5 97t-83.5 37q-42 0 -65 -21.5t-23 -53.5q0 -23 14 -39.5t34 -28t43 -19.5t40 -14q33 -13 59.5 -26t45 -30t28.5 -41t10 -60q0 -29 -9 -56.5t-27.5 -49.5t-48 -35.5t-70.5 -13.5q-48 0 -73 10.5t-34 18.5q-14 -10 -29 -18t-32 -13q-18 115 -18 187
h35q0 -33 12.5 -60t33 -46.5t45.5 -30t49 -10.5q15 0 33 5t34 15.5t27 26.5t11 38q0 29 -18 50t-48 33q-41 16 -78.5 29t-66.5 31t-46 45t-17 71q0 33 11.5 59t31 45t46 29t55.5 10q32 0 52 -8.5t42 -21.5q11 8 24.5 14.5t28.5 11.5q22 -66 22 -167h-32zM790 343
q-14 60 -48.5 97t-83.5 37q-42 0 -65 -21.5t-23 -53.5q0 -23 14 -39.5t34 -28t43 -19.5t40 -14q33 -13 59.5 -26t45 -30t28.5 -41t10 -60q0 -29 -9 -56.5t-27.5 -49.5t-48 -35.5t-70.5 -13.5q-48 0 -73 10.5t-34 18.5q-14 -10 -29 -18t-32 -13q-18 115 -18 187h35
q0 -33 12.5 -60t33 -46.5t45.5 -30t49 -10.5q15 0 33 5t34 15.5t27 26.5t11 38q0 29 -18 50t-48 33q-41 16 -78.5 29t-66.5 31t-46 45t-17 71q0 33 11.5 59t31 45t46 29t55.5 10q32 0 52 -8.5t42 -21.5q11 8 24.5 14.5t28.5 11.5q22 -66 22 -167h-32z" />
    <glyph glyph-name="ff" unicode="&#xfb00;" horiz-adv-x="657" 
d="M643 393h-93q-16 0 -16 -12v-296q0 -53 93 -53v-32h-251v32q69 0 69 53v296q0 12 -13 12h-220q-17 0 -17 -12v-296q0 -53 94 -53v-32h-252v32q69 0 69 53v292q0 12 -12 12h-86v44h82q16 0 16 29q0 59 9.5 109t32 86t59 56t90.5 20q85 0 85 -70q0 -20 -14 -33.5t-33 -13.5
q-38 0 -38 31q0 17 8 25q-11 17 -33 17q-24 0 -39 -20t-23.5 -47.5t-11.5 -57.5t-3 -50v-52q0 -29 17 -29h216q17 0 17 29q0 59 9.5 109t32 86t58.5 56t90 20q85 0 85 -70q0 -20 -13.5 -33.5t-33.5 -13.5q-38 0 -38 31q0 17 8 25q-11 17 -32 17q-24 0 -39.5 -20t-23.5 -47.5
t-11 -57.5t-3 -50v-52q0 -29 16 -29l97 4z" />
    <glyph glyph-name="fi" unicode="&#xfb01;" horiz-adv-x="647" 
d="M531 93q0 -61 81 -61v-32h-243v32q72 0 72 65v211q0 85 -64 85h-166q-17 0 -17 -12v-296q0 -53 94 -53v-32h-252v32q69 0 69 53v292q0 12 -12 12h-85v44h81q16 0 16 29q0 70 19 121t53 84.5t80 49.5t99 16q21 0 49 -5.5t52.5 -20.5t41.5 -42.5t17 -70.5q0 -21 -14 -42.5
t-40 -21.5q-23 0 -39 10t-16 30q0 4 0.5 11.5t3.5 15.5t9 15t17 11q-8 38 -36.5 52t-68.5 14q-37 0 -63 -17t-42.5 -43.5t-24.5 -57t-8 -57.5v-52q0 -29 17 -29h320v-340z" />
    <glyph glyph-name="fl" unicode="&#xfb02;" horiz-adv-x="656" 
d="M540 77q0 -45 81 -45v-32h-243v32q73 0 73 49v539q0 34 -18.5 51.5t-66.5 17.5h-61q-39 0 -61 -15.5t-33 -40t-13.5 -56t-2.5 -63.5v-52q0 -29 17 -29h154l-5 -40h-149q-17 0 -17 -12v-296q0 -53 94 -53v-32h-252v32q69 0 69 53v292q0 12 -12 12h-86v44h82q16 0 16 29
q0 77 9.5 129t38 83.5t80.5 45t138 13.5h168v-656z" />
    <glyph glyph-name="ffi" unicode="&#xfb03;" horiz-adv-x="986" 
d="M870 93q0 -61 81 -61v-32h-243v32q73 0 73 65v211q0 85 -65 85h-166q-16 0 -16 -12v-296q0 -53 93 -53v-32h-251v32q69 0 69 53v292q0 12 -13 12h-220q-17 0 -17 -12v-292q0 -53 94 -53v-32h-252v32q69 0 69 53v292q0 12 -12 12h-86v44h82q16 0 16 29q0 59 9.5 109t32 86
t59 56t90.5 20q85 0 85 -70q0 -20 -14 -33.5t-33 -13.5q-38 0 -38 31q0 17 8 25q-11 17 -33 17q-24 0 -39 -20t-23.5 -47.5t-11.5 -57.5t-3 -50v-52q0 -29 17 -29h216q17 0 17 29q0 70 19 121t53 84.5t79.5 49.5t99.5 16q21 0 48.5 -5.5t52.5 -20.5t42 -42.5t17 -70.5
q0 -21 -14 -42.5t-41 -21.5q-22 0 -38.5 10t-16.5 30q0 4 0.5 11.5t3.5 15.5t9.5 15t17.5 11q-8 38 -37 52t-69 14q-37 0 -63 -17t-42.5 -43.5t-24 -57t-7.5 -57.5v-52q0 -29 16 -29h320v-340z" />
    <glyph glyph-name="ffl" unicode="&#xfb04;" horiz-adv-x="993" 
d="M877 77q0 -45 81 -45v-32h-243v32q73 0 73 49v539q0 34 -18 51.5t-67 17.5h-61q-39 0 -60.5 -15.5t-32.5 -40t-13.5 -56t-2.5 -63.5v-52q0 -29 16 -29h154l-4 -40h-150q-16 0 -16 -12v-296q0 -53 93 -53v-32h-251v32q69 0 69 53v296q0 12 -13 12h-219q-17 0 -17 -12v-296
q0 -53 94 -53v-32h-252v32q69 0 69 53v292q0 12 -12 12h-86v44h82q16 0 16 29q0 59 9.5 109t32 86t59 56t90.5 20q85 0 85 -70q0 -20 -14 -33.5t-33 -13.5q-38 0 -38 31q0 17 8 25q-11 17 -33 17q-24 0 -39 -20t-23.5 -47.5t-11.5 -57.5t-3 -50v-52q0 -29 17 -29h215
q17 0 17 29q0 77 9.5 129t38 83.5t80.5 45t137 13.5h168v-656z" />
    <glyph glyph-name=".null" 
 />
    <glyph glyph-name="nonmarkingreturn" 
 />
    <glyph glyph-name="DC4" 
 />
    <glyph glyph-name="LF" 
 />
    <glyph glyph-name="DC1" 
 />
    <glyph glyph-name="HT" 
 />
    <glyph glyph-name="RS" 
 />
    <glyph glyph-name="DC2" 
 />
    <glyph glyph-name="NUL" 
 />
    <glyph glyph-name="DLE" 
 />
    <glyph glyph-name="US" 
 />
    <glyph glyph-name="DC3" 
 />
    </font>
</defs>
</svg>
